{"glyphs":{"0":{"ha":740,"x_min":49,"x_max":694,"o":"m 49 486 q 132 863 49 736 q 371 989 215 989 q 617 865 539 989 q 694 486 694 740 q 610 110 694 236 q 363 -17 526 -17 q 218 17 278 -17 q 121 116 158 51 q 66 274 83 181 q 49 486 49 367 m 182 486 q 192 304 182 386 q 223 163 201 222 q 278 72 244 104 q 361 40 313 40 q 516 149 471 40 q 561 486 561 257 q 553 668 561 586 q 522 808 544 750 q 463 899 500 867 q 371 931 426 931 q 224 823 267 931 q 182 486 182 715 z "},"1":{"ha":740,"x_min":158,"x_max":590,"o":"m 590 0 l 185 0 l 185 40 q 255 67 219 56 q 326 88 290 79 l 326 769 l 332 851 q 251 830 293 836 q 165 825 210 824 l 158 858 q 290 910 222 879 q 417 989 358 942 l 451 989 l 451 88 q 521 67 486 79 q 590 40 556 56 l 590 0 z "},"2":{"ha":740,"x_min":67,"x_max":640,"o":"m 185 701 l 150 701 q 119 796 135 742 q 92 899 103 850 q 208 965 140 940 q 356 989 276 989 q 475 969 425 989 q 558 917 525 950 q 606 840 590 883 q 621 749 621 796 q 585 589 621 671 q 495 430 549 507 q 379 285 442 353 q 264 165 317 217 l 206 111 l 206 106 l 283 114 l 522 114 l 590 269 l 625 269 q 631 203 628 239 q 635 130 633 167 q 639 59 638 93 q 640 0 640 25 l 67 0 l 67 44 q 141 122 97 76 q 232 224 185 168 q 326 342 279 279 q 408 469 372 404 q 467 597 444 533 q 490 719 490 661 q 480 796 490 760 q 449 859 469 832 q 398 901 428 886 q 329 917 368 917 q 278 913 300 917 q 229 900 256 908 l 185 701 z "},"3":{"ha":740,"x_min":83,"x_max":674,"o":"m 356 49 q 428 66 394 49 q 486 113 461 83 q 526 182 511 143 q 540 264 540 221 q 524 354 540 315 q 481 419 508 393 q 416 458 453 444 q 336 471 379 471 l 246 471 l 246 508 l 479 821 l 526 869 l 526 875 l 451 867 l 217 867 l 163 725 l 128 725 q 117 788 122 754 q 108 853 113 821 q 101 917 104 886 q 99 972 99 947 l 642 972 l 642 929 l 410 619 l 350 558 l 350 556 l 397 565 q 514 540 463 563 q 601 481 565 518 q 655 395 636 444 q 674 288 674 346 q 646 162 674 218 q 572 66 618 106 q 465 5 525 26 q 338 -17 404 -17 q 269 -12 306 -17 q 199 3 233 -7 q 134 25 164 13 q 83 54 104 38 l 122 179 l 150 179 q 173 154 158 169 q 203 122 188 139 q 235 89 219 106 q 261 60 250 72 q 297 53 275 57 q 356 49 319 49 z "},"4":{"ha":740,"x_min":6,"x_max":733,"o":"m 663 0 l 301 0 l 301 40 q 429 74 369 64 l 429 268 l 6 268 l 6 300 l 519 989 l 557 989 l 557 340 l 733 340 l 733 268 l 557 268 l 557 74 q 663 40 611 63 l 663 0 m 429 697 l 444 797 l 440 797 l 386 697 l 153 376 l 97 331 l 196 340 l 429 340 l 429 697 z "},"5":{"ha":740,"x_min":78,"x_max":633,"o":"m 599 1049 l 633 1049 q 630 1002 632 1028 q 624 951 628 976 q 615 901 619 925 q 606 863 611 878 l 264 863 l 231 594 l 321 594 q 448 576 390 594 q 547 520 506 557 q 610 431 588 483 q 633 310 633 378 q 606 168 633 229 q 532 66 578 107 q 428 4 486 25 q 307 -17 369 -17 q 247 -12 279 -17 q 184 3 215 -7 q 125 26 153 13 q 78 54 97 39 l 118 179 l 146 179 q 167 154 154 169 q 192 122 179 139 q 219 89 206 106 q 243 60 232 72 q 269 53 257 57 q 306 49 281 49 q 390 67 351 49 q 456 116 428 85 q 499 189 483 147 q 514 279 514 231 q 493 376 514 335 q 436 442 472 417 q 352 481 400 468 q 251 492 304 493 l 153 490 l 208 972 l 539 972 l 599 1049 z "},"6":{"ha":740,"x_min":68,"x_max":697,"o":"m 697 293 q 675 173 697 229 q 613 74 653 117 q 515 8 572 32 q 389 -17 458 -17 q 251 10 311 -17 q 151 86 192 38 q 89 201 110 135 q 68 347 68 268 q 111 587 68 478 q 226 780 154 696 q 390 919 297 864 q 582 997 482 975 l 597 956 q 458 884 524 929 q 340 778 392 839 q 253 641 288 717 q 210 478 218 565 q 289 547 232 515 q 421 578 346 578 q 532 558 481 578 q 619 503 583 539 q 676 414 656 467 q 697 293 697 361 m 564 282 q 516 443 564 381 q 382 506 468 506 q 270 473 317 506 q 204 400 224 440 q 201 354 201 381 q 201 313 201 328 q 213 222 201 268 q 249 136 225 175 q 310 72 274 97 q 396 47 347 47 q 472 67 440 47 q 524 121 504 88 q 554 197 544 154 q 564 282 564 239 z "},"7":{"ha":740,"x_min":90,"x_max":665,"o":"m 154 724 l 119 724 q 108 786 114 753 q 99 853 103 819 q 92 917 94 886 q 90 972 90 947 l 665 972 l 665 932 q 550 704 596 808 q 472 494 504 600 q 415 269 439 388 q 368 0 392 150 l 229 0 q 357 403 281 203 q 533 806 433 603 l 575 872 l 503 865 l 208 865 l 154 724 z "},"8":{"ha":740,"x_min":68,"x_max":674,"o":"m 68 218 q 85 308 68 265 q 131 384 101 350 q 202 444 161 418 q 292 488 243 471 q 219 533 253 508 q 160 590 185 558 q 120 660 135 622 q 106 746 106 699 q 125 844 106 800 q 180 921 144 889 q 266 971 215 953 q 379 989 317 989 q 569 927 501 989 q 638 768 638 865 q 585 627 638 688 q 447 528 532 567 q 538 472 496 503 q 609 406 579 442 q 656 327 639 369 q 674 236 674 285 q 653 139 674 185 q 594 58 633 93 q 497 3 554 24 q 364 -17 439 -17 q 232 3 288 -17 q 140 55 176 22 q 85 130 103 88 q 68 218 68 172 m 551 213 q 533 298 551 260 q 483 366 514 336 q 410 421 451 396 q 326 467 369 446 q 260 414 286 443 q 217 353 233 385 q 194 292 201 322 q 188 235 188 261 q 198 167 188 201 q 231 107 208 133 q 288 64 253 81 q 375 47 324 47 q 451 62 418 47 q 507 100 485 76 q 540 153 529 124 q 551 213 551 183 m 225 764 q 241 689 225 721 q 283 631 257 657 q 344 585 310 606 q 414 546 378 564 q 496 640 472 593 q 519 744 519 688 q 481 877 519 831 q 376 924 443 924 q 311 910 339 924 q 264 874 283 896 q 235 823 244 851 q 225 764 225 794 z "},"9":{"ha":740,"x_min":65,"x_max":688,"o":"m 65 676 q 85 801 65 744 q 145 900 106 858 q 242 965 185 942 q 375 989 300 989 q 515 962 456 989 q 613 886 574 935 q 669 767 651 838 q 688 613 688 697 q 650 374 688 483 q 548 181 613 264 q 395 47 483 99 q 206 -17 307 -4 l 181 24 q 326 89 263 46 q 434 191 389 132 q 507 322 479 250 q 546 472 535 393 q 470 416 514 439 q 351 393 426 393 q 236 412 289 393 q 146 467 183 431 q 87 556 108 503 q 65 676 65 608 m 199 678 q 211 599 199 638 q 247 531 224 561 q 304 483 271 501 q 379 465 338 465 q 490 488 446 465 q 554 546 533 511 q 557 591 557 564 q 557 633 557 618 q 547 735 557 683 q 514 829 536 788 q 456 897 492 871 q 369 924 419 924 q 242 858 286 924 q 199 678 199 792 z "}," ":{"ha":338,"x_min":0,"x_max":0,"o":""},"!":{"ha":454,"x_min":165,"x_max":356,"o":"m 242 303 l 197 547 l 197 958 q 260 974 228 974 q 322 958 292 974 l 322 547 l 278 303 l 242 303 m 165 79 q 192 146 165 121 q 260 171 218 171 q 329 146 303 171 q 356 79 356 121 q 329 14 356 39 q 260 -11 303 -11 q 192 14 218 -11 q 165 79 165 39 z "},"\"":{"ha":528,"x_min":121,"x_max":406,"o":"m 288 931 q 309 960 294 949 q 347 972 324 972 q 406 931 390 972 l 361 700 l 333 700 l 288 931 m 121 931 q 142 960 128 949 q 181 972 157 972 q 239 931 224 972 l 194 700 l 167 700 l 121 931 z "},"#":{"ha":740,"x_min":46,"x_max":690,"o":"m 428 324 l 231 324 l 172 81 l 99 81 l 157 324 l 46 324 l 65 388 l 171 388 l 221 596 l 115 596 l 135 660 l 236 660 l 292 892 l 364 892 l 310 660 l 507 660 l 563 892 l 635 892 l 579 660 l 690 660 l 667 596 l 564 596 l 514 388 l 621 388 l 597 324 l 500 324 l 442 81 l 369 81 l 428 324 m 244 388 l 442 388 l 492 596 l 294 596 l 244 388 z "},"$":{"ha":740,"x_min":72,"x_max":672,"o":"m 332 -17 q 251 -10 290 -17 q 180 6 213 -4 q 122 29 147 17 q 82 54 96 42 q 85 91 83 68 q 89 138 86 114 q 95 183 92 161 q 104 218 99 206 l 139 218 l 222 83 q 269 65 240 72 q 332 56 299 57 l 332 451 q 324 454 326 451 l 279 475 q 201 515 239 493 q 135 569 164 538 q 90 642 107 600 q 72 740 72 683 q 92 833 72 790 q 145 910 111 876 q 227 963 179 943 q 332 988 275 983 l 332 1056 l 404 1056 l 404 988 q 520 969 471 983 q 606 939 569 956 q 594 865 604 894 q 572 814 583 836 l 536 814 l 467 908 q 438 913 451 911 q 404 915 424 914 l 404 544 l 444 526 q 528 483 488 506 q 601 428 569 460 q 653 353 633 397 q 672 243 672 308 q 601 72 672 142 q 404 -12 531 3 l 404 -97 l 332 -97 l 332 -17 m 547 233 q 506 348 547 306 q 404 418 464 390 l 404 63 q 507 123 467 79 q 547 233 547 167 m 197 765 q 208 699 197 728 q 236 649 218 671 q 278 609 254 626 q 332 576 303 592 l 332 915 q 233 866 269 908 q 197 765 197 824 z "},"%":{"ha":1121,"x_min":72,"x_max":1046,"o":"m 938 986 l 986 943 l 174 -10 l 126 35 l 938 986 m 72 753 q 90 850 72 807 q 141 924 108 893 q 217 972 174 956 q 314 989 261 989 q 411 974 367 989 q 488 931 456 960 q 538 857 519 901 q 556 753 556 813 q 538 655 556 699 q 488 581 519 611 q 411 533 456 550 q 314 517 367 517 q 217 531 261 517 q 141 575 174 546 q 90 649 108 604 q 72 753 72 693 m 189 753 q 221 619 189 669 q 314 568 253 568 q 439 753 439 568 q 314 936 439 936 q 189 753 189 936 m 563 221 q 581 318 563 275 q 631 392 599 361 q 708 440 664 424 q 804 457 751 457 q 901 442 857 457 q 978 399 946 428 q 1028 325 1010 369 q 1046 221 1046 281 q 1028 123 1046 167 q 978 49 1010 79 q 901 1 946 18 q 804 -15 857 -15 q 708 -1 751 -15 q 631 43 664 14 q 581 117 599 72 q 563 221 563 161 m 679 221 q 711 87 679 138 q 804 36 743 36 q 929 221 929 36 q 804 404 929 404 q 679 221 679 404 z "},"&":{"ha":1207,"x_min":164,"x_max":1165,"o":"m 750 171 q 659 259 708 208 q 564 363 610 310 q 479 464 518 415 q 418 544 440 513 q 332 431 358 486 q 306 303 306 376 q 323 205 306 250 q 371 126 340 160 q 444 74 401 93 q 538 56 488 56 q 654 84 600 56 q 750 171 708 113 m 392 810 q 401 756 392 785 q 427 700 411 728 q 462 646 443 672 q 499 599 481 619 q 580 695 549 640 q 604 825 611 750 q 576 900 601 869 q 497 931 551 931 q 447 920 467 931 q 414 892 426 910 q 397 853 401 875 q 392 810 392 832 m 968 0 q 894 48 939 19 q 797 128 850 76 q 749 76 778 101 q 680 29 719 50 q 592 -4 640 8 q 486 -17 543 -17 q 353 6 413 -17 q 251 65 293 28 q 187 151 210 103 q 164 253 164 200 q 189 376 164 321 q 249 472 214 431 q 321 541 283 513 q 383 588 358 569 q 315 692 343 632 q 288 803 288 751 q 301 872 288 838 q 342 931 315 906 q 409 973 369 957 q 499 989 449 989 q 647 949 590 989 q 703 835 703 910 q 687 749 703 789 q 646 676 671 710 q 590 615 621 643 q 528 564 558 588 q 660 418 585 493 q 818 268 735 343 q 846 319 829 283 q 877 404 863 356 q 901 510 892 453 q 906 625 910 568 q 824 658 864 633 l 824 694 l 1106 694 l 1106 658 q 1014 625 1068 635 q 982 476 1001 543 q 942 359 963 410 q 902 273 921 308 q 872 221 883 238 q 976 141 925 178 q 1089 68 1026 104 l 1165 35 l 1165 0 l 968 0 z "},"'":{"ha":308,"x_min":121,"x_max":239,"o":"m 121 931 q 142 960 128 949 q 181 972 157 972 q 239 931 224 972 l 194 700 l 167 700 l 121 931 z "},"(":{"ha":476,"x_min":82,"x_max":450,"o":"m 417 -292 q 285 -179 346 -240 q 178 -42 224 -118 q 108 128 133 35 q 82 338 82 221 q 108 543 82 451 q 181 711 135 635 q 288 852 226 788 q 421 975 350 917 l 450 950 q 349 828 394 890 q 270 692 303 765 q 219 531 238 618 q 201 338 201 444 q 221 145 201 233 q 274 -17 240 57 q 353 -153 308 -92 q 450 -264 399 -214 l 417 -292 z "},")":{"ha":476,"x_min":26,"x_max":394,"o":"m 26 -264 q 123 -151 78 -214 q 201 -10 168 -87 q 254 157 235 67 q 274 351 274 247 q 256 543 274 458 q 206 699 238 628 q 128 831 174 769 q 26 950 82 892 l 56 975 q 188 860 126 921 q 296 724 250 799 q 368 557 342 649 q 394 351 394 465 q 369 141 394 236 q 300 -33 344 46 q 194 -176 256 -111 q 60 -292 132 -240 l 26 -264 z "},"*":{"ha":646,"x_min":81,"x_max":564,"o":"m 86 856 q 85 880 82 865 q 96 909 88 894 q 116 935 104 924 q 140 949 128 946 l 279 828 q 275 807 279 817 q 260 792 271 797 l 86 856 m 139 617 q 117 628 128 618 q 97 653 106 639 q 85 683 89 668 q 85 710 81 699 l 258 769 q 279 736 279 758 l 139 617 m 376 540 q 355 528 369 532 q 324 524 340 524 q 292 528 307 524 q 271 539 278 532 l 303 719 q 347 719 325 731 l 376 540 m 558 710 q 560 685 564 700 q 549 655 557 669 q 529 629 540 640 q 506 617 518 618 l 369 733 q 374 753 369 746 q 388 768 379 761 l 558 710 m 508 949 q 531 937 519 947 q 549 912 542 926 q 560 882 557 897 q 560 854 564 867 l 388 789 q 368 825 368 803 l 508 949 m 269 1024 q 290 1037 275 1032 q 321 1042 304 1042 q 353 1037 338 1042 q 375 1024 368 1032 l 344 843 q 301 843 324 829 l 269 1024 z "},"+":{"ha":740,"x_min":58,"x_max":682,"o":"m 58 514 l 333 514 l 333 806 l 407 806 l 407 514 l 682 514 l 682 440 l 407 440 l 407 142 l 333 142 l 333 440 l 58 440 l 58 514 z "},",":{"ha":393,"x_min":71,"x_max":301,"o":"m 71 -207 q 121 -177 97 -197 q 162 -132 144 -157 q 188 -77 179 -107 q 194 -18 197 -47 q 150 13 178 -3 q 101 35 122 28 q 101 86 94 61 q 119 131 107 111 q 148 162 132 150 q 179 175 164 174 q 265 132 228 168 q 301 24 301 96 q 288 -58 301 -15 q 247 -137 274 -100 q 183 -205 221 -175 q 99 -249 146 -235 l 71 -207 z "},"-":{"ha":590,"x_min":99,"x_max":490,"o":"m 99 435 l 490 435 l 490 347 l 99 347 l 99 435 z "},".":{"ha":388,"x_min":99,"x_max":289,"o":"m 99 79 q 125 146 99 121 q 193 171 151 171 q 263 146 236 171 q 289 79 289 121 q 263 14 289 39 q 193 -11 236 -11 q 125 14 151 -11 q 99 79 99 39 z "},"/":{"ha":478,"x_min":-51,"x_max":513,"o":"m 454 989 l 513 964 l 6 -181 l -51 -154 l 454 989 z "},":":{"ha":454,"x_min":165,"x_max":356,"o":"m 165 614 q 192 681 165 656 q 260 706 218 706 q 329 681 303 706 q 356 614 356 656 q 329 549 356 574 q 260 524 303 524 q 192 549 218 524 q 165 614 165 574 m 165 79 q 192 146 165 121 q 260 171 218 171 q 329 146 303 171 q 356 79 356 121 q 329 14 356 39 q 260 -11 303 -11 q 192 14 218 -11 q 165 79 165 39 z "},";":{"ha":461,"x_min":144,"x_max":375,"o":"m 172 614 q 199 681 172 656 q 267 706 225 706 q 336 681 310 706 q 363 614 363 656 q 336 549 363 574 q 267 524 310 524 q 199 549 225 524 q 172 614 172 574 m 144 -207 q 194 -177 171 -197 q 235 -132 218 -157 q 262 -77 253 -107 q 268 -18 271 -47 q 224 13 251 -3 q 175 35 196 28 q 174 86 168 61 q 193 131 181 111 q 222 162 206 150 q 253 175 238 174 q 338 132 301 168 q 375 24 375 96 q 361 -58 375 -15 q 321 -137 347 -100 q 257 -205 294 -175 q 172 -249 219 -235 l 144 -207 z "},"<":{"ha":740,"x_min":61,"x_max":650,"o":"m 61 450 l 61 493 l 596 819 l 631 758 l 283 549 l 164 493 l 282 450 l 650 233 l 594 143 l 61 450 z "},"=":{"ha":740,"x_min":58,"x_max":683,"o":"m 58 625 l 683 625 l 683 551 l 58 551 l 58 625 m 58 403 l 683 403 l 683 329 l 58 329 l 58 403 z "},">":{"ha":740,"x_min":93,"x_max":681,"o":"m 681 513 l 681 469 l 146 143 l 113 204 l 460 414 l 579 469 l 461 513 l 93 729 l 147 819 l 681 513 z "},"?":{"ha":657,"x_min":97,"x_max":608,"o":"m 176 721 l 142 721 q 117 817 131 758 q 97 931 103 876 q 210 976 150 963 q 358 989 271 989 q 467 972 421 989 q 545 924 514 954 q 592 853 576 894 q 608 763 608 811 q 585 653 608 700 q 528 569 563 607 q 454 499 494 532 q 379 431 414 467 q 322 351 344 394 q 299 250 299 308 l 271 250 q 261 329 261 290 q 277 417 261 379 q 317 488 293 456 q 368 548 340 519 q 419 606 396 576 q 459 670 443 636 q 475 749 475 704 q 466 809 475 779 q 438 863 457 839 q 390 902 419 888 q 319 917 361 917 q 247 910 275 917 q 208 892 219 903 l 176 721 m 199 79 q 225 146 199 121 q 293 171 251 171 q 363 146 336 171 q 389 79 389 121 q 363 14 389 39 q 293 -11 336 -11 q 225 14 251 -11 q 199 79 199 39 z "},"@":{"ha":1478,"x_min":131,"x_max":1358,"o":"m 929 658 q 1033 681 981 682 l 963 283 q 951 200 954 238 q 951 135 947 163 q 966 94 954 108 q 1001 79 978 79 q 1096 105 1047 79 q 1185 179 1144 131 q 1253 297 1226 228 q 1279 453 1279 367 q 1239 644 1279 558 q 1128 791 1199 731 q 965 884 1058 851 q 764 917 871 917 q 534 872 636 917 q 360 748 432 826 q 249 563 288 669 q 210 336 210 457 q 250 117 210 213 q 363 -44 290 22 q 537 -144 436 -110 q 758 -178 638 -178 q 850 -168 799 -178 q 943 -139 901 -158 l 965 -200 q 858 -239 917 -228 q 729 -250 800 -250 q 501 -214 610 -250 q 310 -106 393 -178 q 179 75 228 -33 q 131 328 131 183 q 181 601 131 479 q 317 810 231 724 q 521 942 404 896 q 771 989 638 989 q 1003 952 896 989 q 1190 847 1111 915 q 1314 678 1269 778 q 1358 453 1358 579 q 1327 282 1358 363 q 1242 140 1296 201 q 1119 43 1189 79 q 974 7 1050 7 q 903 20 932 7 q 858 63 874 33 q 842 140 843 93 q 857 254 842 188 l 851 254 q 809 166 836 210 q 747 87 782 122 q 673 29 713 51 q 593 7 633 7 q 465 65 510 7 q 419 218 419 122 q 449 392 419 307 q 530 543 479 476 q 647 650 581 610 q 788 690 714 690 q 867 682 838 690 q 929 658 896 674 m 906 592 q 860 613 883 606 q 801 619 838 619 q 701 583 749 619 q 619 489 654 546 q 565 365 585 432 q 544 235 544 297 q 565 131 544 168 q 644 93 586 93 q 701 119 671 93 q 762 186 732 144 q 820 280 792 228 q 871 385 849 332 l 906 592 z "},"A":{"ha":949,"x_min":0,"x_max":949,"o":"m 308 0 l 0 0 l 0 40 q 100 74 50 63 l 451 989 l 492 989 l 843 74 q 898 61 871 68 q 949 40 925 54 l 949 0 l 593 0 l 593 40 q 650 60 621 51 q 707 74 679 68 l 613 328 l 281 328 l 189 74 q 308 40 247 65 l 308 0 m 308 400 l 589 400 l 479 694 l 453 814 l 450 814 l 415 692 l 308 400 z "},"B":{"ha":854,"x_min":40,"x_max":781,"o":"m 40 0 l 40 40 q 154 74 96 67 l 154 897 q 97 912 126 903 q 40 932 68 921 l 40 972 l 188 972 q 238 974 214 972 q 289 976 263 975 q 346 979 315 978 q 415 981 376 981 q 528 972 471 981 q 633 938 586 963 q 708 867 679 913 q 738 750 738 822 q 726 678 738 714 q 692 610 715 642 q 635 556 669 579 q 553 521 600 532 l 553 515 q 635 492 594 508 q 708 447 676 475 q 760 376 740 418 q 781 276 781 335 q 747 147 781 201 q 660 58 714 93 q 539 8 607 24 q 401 -8 471 -8 q 292 -4 353 -8 q 174 0 231 0 l 40 0 m 411 64 q 505 79 461 64 q 580 122 549 94 q 629 187 611 149 q 647 269 647 225 q 626 362 647 325 q 567 420 604 399 q 483 450 531 442 q 383 458 435 458 l 279 458 l 279 75 q 326 67 299 69 q 411 64 353 64 m 349 531 q 405 533 372 531 q 458 538 438 535 q 563 609 522 560 q 604 725 604 658 q 549 863 604 817 q 403 908 494 908 q 329 907 360 908 q 279 903 299 906 l 279 531 l 349 531 z "},"C":{"ha":894,"x_min":74,"x_max":814,"o":"m 760 253 l 796 253 q 808 155 803 214 q 811 40 814 96 q 761 13 790 24 q 699 -4 732 3 q 633 -14 667 -11 q 568 -17 599 -17 q 360 13 451 -17 q 205 104 268 43 q 108 260 142 165 q 74 486 74 356 q 111 717 74 622 q 213 873 149 813 q 361 961 276 933 q 539 989 446 989 q 693 977 631 989 q 803 942 756 965 q 801 890 803 919 q 797 826 800 860 q 790 761 794 793 q 782 703 786 729 l 746 703 l 674 903 q 623 914 658 911 q 553 917 588 917 q 422 891 483 917 q 313 812 360 865 q 239 677 267 758 q 211 486 211 596 q 236 308 211 388 q 308 172 261 228 q 424 85 356 115 q 578 56 492 56 q 654 63 624 56 q 694 81 685 69 l 760 253 z "},"D":{"ha":983,"x_min":40,"x_max":911,"o":"m 40 0 l 40 40 q 154 74 89 63 l 154 897 q 93 913 122 904 q 40 932 64 922 l 40 972 l 182 972 q 238 974 206 972 q 303 977 269 975 q 369 981 338 979 q 421 983 400 983 q 784 857 657 983 q 911 499 911 731 q 880 295 911 389 q 785 133 849 201 q 623 26 721 65 q 392 -12 525 -12 q 344 -10 371 -12 q 289 -6 318 -8 q 230 -2 260 -4 q 174 0 200 0 l 40 0 m 401 911 q 332 910 365 911 q 279 906 299 910 l 279 64 q 304 62 286 63 q 343 60 322 61 q 383 60 364 60 q 410 60 401 60 q 572 96 506 60 q 681 192 639 132 q 743 332 724 253 q 763 499 763 411 q 744 640 763 567 q 683 773 725 713 q 571 872 640 833 q 401 911 501 911 z "},"E":{"ha":808,"x_min":40,"x_max":728,"o":"m 699 972 q 694 860 697 917 q 683 747 690 804 l 647 747 l 590 900 l 288 900 l 288 532 l 514 532 l 568 635 l 603 635 q 603 354 611 497 l 568 354 l 514 460 l 288 460 l 288 72 l 607 72 l 675 239 l 710 239 q 724 121 719 181 q 725 0 728 61 l 40 0 l 40 40 q 154 74 89 63 l 154 897 q 97 912 126 903 q 40 932 68 921 l 40 972 l 699 972 z "},"F":{"ha":756,"x_min":40,"x_max":692,"o":"m 274 74 q 393 40 335 65 l 393 0 l 40 0 l 40 40 q 89 60 64 51 q 140 74 114 68 l 140 897 q 85 913 110 904 q 40 932 60 922 l 40 972 l 692 972 q 687 861 690 918 q 676 747 683 804 l 640 747 l 583 900 l 274 900 l 274 504 l 514 504 l 571 607 l 603 607 q 607 540 606 575 q 608 468 608 504 q 607 394 608 431 q 603 326 606 358 l 571 326 l 514 433 l 274 433 l 274 74 z "},"G":{"ha":956,"x_min":74,"x_max":932,"o":"m 846 67 q 784 37 819 51 q 709 10 749 22 q 630 -9 669 -1 q 556 -17 590 -17 q 356 13 444 -17 q 204 105 267 43 q 108 261 142 167 q 74 486 74 356 q 113 718 74 622 q 219 874 153 814 q 369 962 285 935 q 540 989 453 989 q 695 977 632 989 q 806 942 758 965 q 804 890 806 921 q 800 826 803 860 q 793 760 797 793 q 785 703 789 728 l 749 703 l 676 903 q 625 914 661 911 q 554 917 589 917 q 422 891 485 917 q 313 812 360 865 q 239 677 267 758 q 211 486 211 596 q 238 308 211 388 q 313 173 265 229 q 426 86 361 117 q 565 56 490 56 q 619 61 593 56 q 668 74 646 67 q 705 90 690 82 q 725 104 719 99 l 725 385 q 656 397 689 388 q 592 418 624 407 l 592 458 l 932 458 l 932 418 q 899 400 918 408 q 846 385 879 392 l 846 67 z "},"H":{"ha":1011,"x_min":40,"x_max":971,"o":"m 392 0 l 40 0 l 40 40 q 154 74 96 63 l 154 897 q 40 932 89 907 l 40 972 l 392 972 l 392 932 q 342 911 368 919 q 288 897 315 903 l 288 535 l 724 535 l 724 897 q 669 913 694 904 q 619 932 643 921 l 619 972 l 971 972 l 971 932 q 916 910 946 918 q 857 897 886 903 l 857 74 q 918 60 889 68 q 971 40 947 51 l 971 0 l 619 0 l 619 40 q 724 74 669 63 l 724 463 l 288 463 l 288 74 q 342 60 315 68 q 392 40 368 51 l 392 0 z "},"I":{"ha":489,"x_min":67,"x_max":422,"o":"m 422 0 l 67 0 l 67 40 q 178 74 121 65 l 178 897 q 122 912 150 903 q 67 932 94 921 l 67 972 l 422 972 l 422 932 q 368 912 397 921 q 311 897 339 903 l 311 74 q 369 60 340 68 q 422 40 399 51 l 422 0 z "},"J":{"ha":474,"x_min":54,"x_max":407,"o":"m 54 972 l 407 972 l 407 932 q 356 912 382 921 q 301 897 329 903 l 301 119 q 279 -40 301 22 q 224 -141 257 -103 q 155 -197 192 -179 q 88 -222 118 -215 l 72 -201 q 110 -160 93 -183 q 141 -103 128 -137 q 161 -18 154 -68 q 168 104 168 32 l 168 897 q 108 913 138 904 q 54 932 79 921 l 54 972 z "},"K":{"ha":897,"x_min":40,"x_max":897,"o":"m 531 972 l 838 972 l 838 932 q 783 911 810 919 q 732 897 757 903 l 453 528 q 533 425 488 482 q 627 308 578 368 q 728 185 676 247 q 831 68 781 124 l 897 35 l 897 0 l 724 0 l 676 33 q 513 240 594 129 q 356 465 432 351 l 288 465 l 288 74 q 392 40 351 63 l 392 0 l 40 0 l 40 40 q 154 74 96 63 l 154 897 q 40 932 92 906 l 40 972 l 392 972 l 392 932 q 343 913 369 922 q 288 897 317 904 l 288 513 l 371 532 l 631 897 q 578 913 603 904 q 531 932 553 921 l 531 972 z "},"L":{"ha":763,"x_min":40,"x_max":740,"o":"m 40 972 l 421 972 l 421 932 q 354 910 388 919 q 288 897 321 901 l 288 72 l 607 72 l 689 296 l 725 296 q 733 228 729 267 q 738 149 736 190 q 740 69 740 108 q 739 0 740 31 l 40 0 l 40 40 q 101 63 74 56 q 154 74 129 69 l 154 897 q 93 912 122 903 q 40 932 64 921 l 40 972 z "},"M":{"ha":1204,"x_min":40,"x_max":1164,"o":"m 1163 0 l 818 0 l 818 40 q 874 59 846 51 q 931 74 901 67 l 931 699 l 936 861 l 925 861 l 879 713 l 594 0 l 558 0 l 288 713 l 238 875 l 225 875 l 226 699 l 226 74 q 279 60 253 68 q 332 40 306 51 l 332 0 l 42 0 l 42 40 q 97 60 68 51 q 154 75 125 69 l 154 897 q 97 912 125 903 q 40 932 68 921 l 40 972 l 325 972 l 567 338 l 614 194 l 615 194 l 663 340 l 913 972 l 1164 972 l 1164 932 q 1113 912 1139 921 q 1058 897 1086 903 l 1058 72 q 1113 59 1088 67 q 1163 40 1139 51 l 1163 0 z "},"N":{"ha":1017,"x_min":40,"x_max":976,"o":"m 676 972 l 976 972 l 976 932 q 863 876 918 893 l 863 -17 l 783 -17 l 279 749 l 225 857 l 221 857 l 233 749 l 233 89 q 340 40 290 74 l 340 0 l 40 0 l 40 40 q 94 67 65 56 q 154 89 122 79 l 154 885 q 99 908 126 896 q 49 933 72 921 l 49 972 l 283 972 l 721 313 l 785 193 l 790 193 l 783 313 l 783 876 q 727 903 754 889 q 676 932 700 917 l 676 972 z "},"O":{"ha":1028,"x_min":74,"x_max":954,"o":"m 74 486 q 103 687 74 594 q 190 847 133 779 q 328 951 246 914 q 514 989 410 989 q 700 951 618 989 q 838 847 782 914 q 924 687 894 779 q 954 486 954 594 q 924 285 954 378 q 838 126 894 193 q 700 21 782 58 q 514 -17 618 -17 q 328 21 410 -17 q 190 126 246 58 q 103 285 133 193 q 74 486 74 378 m 222 486 q 241 319 222 397 q 297 182 260 240 q 392 90 335 124 q 526 56 449 56 q 650 90 597 56 q 737 182 703 124 q 788 319 771 240 q 806 486 806 397 q 788 653 806 575 q 732 790 769 732 q 638 883 694 849 q 503 917 581 917 q 373 883 426 917 q 286 790 319 849 q 238 653 253 732 q 222 486 222 575 z "},"P":{"ha":828,"x_min":40,"x_max":774,"o":"m 288 74 q 358 60 325 69 q 421 40 392 51 l 421 0 l 40 0 l 40 40 q 97 61 68 54 q 154 74 126 68 l 154 897 q 94 912 122 903 q 40 932 67 921 l 40 972 l 165 972 q 286 978 221 972 q 411 983 351 983 q 544 969 479 983 q 660 919 610 954 q 742 827 711 885 q 774 683 774 769 q 742 543 774 601 q 656 447 710 485 q 535 392 603 410 q 394 375 467 375 q 373 375 388 375 q 342 376 358 375 q 310 378 325 376 q 288 381 294 379 l 288 74 m 382 911 q 328 910 349 911 q 288 904 307 908 l 288 454 q 308 451 294 451 q 335 449 321 450 q 364 447 350 447 q 386 447 378 447 q 478 460 435 447 q 553 503 521 474 q 606 576 586 532 q 625 683 625 621 q 560 854 625 797 q 382 911 496 911 z "},"Q":{"ha":1028,"x_min":74,"x_max":1056,"o":"m 1056 -160 q 942 -245 1000 -210 q 817 -279 883 -281 q 697 -258 760 -279 q 564 -208 635 -237 q 413 -147 493 -179 q 240 -92 333 -115 l 282 -64 q 342 -60 313 -60 q 478 -76 411 -60 q 614 -112 546 -93 q 751 -149 682 -132 q 893 -165 821 -165 q 969 -160 931 -165 q 1049 -140 1008 -154 l 1056 -160 m 74 486 q 103 687 74 594 q 190 847 133 779 q 328 951 246 914 q 514 989 410 989 q 700 951 618 989 q 838 847 782 914 q 924 687 894 779 q 954 486 954 594 q 924 285 954 378 q 838 126 894 193 q 700 21 782 58 q 514 -17 618 -17 q 328 21 410 -17 q 190 126 246 58 q 103 285 133 193 q 74 486 74 378 m 222 486 q 241 319 222 397 q 297 182 260 240 q 392 90 335 124 q 526 56 449 56 q 650 90 597 56 q 737 182 703 124 q 788 319 771 240 q 806 486 806 397 q 788 653 806 575 q 732 790 769 732 q 638 883 694 849 q 503 917 581 917 q 373 883 426 917 q 286 790 319 849 q 238 653 253 732 q 222 486 222 575 z "},"R":{"ha":885,"x_min":40,"x_max":871,"o":"m 288 74 q 349 59 319 67 q 406 40 378 51 l 406 0 l 40 0 l 40 40 q 99 61 71 54 q 154 74 126 68 l 154 897 q 90 913 118 904 q 40 932 63 922 l 40 972 l 163 972 q 284 978 218 972 q 413 983 350 983 q 540 968 481 983 q 642 919 599 953 q 709 835 685 886 q 733 711 733 783 q 680 543 733 610 q 535 447 626 476 q 660 260 594 353 q 796 75 725 167 l 871 35 l 871 0 l 703 0 l 650 39 q 579 134 611 88 q 519 228 547 181 q 467 326 492 276 q 418 431 443 375 l 288 431 l 288 74 m 382 911 q 327 910 349 911 q 288 904 306 908 l 288 489 l 388 489 q 540 550 483 489 q 596 711 596 611 q 536 863 596 814 q 382 911 476 911 z "},"S":{"ha":744,"x_min":81,"x_max":672,"o":"m 208 96 q 251 67 225 79 q 331 56 278 56 q 414 67 375 56 q 481 102 453 79 q 526 158 510 125 q 543 232 543 190 q 509 325 543 288 q 424 392 475 363 q 314 449 374 421 q 203 515 254 476 q 119 606 153 553 q 85 740 85 660 q 106 844 85 799 q 165 922 126 890 q 256 972 203 954 q 374 989 308 989 q 528 976 458 989 q 639 943 599 963 q 635 888 639 919 q 627 824 632 857 q 617 759 622 790 q 606 704 611 728 l 569 704 l 514 894 q 451 911 489 906 q 369 917 413 917 q 256 877 299 917 q 213 767 213 838 q 247 671 213 710 q 332 601 281 632 q 442 542 383 571 q 553 476 501 514 q 638 388 604 439 q 672 260 672 336 q 649 146 672 197 q 583 58 626 94 q 478 3 540 22 q 336 -17 415 -17 q 179 4 249 -17 q 81 49 110 25 q 85 106 82 72 q 94 174 89 139 q 104 243 99 210 q 115 300 110 276 l 151 300 l 208 96 z "},"T":{"ha":860,"x_min":26,"x_max":833,"o":"m 625 0 l 235 0 l 235 40 q 297 60 265 51 q 364 74 328 68 l 364 900 l 151 900 l 78 701 l 43 701 q 36 765 39 729 q 31 837 33 800 q 28 909 29 874 q 26 972 26 944 l 833 972 q 832 910 833 944 q 828 838 831 875 q 824 766 826 801 q 818 701 822 731 l 782 701 l 710 900 l 497 900 l 497 74 q 565 60 533 67 q 625 40 596 53 l 625 0 z "},"U":{"ha":933,"x_min":14,"x_max":919,"o":"m 14 972 l 367 972 l 367 932 q 314 913 340 921 q 261 897 288 904 l 261 329 q 277 206 261 256 q 324 127 293 157 q 399 84 354 97 q 501 71 444 71 q 672 131 611 71 q 733 331 733 192 l 733 885 q 674 908 701 896 q 624 932 646 919 l 624 972 l 919 972 l 919 932 q 866 904 893 917 q 811 885 839 892 l 811 328 q 788 175 811 239 q 722 69 764 111 q 619 8 679 28 q 485 -12 558 -12 q 219 66 311 -12 q 128 307 128 144 l 128 897 q 14 932 71 906 l 14 972 z "},"V":{"ha":950,"x_min":0,"x_max":950,"o":"m 757 897 q 694 913 724 904 q 638 932 665 922 l 638 972 l 950 972 l 950 932 q 850 897 910 910 l 536 0 l 460 -17 l 106 897 q 51 913 78 904 q 0 932 25 922 l 0 972 l 368 972 l 368 932 q 315 913 344 922 q 254 897 286 904 l 492 263 l 521 151 l 524 151 l 551 265 l 757 897 z "},"W":{"ha":1297,"x_min":0,"x_max":1297,"o":"m 1106 897 q 1047 910 1076 901 q 986 932 1018 919 l 986 972 l 1297 972 l 1297 932 q 1197 897 1250 911 l 965 0 l 879 -17 l 656 739 l 436 0 l 351 -17 l 106 897 q 51 913 78 904 q 0 932 25 921 l 0 972 l 361 972 l 361 932 q 307 913 335 922 q 247 897 279 904 l 385 338 l 415 157 l 418 157 l 467 340 l 654 972 l 701 972 l 903 340 l 943 160 l 946 160 l 978 343 l 1106 897 z "},"X":{"ha":931,"x_min":14,"x_max":918,"o":"m 549 972 l 868 972 l 868 932 q 818 913 844 922 q 764 897 792 904 l 519 521 l 804 74 q 918 40 871 63 l 918 0 l 549 0 l 549 40 q 654 74 599 65 l 435 422 l 224 72 q 281 62 253 68 q 335 40 308 56 l 335 0 l 14 0 l 14 40 q 66 61 40 54 q 117 74 92 68 l 389 489 l 128 897 q 73 914 100 906 q 18 932 46 922 l 18 972 l 386 972 l 386 932 q 340 915 365 924 q 281 897 314 907 l 475 583 l 664 897 q 549 932 607 910 l 549 972 z "},"Y":{"ha":894,"x_min":0,"x_max":894,"o":"m 589 972 l 894 972 l 894 932 q 789 897 842 906 l 526 414 l 526 74 q 632 40 581 67 l 632 0 l 279 0 l 279 40 q 393 74 329 65 l 393 413 l 113 897 q 53 912 81 903 q 0 932 26 921 l 0 972 l 368 972 l 368 932 q 321 915 347 924 q 261 897 294 906 l 489 489 l 703 897 q 642 913 671 904 q 589 932 614 922 l 589 972 z "},"Z":{"ha":847,"x_min":54,"x_max":793,"o":"m 740 267 l 776 267 q 784 204 781 239 q 790 133 788 169 q 792 63 792 97 q 792 0 793 28 l 54 0 l 54 71 l 632 900 l 204 900 l 119 706 l 85 706 q 77 769 81 735 q 72 840 74 804 q 69 910 69 876 q 68 972 68 944 l 778 972 l 778 900 l 203 72 l 656 72 l 740 267 z "},"[":{"ha":426,"x_min":115,"x_max":378,"o":"m 115 972 l 378 972 l 378 914 l 233 914 l 233 -262 l 378 -262 l 378 -319 l 115 -319 l 115 972 z "},"\\":{"ha":531,"x_min":-65,"x_max":568,"o":"m 568 -149 l 511 -181 l -65 958 l -7 989 l 568 -149 z "},"]":{"ha":426,"x_min":49,"x_max":311,"o":"m 311 -319 l 49 -319 l 49 -262 l 193 -262 l 193 914 l 49 914 l 49 972 l 311 972 l 311 -319 z "},"^":{"ha":694,"x_min":65,"x_max":604,"o":"m 324 988 l 368 988 l 604 603 l 482 603 l 360 813 l 326 906 l 282 811 l 143 603 l 65 603 l 324 988 z "},"_":{"ha":569,"x_min":0,"x_max":569,"o":"m 0 -199 l 569 -199 l 569 -272 l 0 -272 l 0 -199 z "},"`":{"ha":456,"x_min":83,"x_max":372,"o":"m 372 824 l 342 800 l 83 1007 l 83 1035 q 110 1048 92 1042 q 151 1058 129 1054 q 194 1065 174 1063 q 225 1065 214 1067 l 372 824 z "},"a":{"ha":701,"x_min":54,"x_max":669,"o":"m 569 182 q 571 129 569 151 q 574 82 572 107 l 669 68 l 669 39 q 592 7 635 21 q 511 -14 550 -7 l 476 -14 q 460 56 463 18 q 456 140 457 94 l 449 140 q 427 84 443 113 q 385 33 411 56 q 325 -3 360 11 q 246 -17 290 -17 q 108 35 161 -17 q 54 169 54 86 q 80 274 54 233 q 156 339 106 315 q 279 373 206 363 q 450 389 353 383 q 453 497 456 449 q 438 578 451 544 q 399 631 425 613 q 332 650 374 650 q 288 648 313 650 q 240 636 264 646 l 175 469 l 139 469 q 115 556 125 511 q 101 643 104 600 q 219 693 154 675 q 363 711 283 711 q 476 691 433 711 q 540 639 518 671 q 569 568 563 607 q 576 490 576 529 q 573 330 576 407 q 569 182 569 253 m 301 69 q 363 83 336 69 q 407 117 389 97 q 436 156 425 136 q 451 190 447 176 l 451 336 q 319 328 371 336 q 239 301 268 319 q 199 256 210 283 q 188 194 188 229 q 218 102 188 135 q 301 69 249 69 z "},"b":{"ha":757,"x_min":1,"x_max":700,"o":"m 107 947 l 1 958 l 1 994 q 98 1024 44 1013 q 197 1044 151 1035 l 232 1044 l 232 557 l 235 557 q 315 669 258 628 q 439 711 371 711 q 633 625 565 711 q 700 360 700 539 q 608 82 700 176 q 342 -12 515 -12 q 272 -8 307 -12 q 206 4 238 -3 q 148 21 174 11 q 107 40 122 31 l 107 947 m 401 625 q 293 580 335 625 q 232 465 251 535 l 232 78 q 293 56 257 64 q 369 49 329 49 q 514 128 461 49 q 567 360 567 208 q 558 463 567 414 q 528 547 549 511 q 477 604 508 583 q 401 625 446 625 z "},"c":{"ha":647,"x_min":57,"x_max":593,"o":"m 593 97 q 512 16 568 49 q 381 -17 456 -17 q 238 9 299 -17 q 138 83 178 35 q 77 198 97 131 q 57 347 57 265 q 143 617 57 524 q 378 711 229 711 q 499 699 446 711 q 590 668 553 688 q 575 565 586 622 q 547 471 564 508 l 510 471 l 451 636 q 429 647 442 643 q 388 650 417 650 q 242 581 293 650 q 190 349 190 513 q 205 246 190 296 q 249 156 219 196 q 324 93 279 117 q 429 69 369 69 q 514 83 478 69 q 575 117 550 97 l 593 97 z "},"d":{"ha":771,"x_min":57,"x_max":739,"o":"m 518 138 q 494 79 511 107 q 453 30 478 51 q 398 -4 429 8 q 331 -17 367 -17 q 125 71 193 -17 q 57 343 57 158 q 144 614 57 521 q 378 707 231 707 q 458 702 429 707 q 522 685 488 697 l 522 947 l 417 958 l 417 994 q 510 1024 457 1011 q 613 1044 564 1036 l 647 1044 l 647 79 l 739 68 l 739 39 q 656 6 699 19 q 571 -14 613 -8 l 536 -14 l 524 138 l 518 138 m 358 69 q 467 113 426 69 q 522 229 507 156 l 522 621 q 467 640 499 635 q 385 646 435 646 q 240 563 290 646 q 190 343 190 481 q 200 237 190 286 q 231 150 210 188 q 283 91 251 113 q 358 69 314 69 z "},"e":{"ha":699,"x_min":57,"x_max":633,"o":"m 619 97 q 585 53 608 74 q 531 17 561 32 q 464 -8 500 1 q 390 -17 428 -17 q 246 9 308 -17 q 142 83 183 35 q 78 197 100 131 q 57 347 57 264 q 139 618 57 525 q 371 711 221 711 q 467 698 419 711 q 551 654 514 685 q 610 573 588 624 q 633 447 633 522 q 631 399 633 424 q 624 347 629 375 l 190 347 q 205 238 190 289 q 249 150 219 188 q 322 91 278 113 q 426 69 367 69 q 525 83 475 69 q 600 119 575 97 l 619 97 m 365 650 q 244 597 286 650 q 194 408 203 543 l 500 408 q 502 433 501 421 q 503 456 503 444 q 469 597 503 544 q 365 650 436 650 z "},"f":{"ha":475,"x_min":43,"x_max":553,"o":"m 425 1044 q 454 1043 438 1044 q 489 1040 471 1042 q 524 1034 507 1038 q 553 1026 540 1031 q 541 941 549 981 q 522 869 533 901 l 488 869 l 426 989 q 358 981 386 989 q 310 949 329 972 q 283 881 292 925 q 274 764 274 836 l 274 694 l 433 694 l 433 625 l 274 625 l 274 68 q 407 35 346 60 l 407 0 l 57 0 l 57 35 q 149 68 100 60 l 149 625 l 43 625 l 43 661 q 149 707 92 692 l 149 756 q 169 898 149 842 q 228 987 190 954 q 316 1032 265 1019 q 425 1044 367 1044 z "},"g":{"ha":731,"x_min":42,"x_max":747,"o":"m 343 711 q 469 697 418 711 q 556 651 521 682 q 726 732 638 707 q 742 694 738 717 q 747 653 747 672 l 729 619 l 583 619 q 618 488 618 569 q 548 325 618 388 q 343 263 478 263 q 300 264 317 263 q 263 268 283 265 q 247 240 256 256 q 238 208 238 225 q 269 165 238 181 q 349 136 301 149 q 453 110 397 124 q 558 74 510 97 q 640 15 607 51 q 674 -81 672 -22 q 651 -171 675 -131 q 583 -238 626 -211 q 480 -280 540 -265 q 347 -294 419 -294 q 119 -243 196 -294 q 42 -114 42 -192 q 53 -49 42 -76 q 88 0 65 -21 q 143 37 110 21 q 219 67 176 53 q 169 105 189 81 q 149 164 149 129 q 176 227 149 196 q 231 276 203 258 q 109 356 151 297 q 67 488 67 414 q 85 576 67 535 q 138 647 103 617 q 224 694 172 678 q 343 711 275 711 m 549 -112 q 519 -42 549 -68 q 444 1 489 -15 q 349 29 400 18 q 253 54 297 40 q 183 -13 200 22 q 167 -86 167 -49 q 219 -197 167 -160 q 372 -233 272 -233 q 458 -224 424 -233 q 512 -198 492 -214 q 540 -160 532 -182 q 549 -112 549 -137 m 192 488 q 199 424 192 454 q 224 372 207 394 q 271 337 242 350 q 343 324 300 324 q 458 371 424 324 q 493 488 493 418 q 459 606 493 563 q 343 650 425 650 q 225 608 258 650 q 192 488 192 565 z "},"h":{"ha":815,"x_min":19,"x_max":792,"o":"m 792 0 l 492 0 l 492 35 q 575 68 525 53 l 575 393 q 544 563 575 501 q 433 625 514 625 q 368 612 397 625 q 315 578 339 599 q 275 530 292 557 q 250 474 258 503 l 250 68 q 292 56 272 63 q 332 35 313 49 l 332 0 l 33 0 l 33 35 q 125 68 76 57 l 125 947 l 19 958 l 19 994 q 113 1024 60 1011 q 215 1044 167 1036 l 250 1044 l 250 554 l 251 554 q 335 665 281 619 q 468 711 390 711 q 567 698 524 711 q 640 651 611 685 q 685 562 669 618 q 700 419 700 506 l 700 68 q 747 56 724 63 q 792 35 771 49 l 792 0 z "},"i":{"ha":418,"x_min":57,"x_max":365,"o":"m 365 0 l 57 0 l 57 35 q 100 53 78 46 q 149 68 122 61 l 149 614 l 57 625 l 57 661 q 144 690 97 678 q 239 711 192 703 l 274 711 l 274 68 q 324 53 301 61 q 365 35 346 46 l 365 0 m 122 931 q 147 990 122 968 q 211 1013 171 1013 q 275 990 251 1013 q 299 931 299 968 q 275 872 299 893 q 211 850 251 850 q 147 872 171 850 q 122 931 122 893 z "},"j":{"ha":400,"x_min":49,"x_max":297,"o":"m 147 614 l 56 625 l 56 661 q 144 692 96 681 q 238 711 192 704 l 272 711 l 272 60 q 247 -104 272 -39 q 189 -210 222 -169 q 121 -269 156 -250 q 65 -294 86 -289 l 49 -268 q 83 -239 65 -260 q 115 -181 100 -218 q 138 -92 129 -144 q 147 33 147 -39 l 147 614 m 121 931 q 145 990 121 968 q 210 1013 169 1013 q 274 990 250 1013 q 297 931 297 968 q 274 872 297 893 q 210 850 250 850 q 145 872 169 850 q 121 931 121 893 z "},"k":{"ha":717,"x_min":19,"x_max":717,"o":"m 417 694 l 685 694 l 685 658 q 633 639 658 647 q 579 625 607 631 q 531 565 558 597 q 476 501 504 533 q 423 442 449 469 q 379 396 397 414 q 430 328 400 368 q 494 244 460 289 q 566 154 529 200 q 639 68 603 108 l 717 35 l 717 0 l 544 0 l 507 33 q 385 197 433 125 q 296 331 336 268 l 250 344 l 250 68 q 340 35 296 60 l 340 0 l 33 0 l 33 35 q 125 68 79 57 l 125 947 l 19 958 l 19 994 q 113 1024 58 1013 q 215 1044 167 1035 l 250 1044 l 250 381 l 286 381 q 335 436 308 406 q 388 499 361 467 q 439 564 414 532 q 485 625 464 596 q 417 658 450 635 l 417 694 z "},"l":{"ha":418,"x_min":43,"x_max":365,"o":"m 365 0 l 57 0 l 57 35 q 149 68 103 57 l 149 947 l 43 958 l 43 994 q 133 1024 79 1011 q 239 1044 188 1036 l 274 1044 l 274 68 q 365 35 319 57 l 365 0 z "},"m":{"ha":1199,"x_min":43,"x_max":1174,"o":"m 761 0 l 464 0 l 464 35 q 498 52 478 43 q 546 68 518 61 l 546 389 q 541 489 546 444 q 523 563 536 533 q 485 609 510 593 q 419 625 460 625 q 363 613 389 625 q 317 579 338 600 q 283 532 297 558 q 260 476 268 506 l 260 68 q 302 53 282 61 q 342 35 322 46 l 342 0 l 43 0 l 43 35 q 86 53 63 44 q 135 68 110 61 l 135 614 l 43 625 l 43 661 q 134 692 88 681 q 225 711 181 704 l 260 711 l 260 554 l 261 554 q 337 665 283 619 q 469 711 390 711 q 533 704 503 711 q 590 678 564 697 q 635 626 617 660 q 661 540 653 593 q 742 664 686 617 q 881 711 797 711 q 970 698 932 711 q 1033 651 1008 685 q 1070 561 1058 618 q 1082 417 1082 504 l 1082 68 q 1174 35 1129 60 l 1174 0 l 875 0 l 875 35 q 957 68 917 57 l 957 414 q 952 503 957 464 q 933 569 947 542 q 894 610 919 596 q 828 625 869 625 q 724 579 761 625 q 671 463 688 533 l 671 68 q 761 35 719 54 l 761 0 z "},"n":{"ha":825,"x_min":43,"x_max":801,"o":"m 801 0 l 503 0 l 503 35 q 585 68 540 54 l 585 397 q 554 564 585 503 q 443 625 524 625 q 378 613 408 625 q 326 578 349 600 q 286 530 303 557 q 260 474 269 503 l 260 68 q 343 35 303 60 l 343 0 l 43 0 l 43 35 q 135 68 78 53 l 135 614 l 43 625 l 43 661 q 126 689 79 676 q 225 711 174 701 l 260 711 l 260 556 l 261 556 q 345 665 290 619 q 478 711 400 711 q 577 698 533 711 q 650 651 621 685 q 694 562 679 618 q 710 419 710 506 l 710 68 q 801 35 765 58 l 801 0 z "},"o":{"ha":768,"x_min":57,"x_max":711,"o":"m 57 347 q 80 502 57 435 q 146 616 103 569 q 249 687 189 663 q 383 711 310 711 q 532 685 469 711 q 634 610 594 658 q 692 496 674 563 q 711 347 711 429 q 622 78 711 172 q 383 -17 533 -17 q 239 9 300 -17 q 138 83 178 35 q 77 198 97 131 q 57 347 57 265 m 190 347 q 202 229 190 285 q 240 133 214 174 q 307 68 265 92 q 407 44 349 44 q 530 118 482 44 q 578 347 578 192 q 566 466 578 411 q 529 562 554 521 q 465 626 504 603 q 372 650 426 650 q 240 576 290 650 q 190 347 190 503 z "},"p":{"ha":786,"x_min":43,"x_max":729,"o":"m 351 -278 l 43 -278 l 43 -243 q 135 -210 90 -221 l 135 614 l 43 625 l 43 661 q 134 692 88 681 q 225 711 181 704 l 260 711 l 260 556 l 261 556 q 339 669 289 626 q 469 711 389 711 q 661 629 593 711 q 729 363 729 547 q 706 204 729 275 q 641 85 683 133 q 538 10 599 36 q 404 -17 478 -17 q 324 -10 353 -17 q 260 11 294 -4 l 260 -210 q 304 -220 282 -212 q 351 -243 326 -228 l 351 -278 m 425 625 q 317 582 357 625 q 260 464 276 539 l 260 75 q 316 52 285 60 q 397 44 347 44 q 480 68 443 44 q 542 135 517 92 q 582 235 568 178 q 596 363 596 293 q 587 467 596 419 q 558 551 578 515 q 505 606 538 586 q 425 625 472 625 z "},"q":{"ha":761,"x_min":57,"x_max":739,"o":"m 517 124 q 449 26 497 68 q 325 -17 400 -17 q 124 72 192 -17 q 57 343 57 160 q 147 615 57 524 q 404 707 236 707 q 547 693 479 707 q 647 664 615 679 l 647 -210 q 693 -222 671 -214 q 739 -243 715 -229 l 739 -278 l 431 -278 l 431 -243 q 522 -210 474 -221 l 522 124 l 517 124 m 358 69 q 466 113 426 69 q 522 228 506 156 l 522 626 q 463 640 497 635 q 385 646 429 646 q 241 574 292 646 q 190 346 190 501 q 199 238 190 288 q 227 150 207 188 q 279 91 247 113 q 358 69 311 69 z "},"r":{"ha":533,"x_min":43,"x_max":524,"o":"m 339 590 q 301 556 324 582 q 260 481 278 531 l 260 68 q 315 58 288 65 q 371 35 343 50 l 371 0 l 43 0 l 43 35 q 90 56 68 49 q 135 68 113 63 l 135 614 l 43 625 l 43 661 q 135 692 88 681 q 225 711 182 704 l 260 711 l 260 564 l 265 564 q 301 619 278 592 q 353 669 324 647 q 419 703 383 692 q 492 711 454 715 q 509 672 501 693 q 524 626 517 650 l 524 590 l 339 590 z "},"s":{"ha":601,"x_min":64,"x_max":535,"o":"m 410 158 q 385 224 410 197 q 324 275 361 251 q 244 321 286 299 q 164 373 201 343 q 102 442 126 403 q 78 538 78 481 q 95 607 78 575 q 142 662 113 639 q 210 698 171 685 q 293 711 249 711 q 416 703 368 711 q 508 679 464 694 q 495 590 503 635 q 474 497 488 544 l 439 497 l 386 639 q 349 648 369 646 q 306 650 328 650 q 262 641 281 650 q 230 618 243 632 q 210 586 217 604 q 203 550 203 568 q 227 485 203 513 q 289 435 251 458 q 369 390 326 413 q 449 340 411 368 q 510 276 486 313 q 535 188 535 239 q 515 103 535 140 q 459 39 494 65 q 377 -2 424 13 q 278 -17 331 -17 q 168 -6 218 -17 q 64 24 118 4 q 76 120 67 74 q 101 210 86 167 l 136 210 l 197 58 q 234 46 213 47 q 274 44 256 44 q 372 78 335 44 q 410 158 410 111 z "},"t":{"ha":515,"x_min":21,"x_max":499,"o":"m 21 661 q 132 708 74 694 l 132 826 q 174 853 150 842 q 222 876 199 865 l 257 876 l 257 694 l 465 694 l 465 625 l 257 625 l 257 222 q 283 104 257 139 q 363 69 310 69 q 425 73 388 69 q 489 86 463 76 l 499 65 q 467 39 488 53 q 422 13 447 25 q 365 -8 396 0 q 303 -17 335 -17 q 176 31 219 -17 q 132 183 132 78 l 132 625 l 21 625 l 21 661 z "},"u":{"ha":797,"x_min":24,"x_max":763,"o":"m 107 275 q 111 447 107 363 q 115 614 115 531 l 24 625 l 24 661 q 115 690 68 678 q 206 711 161 703 l 240 711 q 236 504 240 607 q 232 300 232 401 q 238 203 232 246 q 260 131 244 160 q 304 85 276 101 q 375 69 332 69 q 480 115 438 69 q 546 232 522 160 l 546 614 l 456 625 l 456 661 q 545 690 499 678 q 636 711 592 703 l 671 711 l 671 79 l 763 68 l 763 39 q 681 7 722 21 q 596 -14 640 -7 l 561 -14 l 551 151 l 546 151 q 522 92 539 122 q 476 38 504 63 q 413 -1 449 14 q 336 -17 378 -17 q 238 -3 281 -17 q 167 43 196 10 q 122 133 138 76 q 107 275 107 189 z "},"v":{"ha":704,"x_min":-14,"x_max":718,"o":"m 331 -17 l 60 625 q -14 658 19 639 l -14 694 l 276 694 l 276 660 q 240 641 258 650 q 197 625 221 632 l 358 207 l 386 121 l 389 121 l 410 208 l 558 625 q 517 639 536 631 q 482 658 499 647 l 482 694 l 718 694 l 718 658 q 684 640 704 649 q 639 625 664 632 l 393 0 l 331 -17 z "},"w":{"ha":1011,"x_min":-14,"x_max":1025,"o":"m 278 -17 l 60 625 q 22 640 40 632 q -14 658 3 647 l -14 694 l 275 694 l 275 660 q 236 640 256 649 q 196 625 217 631 l 317 219 l 335 119 l 338 119 l 358 222 l 508 681 l 550 694 l 710 221 l 735 119 l 738 119 l 758 221 l 865 625 q 830 636 850 628 q 789 658 810 644 l 789 694 l 1025 694 l 1025 658 q 946 625 996 639 l 749 0 l 675 -17 l 538 376 l 511 492 l 507 492 l 475 376 l 350 0 l 278 -17 z "},"x":{"ha":721,"x_min":14,"x_max":707,"o":"m 414 372 l 633 68 q 672 53 653 61 q 707 35 690 46 l 707 0 l 422 0 l 422 33 q 458 53 442 44 q 492 68 475 63 l 338 296 l 182 68 q 218 53 201 61 q 251 35 235 44 l 251 0 l 14 0 l 14 35 q 92 68 53 58 l 299 344 l 90 625 q 55 640 71 632 q 22 658 39 647 l 22 694 l 301 694 l 301 660 q 269 640 285 649 q 233 625 253 631 l 378 417 l 519 625 q 450 658 472 640 l 450 694 l 682 694 l 682 658 q 604 625 656 640 l 414 372 z "},"y":{"ha":701,"x_min":-15,"x_max":717,"o":"m 58 625 q 20 639 38 631 q -15 658 3 647 l -15 694 l 275 694 l 275 660 q 196 625 246 640 l 374 214 l 400 128 l 403 128 l 424 215 l 556 625 q 479 658 514 633 l 479 694 l 717 694 l 717 658 q 638 625 688 639 l 421 0 q 358 -144 388 -89 q 298 -231 328 -199 q 237 -277 268 -262 q 169 -299 206 -292 q 142 -240 154 -272 q 122 -179 131 -208 l 140 -146 l 285 -146 q 299 -124 293 -135 q 313 -99 306 -114 q 328 -60 319 -83 q 347 0 336 -36 l 58 625 z "},"z":{"ha":678,"x_min":60,"x_max":607,"o":"m 588 238 q 602 120 597 179 q 604 0 607 61 l 60 0 l 60 35 l 456 633 l 193 633 l 132 469 l 97 469 q 84 587 86 529 q 82 694 82 644 l 604 694 l 604 658 l 207 61 l 478 61 l 553 238 l 588 238 z "},"{":{"ha":483,"x_min":76,"x_max":446,"o":"m 188 154 q 158 265 188 225 q 76 306 129 306 l 76 347 q 158 390 129 347 q 188 493 188 432 l 188 825 q 221 932 188 892 q 321 972 254 972 l 446 972 l 446 914 l 379 914 q 324 894 342 914 q 307 831 307 875 l 307 507 q 292 429 307 461 q 255 377 278 397 q 206 347 232 357 q 154 333 179 336 l 154 325 q 205 311 178 322 q 255 278 232 300 q 292 223 278 256 q 307 146 307 190 l 307 -179 q 324 -242 307 -222 q 381 -262 340 -262 l 446 -262 l 446 -319 l 321 -319 q 223 -283 258 -319 q 188 -174 188 -246 l 188 154 z "},"|":{"ha":329,"x_min":129,"x_max":201,"o":"m 129 972 l 201 972 l 201 -181 l 129 -181 l 129 972 z "},"}":{"ha":483,"x_min":72,"x_max":442,"o":"m 331 500 q 360 389 331 429 q 442 349 389 349 l 442 307 q 360 265 389 307 q 331 161 331 222 l 331 -172 q 297 -279 331 -239 q 197 -319 264 -319 l 72 -319 l 72 -262 l 140 -262 q 195 -243 178 -262 q 213 -179 213 -224 l 213 147 q 225 225 213 193 q 258 277 238 257 q 302 308 278 297 q 351 321 326 318 l 351 329 q 303 343 328 332 q 258 376 278 354 q 225 431 238 399 q 213 508 213 464 l 213 831 q 196 894 213 874 q 139 914 179 914 l 72 914 l 72 972 l 199 972 q 296 935 261 972 q 331 826 331 899 l 331 500 z "},"~":{"ha":736,"x_min":81,"x_max":654,"o":"m 81 447 q 176 551 131 522 q 264 579 222 579 q 332 565 299 579 q 397 532 365 550 q 462 499 429 514 q 529 485 494 485 q 581 495 554 485 q 636 532 608 506 l 654 503 q 574 420 614 444 q 497 396 535 396 q 427 410 461 396 q 360 443 393 425 q 293 476 326 461 q 226 490 260 490 q 165 474 196 490 q 101 414 133 457 l 81 447 z "}," ":{"ha":338,"x_min":0,"x_max":0,"o":""},"¡":{"ha":454,"x_min":99,"x_max":289,"o":"m 213 397 l 257 153 l 257 -258 q 194 -274 228 -274 q 132 -258 161 -274 l 132 153 l 176 397 l 213 397 m 289 619 q 263 554 289 579 q 194 529 236 529 q 125 554 151 529 q 99 619 99 579 q 125 686 99 661 q 194 711 151 711 q 263 686 236 711 q 289 619 289 661 z "},"¢":{"ha":740,"x_min":86,"x_max":667,"o":"m 667 97 q 583 16 639 47 q 453 -17 528 -15 l 453 -236 l 379 -236 l 379 -11 q 160 105 233 10 q 86 347 86 200 q 108 485 86 424 q 168 593 129 547 q 260 667 207 639 q 379 706 314 694 l 379 917 l 453 917 l 453 711 q 573 699 519 711 q 664 668 626 688 q 648 565 660 622 q 619 471 636 508 l 585 471 l 528 636 q 506 647 518 643 q 465 650 493 650 l 451 650 l 451 74 q 501 69 476 69 q 586 83 550 69 q 647 117 622 97 l 667 97 m 219 349 q 260 199 219 269 q 381 93 301 128 l 381 639 q 263 547 307 617 q 219 349 219 478 z "},"£":{"ha":740,"x_min":42,"x_max":685,"o":"m 42 529 l 160 529 q 124 622 139 574 q 108 742 108 671 q 129 844 108 799 q 188 922 150 890 q 278 972 225 954 q 396 989 331 989 q 551 975 481 989 q 663 942 622 961 q 658 888 661 919 q 649 824 654 857 q 639 760 644 792 q 628 704 633 728 l 593 704 l 538 894 q 474 911 511 906 q 393 917 436 917 q 301 893 339 917 q 247 826 263 869 q 236 763 236 796 q 254 636 238 692 q 290 529 271 581 l 507 529 l 507 458 l 315 458 q 331 390 325 424 q 333 315 336 356 q 315 225 332 268 q 258 150 297 182 l 213 111 l 213 106 l 290 114 l 567 114 l 635 269 l 669 269 q 675 203 672 239 q 680 130 678 167 q 683 59 682 93 q 685 0 685 25 l 46 0 l 46 43 q 178 136 135 82 q 224 275 222 190 q 223 303 224 290 q 221 331 222 317 q 192 458 213 406 l 42 458 l 42 529 z "},"¤":{"ha":740,"x_min":50,"x_max":690,"o":"m 50 236 l 165 350 l 214 365 q 186 418 194 389 q 178 481 178 447 q 186 542 178 513 q 214 596 194 572 l 165 611 l 51 726 l 126 801 l 240 686 l 257 639 q 309 667 281 657 q 371 676 338 676 q 433 666 404 675 q 485 639 463 657 l 503 686 l 617 800 l 690 725 l 575 611 l 531 596 q 563 481 563 549 q 531 364 564 415 l 575 350 l 689 235 l 615 160 l 501 274 l 485 321 q 433 297 463 306 q 371 288 404 288 q 309 297 338 288 q 254 321 281 306 l 240 275 l 125 161 l 50 236 m 371 367 q 455 399 421 367 q 489 481 489 431 q 455 563 489 531 q 371 596 421 596 q 287 564 321 597 q 253 481 253 531 q 287 399 253 431 q 371 367 321 367 z "},"¥":{"ha":740,"x_min":-62,"x_max":804,"o":"m 499 972 l 804 972 l 804 932 q 699 897 749 906 l 476 465 l 676 465 l 676 393 l 450 393 l 450 306 l 676 306 l 676 233 l 450 233 l 450 74 q 556 40 504 67 l 556 0 l 203 0 l 203 40 q 317 74 253 65 l 317 233 l 90 233 l 90 306 l 317 306 l 317 393 l 90 393 l 90 465 l 288 465 l 50 897 q -9 912 18 903 q -62 932 -36 921 l -62 972 l 306 972 l 306 932 q 258 915 285 924 q 199 897 232 906 l 413 488 l 613 897 q 552 913 581 904 q 499 932 524 922 l 499 972 z "},"¦":{"ha":329,"x_min":129,"x_max":201,"o":"m 129 264 l 201 264 l 201 -181 l 129 -181 l 129 264 m 201 528 l 129 528 l 129 972 l 201 972 l 201 528 z "},"§":{"ha":732,"x_min":82,"x_max":650,"o":"m 482 61 q 452 128 482 103 q 378 172 422 153 q 282 208 333 190 q 186 251 231 225 q 112 317 142 276 q 82 422 82 357 q 135 542 82 492 q 264 624 188 592 q 210 654 235 638 q 166 694 185 671 q 136 747 147 717 q 125 815 125 776 q 142 885 125 853 q 188 940 158 917 q 260 976 218 963 q 353 989 301 989 q 482 981 428 989 q 581 957 536 974 q 575 919 578 935 q 568 888 572 903 q 558 856 564 872 q 546 817 553 839 l 511 817 l 433 917 q 402 926 417 924 q 365 928 388 928 q 278 896 306 928 q 250 828 250 864 q 280 759 250 786 q 354 711 310 732 q 450 672 399 690 q 546 626 501 653 q 620 563 590 600 q 650 468 650 525 q 633 395 650 428 q 590 336 617 363 q 532 290 564 310 q 471 256 500 269 q 524 228 499 243 q 567 194 549 214 q 597 151 586 175 q 607 94 607 126 q 533 -58 607 -3 q 336 -114 460 -114 q 111 -74 221 -114 q 116 -31 113 -49 q 124 2 119 -14 q 133 34 128 18 q 146 72 139 50 l 181 72 l 269 -37 q 299 -51 285 -50 q 333 -53 314 -53 q 441 -19 400 -53 q 482 61 482 14 m 525 435 q 508 492 525 468 q 464 534 492 517 q 401 566 436 551 q 328 596 365 581 q 244 535 281 574 q 207 453 207 497 q 224 390 207 417 q 269 344 242 364 q 334 310 297 325 q 408 281 371 294 q 453 314 432 294 q 490 353 474 333 q 515 394 506 374 q 525 435 525 415 z "},"¨":{"ha":625,"x_min":83,"x_max":542,"o":"m 83 921 q 104 974 83 954 q 158 994 125 994 q 213 974 192 994 q 233 921 233 954 q 213 869 233 889 q 158 850 192 850 q 104 869 125 850 q 83 921 83 889 m 392 921 q 413 974 392 954 q 467 994 433 994 q 521 974 500 994 q 542 921 542 954 q 521 869 542 889 q 467 850 500 850 q 413 869 433 850 q 392 921 392 889 z "},"©":{"ha":1121,"x_min":71,"x_max":1050,"o":"m 71 403 q 112 609 71 518 q 221 763 153 700 q 377 858 289 825 q 561 892 465 892 q 745 858 657 892 q 901 763 833 825 q 1009 609 968 700 q 1050 403 1050 518 q 1009 197 1050 288 q 901 43 968 106 q 745 -53 833 -19 q 561 -86 657 -86 q 372 -53 461 -86 q 215 43 282 -19 q 110 197 149 106 q 71 403 71 288 m 143 403 q 176 228 143 307 q 265 95 208 150 q 399 10 322 40 q 561 -21 475 -21 q 724 10 647 -21 q 856 95 800 40 q 945 228 913 150 q 978 403 978 307 q 943 577 978 499 q 851 710 908 656 q 717 796 793 765 q 561 826 642 826 q 392 796 469 826 q 260 710 315 765 q 174 576 206 654 q 143 403 143 499 m 708 286 l 743 286 q 751 223 749 265 q 750 147 754 181 q 719 131 738 138 q 679 121 700 125 q 636 115 658 117 q 596 114 614 114 q 472 133 528 114 q 374 188 415 151 q 310 279 333 225 q 288 404 288 333 q 313 531 288 476 q 380 621 339 585 q 473 676 421 657 q 578 694 525 694 q 675 687 632 694 q 746 665 718 679 q 747 633 747 653 q 746 590 747 613 q 742 547 744 568 q 735 513 739 526 l 700 513 l 658 628 q 628 635 649 635 q 588 636 607 636 q 465 574 508 636 q 421 404 421 513 q 431 316 421 358 q 462 241 440 274 q 518 190 483 208 q 601 171 553 171 q 647 176 629 171 q 669 188 664 182 l 708 286 z "},"ª":{"ha":597,"x_min":68,"x_max":544,"o":"m 138 840 q 114 883 124 856 q 103 939 104 910 q 188 970 138 957 q 325 983 239 983 q 447 947 414 983 q 479 843 479 911 q 478 785 479 817 q 477 724 478 754 q 476 665 476 693 q 475 614 475 636 l 544 600 l 544 564 q 488 538 518 549 q 426 525 458 528 l 403 525 q 390 572 393 549 q 385 618 386 594 l 379 618 q 360 589 372 606 q 327 558 347 572 q 279 533 307 543 q 214 522 251 522 q 109 558 150 522 q 68 654 68 593 q 90 724 68 697 q 149 767 111 751 q 235 788 186 782 q 340 794 285 794 q 359 794 350 794 q 378 793 368 793 q 379 816 379 801 q 379 838 379 831 q 375 872 379 856 q 360 902 371 889 q 330 923 349 915 q 281 931 311 931 q 244 928 264 931 q 206 918 225 925 l 175 840 l 138 840 m 253 586 q 303 596 282 586 q 338 619 324 606 q 363 647 353 632 q 378 675 372 663 l 378 747 q 349 749 363 749 q 321 749 335 749 q 267 744 293 749 q 222 728 242 739 q 191 701 203 718 q 179 661 179 685 q 198 610 179 633 q 253 586 217 586 z "},"«":{"ha":654,"x_min":33,"x_max":581,"o":"m 303 360 l 538 644 l 572 618 l 425 369 l 581 107 l 547 79 l 303 360 m 33 360 l 329 647 l 365 619 l 171 368 l 374 106 l 338 76 l 33 360 z "},"¬":{"ha":708,"x_min":60,"x_max":650,"o":"m 60 538 l 650 538 l 650 275 l 564 275 l 564 450 l 60 450 l 60 538 z "},"­":{"ha":590,"x_min":99,"x_max":490,"o":"m 99 435 l 490 435 l 490 347 l 99 347 l 99 435 z "},"®":{"ha":972,"x_min":115,"x_max":857,"o":"m 115 626 q 145 784 115 715 q 226 900 175 853 q 344 972 276 947 q 486 996 411 996 q 631 972 564 996 q 749 900 699 947 q 828 784 799 853 q 857 626 857 715 q 827 467 857 536 q 747 351 797 399 q 628 280 696 304 q 486 256 561 256 q 341 280 408 256 q 224 351 274 304 q 144 467 174 399 q 115 626 115 536 m 181 626 q 205 497 181 554 q 271 398 229 439 q 368 335 313 357 q 486 314 424 314 q 608 335 551 314 q 705 397 664 357 q 769 495 746 438 q 792 626 792 553 q 767 756 792 699 q 701 854 743 814 q 604 917 660 894 q 486 938 549 939 q 364 917 419 939 q 267 854 308 894 q 203 756 226 814 q 181 626 181 699 m 439 475 q 469 470 457 474 q 490 463 481 467 l 490 429 l 318 429 l 318 463 q 367 475 342 471 l 367 799 q 340 803 351 800 q 318 814 329 807 l 318 844 l 371 844 q 431 847 396 844 q 488 850 465 850 q 547 844 518 850 q 597 823 575 838 q 632 786 619 808 q 644 733 644 764 q 615 665 644 690 q 546 628 585 640 q 594 549 571 588 q 657 475 617 511 l 689 458 l 689 429 l 619 429 l 581 444 q 525 531 546 486 q 489 615 504 575 l 439 615 l 439 475 m 481 806 q 456 805 465 806 q 439 801 447 804 l 439 656 l 483 656 q 564 733 567 656 q 540 788 563 769 q 481 806 517 806 z "},"¯":{"ha":518,"x_min":83,"x_max":435,"o":"m 83 885 l 83 957 l 435 957 l 435 885 l 83 885 z "},"°":{"ha":589,"x_min":115,"x_max":508,"o":"m 115 793 q 131 872 115 836 q 173 934 146 908 q 236 974 200 960 q 313 989 272 989 q 389 976 353 989 q 451 940 425 964 q 493 878 478 915 q 508 793 508 842 q 493 711 508 747 q 451 649 478 675 q 389 610 425 624 q 313 597 353 597 q 236 610 272 597 q 173 649 200 624 q 131 711 146 675 q 115 793 115 747 m 193 793 q 228 701 193 736 q 313 665 264 665 q 399 699 365 665 q 432 793 432 732 q 399 886 432 851 q 313 921 365 921 q 226 886 260 921 q 193 793 193 851 z "},"±":{"ha":740,"x_min":58,"x_max":682,"o":"m 58 681 l 333 681 l 333 972 l 407 972 l 407 681 l 682 681 l 682 607 l 407 607 l 407 393 l 333 393 l 333 607 l 58 607 l 58 681 m 58 319 l 682 319 l 682 246 l 58 246 l 58 319 z "},"²":{"ha":599,"x_min":56,"x_max":531,"o":"m 151 888 l 119 888 q 99 925 110 901 q 79 975 89 949 q 63 1025 69 1001 q 56 1063 57 1049 q 160 1108 100 1088 q 290 1129 221 1129 q 392 1116 351 1129 q 456 1081 432 1103 q 490 1031 481 1060 q 500 968 500 1001 q 477 876 500 922 q 413 785 454 829 q 316 699 372 740 q 193 622 260 657 l 193 614 l 236 624 l 426 624 l 488 717 l 518 717 q 523 673 521 697 q 527 623 525 649 q 530 574 529 597 q 531 536 531 551 l 60 536 l 60 582 q 174 658 117 614 q 278 751 232 701 q 354 853 325 801 q 383 950 383 904 q 360 1033 383 1003 q 267 1063 336 1063 q 179 1042 214 1063 l 151 888 z "},"³":{"ha":599,"x_min":60,"x_max":531,"o":"m 288 588 q 346 597 322 588 q 385 622 369 607 q 407 656 400 638 q 414 693 414 675 q 381 778 414 753 q 269 803 347 803 l 224 803 l 224 839 l 343 990 l 404 1049 l 404 1051 l 318 1046 l 194 1046 l 144 918 l 114 918 q 99 963 106 936 q 87 1019 92 990 q 78 1075 82 1049 q 75 1117 75 1101 l 501 1117 l 501 1067 l 375 919 l 321 864 l 321 863 l 364 868 q 427 858 397 868 q 480 827 457 847 q 517 776 503 807 q 531 706 531 746 q 459 569 531 615 q 271 524 388 524 q 155 542 214 524 q 60 588 96 561 l 107 715 l 132 715 q 147 694 139 708 q 165 665 156 681 q 184 632 175 649 q 200 601 193 615 q 233 592 213 597 q 288 588 254 588 z "},"´":{"ha":457,"x_min":83,"x_max":374,"o":"m 246 1065 q 275 1065 257 1067 q 313 1058 293 1063 q 349 1048 332 1054 q 374 1035 365 1042 l 374 1008 l 114 799 l 83 824 l 246 1065 z "},"µ":{"ha":797,"x_min":24,"x_max":764,"o":"m 186 21 l 235 -243 l 235 -278 q 107 -278 168 -297 l 107 614 l 24 625 l 24 661 q 115 690 68 678 q 206 711 161 703 l 240 711 q 236 504 240 607 q 232 300 232 401 q 238 203 232 246 q 260 131 244 160 q 304 85 276 101 q 375 69 332 69 q 481 115 438 69 q 547 232 524 160 l 547 614 l 456 625 l 456 661 q 546 690 499 678 q 638 711 593 703 l 672 711 l 672 79 l 764 68 l 764 39 q 682 7 724 21 q 596 -14 640 -7 l 561 -14 l 551 151 l 546 151 q 522 92 539 122 q 477 38 504 63 q 415 -1 450 14 q 338 -17 379 -17 q 258 -8 293 -17 q 194 21 222 0 l 186 21 z "},"¶":{"ha":710,"x_min":83,"x_max":626,"o":"m 522 131 q 508 -22 521 38 q 472 -116 496 -81 q 416 -168 449 -151 q 343 -193 383 -185 q 278 -260 315 -237 q 206 -294 242 -283 l 189 -267 q 246 -233 219 -254 q 291 -176 272 -211 q 320 -90 310 -142 q 331 33 331 -39 l 331 431 q 242 444 286 431 q 163 490 199 458 q 106 572 128 521 q 83 694 83 622 q 101 803 83 753 q 152 892 118 854 q 239 951 186 929 q 363 972 292 972 l 626 972 l 626 931 q 578 911 603 919 q 522 897 554 903 l 522 131 m 360 -161 q 438 -65 418 -137 q 457 131 457 7 l 457 904 l 396 904 l 396 33 q 388 -74 396 -22 q 360 -161 379 -125 z "},"·":{"ha":333,"x_min":74,"x_max":264,"o":"m 74 426 q 100 493 74 468 q 168 518 126 518 q 238 493 211 518 q 264 426 264 468 q 238 361 264 386 q 168 336 211 336 q 100 361 126 336 q 74 426 74 386 z "},"¸":{"ha":394,"x_min":83,"x_max":311,"o":"m 163 -94 q 274 -123 239 -97 q 310 -193 308 -149 q 290 -263 311 -233 q 235 -312 268 -293 q 161 -341 201 -332 q 83 -349 121 -350 l 83 -307 q 168 -279 136 -300 q 199 -215 200 -258 q 171 -165 199 -181 q 85 -146 143 -150 l 136 1 l 199 1 l 163 -94 z "},"¹":{"ha":599,"x_min":108,"x_max":507,"o":"m 507 536 l 118 536 l 118 565 q 190 593 156 581 q 258 613 224 606 l 258 956 l 264 1018 q 190 1005 231 1008 q 108 1003 149 1001 l 108 1043 q 221 1078 167 1056 q 325 1129 275 1101 l 368 1129 l 368 613 q 440 593 404 604 q 507 565 475 582 l 507 536 z "},"º":{"ha":604,"x_min":60,"x_max":543,"o":"m 60 753 q 78 850 60 807 q 128 924 96 893 q 205 972 161 956 q 301 989 249 989 q 399 974 354 989 q 475 931 443 960 q 525 857 507 901 q 543 753 543 813 q 525 655 543 699 q 475 581 507 611 q 399 533 443 550 q 301 517 354 517 q 205 531 249 517 q 128 575 161 546 q 78 649 96 604 q 60 753 60 693 m 176 753 q 208 619 176 669 q 301 568 240 568 q 426 753 426 568 q 301 936 426 936 q 176 753 176 936 z "},"»":{"ha":654,"x_min":74,"x_max":619,"o":"m 107 79 l 74 107 l 229 363 l 81 618 l 115 644 l 351 360 l 107 79 m 317 76 l 281 106 l 482 361 l 288 619 l 324 647 l 619 360 l 317 76 z "},"¼":{"ha":1303,"x_min":83,"x_max":1210,"o":"m 482 392 l 93 392 l 93 421 q 165 449 131 436 q 233 468 199 461 l 233 811 l 239 874 q 165 860 206 864 q 83 858 124 857 l 83 899 q 196 934 142 911 q 300 985 250 957 l 343 985 l 343 468 q 415 449 379 460 q 482 421 450 438 l 482 392 m 1046 986 l 1094 943 l 282 -10 l 235 35 l 1046 986 m 1161 0 l 868 0 l 868 29 q 917 49 892 40 q 969 63 942 57 l 969 163 l 631 163 l 631 196 l 1029 593 l 1079 593 l 1079 228 l 1210 228 l 1210 163 l 1079 163 l 1079 63 q 1118 51 1099 58 q 1161 29 1138 44 l 1161 0 m 969 408 l 983 468 l 979 468 l 931 408 l 776 250 l 726 218 l 814 228 l 969 228 l 969 408 z "},"½":{"ha":1394,"x_min":83,"x_max":1299,"o":"m 482 392 l 93 392 l 93 421 q 165 449 131 436 q 233 468 199 461 l 233 811 l 239 874 q 165 860 206 864 q 83 858 124 857 l 83 899 q 196 934 142 911 q 300 985 250 957 l 343 985 l 343 468 q 415 449 379 460 q 482 421 450 438 l 482 392 m 1046 986 l 1094 943 l 282 -10 l 235 35 l 1046 986 m 919 351 l 888 351 q 867 389 878 365 q 847 439 857 413 q 831 489 838 465 q 824 526 825 513 q 928 572 868 551 q 1058 593 989 593 q 1160 580 1119 593 q 1224 545 1200 567 q 1258 494 1249 524 q 1268 432 1268 465 q 1245 340 1268 386 q 1181 249 1222 293 q 1084 163 1140 204 q 961 86 1028 121 l 961 78 l 1004 88 l 1194 88 l 1256 181 l 1286 181 q 1291 137 1289 161 q 1295 87 1293 113 q 1298 38 1297 61 q 1299 0 1299 15 l 828 0 l 828 46 q 942 122 885 78 q 1047 215 1000 165 q 1122 317 1093 265 q 1151 414 1151 368 q 1128 497 1151 467 q 1035 526 1104 526 q 947 506 982 526 l 919 351 z "},"¾":{"ha":1376,"x_min":94,"x_max":1282,"o":"m 1118 986 l 1167 943 l 354 -10 l 307 35 l 1118 986 m 1233 0 l 940 0 l 940 29 q 989 49 964 40 q 1042 63 1014 57 l 1042 163 l 703 163 l 703 196 l 1101 593 l 1151 593 l 1151 228 l 1282 228 l 1282 163 l 1151 163 l 1151 63 q 1190 51 1171 58 q 1233 29 1210 44 l 1233 0 m 1042 408 l 1056 468 l 1051 468 l 1003 408 l 849 250 l 799 218 l 886 228 l 1042 228 l 1042 408 m 322 443 q 381 453 357 443 q 419 478 404 463 q 442 512 435 493 q 449 549 449 531 q 415 633 449 608 q 304 658 382 658 l 258 658 l 258 694 l 378 846 l 439 904 l 439 907 l 353 901 l 229 901 l 179 774 l 149 774 q 133 819 140 792 q 122 875 126 846 q 113 931 117 904 q 110 972 110 957 l 536 972 l 536 922 l 410 775 l 356 719 l 356 718 l 399 724 q 462 713 432 724 q 515 683 492 703 q 551 632 538 663 q 565 561 565 601 q 494 425 565 471 q 306 379 422 379 q 190 398 249 379 q 94 443 131 417 l 142 571 l 167 571 q 182 550 174 564 q 200 520 190 536 q 219 488 210 504 q 235 457 228 471 q 268 448 247 453 q 322 443 289 443 z "},"¿":{"ha":657,"x_min":49,"x_max":560,"o":"m 481 -21 l 515 -21 q 540 -117 526 -58 q 560 -231 554 -176 q 447 -276 507 -262 q 299 -289 386 -289 q 190 -272 236 -289 q 112 -224 143 -254 q 65 -153 81 -194 q 49 -62 49 -111 q 72 47 49 0 q 128 131 94 93 q 203 201 163 168 q 278 269 243 233 q 335 347 313 304 q 358 449 358 390 l 386 449 q 394 333 403 382 q 363 244 386 283 q 309 174 340 206 q 249 108 278 142 q 201 38 221 75 q 182 -49 182 0 q 190 -109 182 -79 q 217 -163 199 -139 q 266 -202 236 -187 q 338 -217 296 -217 q 410 -210 382 -217 q 449 -192 438 -203 l 481 -21 m 458 619 q 433 554 458 579 q 365 529 407 529 q 296 554 322 529 q 269 619 269 579 q 296 686 269 661 q 365 711 322 711 q 433 686 407 711 q 458 619 458 661 z "},"À":{"ha":949,"x_min":0,"x_max":949,"o":"m 308 0 l 0 0 l 0 40 q 100 74 50 63 l 451 989 l 492 989 l 843 74 q 898 61 871 68 q 949 40 925 54 l 949 0 l 593 0 l 593 40 q 650 60 621 51 q 707 74 679 68 l 613 328 l 281 328 l 189 74 q 308 40 247 65 l 308 0 m 308 400 l 589 400 l 479 694 l 453 814 l 450 814 l 415 692 l 308 400 m 514 1068 l 489 1042 l 176 1168 l 176 1196 q 203 1215 185 1206 q 242 1230 221 1224 q 282 1239 263 1236 q 313 1240 301 1242 l 514 1068 z "},"Á":{"ha":949,"x_min":0,"x_max":949,"o":"m 308 0 l 0 0 l 0 40 q 100 74 50 63 l 451 989 l 492 989 l 843 74 q 898 61 871 68 q 949 40 925 54 l 949 0 l 593 0 l 593 40 q 650 60 621 51 q 707 74 679 68 l 613 328 l 281 328 l 189 74 q 308 40 247 65 l 308 0 m 308 400 l 589 400 l 479 694 l 453 814 l 450 814 l 415 692 l 308 400 m 626 1240 q 658 1239 639 1242 q 698 1230 678 1236 q 735 1215 718 1224 q 761 1196 753 1206 l 761 1168 l 447 1042 l 424 1068 l 626 1240 z "},"Â":{"ha":949,"x_min":0,"x_max":949,"o":"m 308 0 l 0 0 l 0 40 q 100 74 50 63 l 451 989 l 492 989 l 843 74 q 898 61 871 68 q 949 40 925 54 l 949 0 l 593 0 l 593 40 q 650 60 621 51 q 707 74 679 68 l 613 328 l 281 328 l 189 74 q 308 40 247 65 l 308 0 m 308 400 l 589 400 l 479 694 l 453 814 l 450 814 l 415 692 l 308 400 m 300 1044 l 281 1071 l 457 1226 q 474 1231 464 1231 q 493 1226 485 1232 l 667 1075 l 646 1046 l 469 1124 l 300 1044 z "},"Ã":{"ha":949,"x_min":0,"x_max":949,"o":"m 308 0 l 0 0 l 0 40 q 100 74 50 63 l 451 989 l 492 989 l 843 74 q 898 61 871 68 q 949 40 925 54 l 949 0 l 593 0 l 593 40 q 650 60 621 51 q 707 74 679 68 l 613 328 l 281 328 l 189 74 q 308 40 247 65 l 308 0 m 308 400 l 589 400 l 479 694 l 453 814 l 450 814 l 415 692 l 308 400 m 696 1140 q 615 1079 651 1096 q 543 1063 578 1063 q 494 1070 517 1063 q 449 1086 471 1078 q 406 1102 426 1094 q 363 1110 385 1110 q 323 1102 343 1110 q 281 1075 303 1094 l 254 1115 q 348 1180 307 1163 q 424 1197 389 1197 q 472 1190 449 1197 q 515 1175 494 1183 q 557 1160 536 1167 q 600 1153 578 1153 q 637 1159 618 1153 q 678 1181 656 1165 l 696 1140 z "},"Ä":{"ha":949,"x_min":0,"x_max":949,"o":"m 308 0 l 0 0 l 0 40 q 100 74 50 63 l 451 989 l 492 989 l 843 74 q 898 61 871 68 q 949 40 925 54 l 949 0 l 593 0 l 593 40 q 650 60 621 51 q 707 74 679 68 l 613 328 l 281 328 l 189 74 q 308 40 247 65 l 308 0 m 308 400 l 589 400 l 479 694 l 453 814 l 450 814 l 415 692 l 308 400 m 242 1096 q 264 1146 242 1129 q 321 1163 286 1163 q 376 1146 354 1163 q 399 1096 399 1129 q 376 1047 399 1064 q 321 1031 354 1031 q 264 1047 286 1031 q 242 1096 242 1064 m 551 1096 q 574 1146 551 1129 q 629 1163 596 1163 q 686 1146 664 1163 q 708 1096 708 1129 q 686 1047 708 1064 q 629 1031 664 1031 q 574 1047 596 1031 q 551 1096 551 1064 z "},"Å":{"ha":949,"x_min":0,"x_max":949,"o":"m 319 1094 q 332 1144 319 1122 q 367 1182 344 1167 q 417 1206 389 1197 q 479 1214 446 1214 q 533 1207 506 1214 q 582 1186 560 1200 q 617 1151 604 1172 q 631 1099 631 1129 q 590 1018 631 1047 q 493 985 549 989 l 843 74 q 898 61 871 68 q 949 40 925 54 l 949 0 l 593 0 l 593 40 q 650 60 621 51 q 707 74 679 68 l 613 328 l 281 328 l 189 74 q 308 40 247 65 l 308 0 l 0 0 l 0 40 q 100 74 50 63 l 450 986 q 356 1019 392 992 q 319 1094 319 1047 m 308 400 l 589 400 l 479 694 l 453 814 l 450 814 l 415 692 l 308 400 m 397 1094 q 422 1054 397 1067 q 472 1042 446 1042 q 531 1054 508 1042 q 553 1093 553 1067 q 528 1143 553 1129 q 476 1157 503 1157 q 419 1144 442 1157 q 397 1094 397 1131 z "},"Æ":{"ha":1279,"x_min":0,"x_max":1200,"o":"m 1169 972 q 1165 860 1168 917 q 1154 747 1163 804 l 1119 747 l 1061 900 l 760 900 l 760 532 l 985 532 l 1040 635 l 1074 635 q 1074 354 1085 497 l 1040 354 l 985 460 l 760 460 l 760 72 l 1079 72 l 1146 239 l 1182 239 q 1195 121 1190 181 q 1197 0 1200 61 l 513 0 l 513 40 q 626 74 561 63 l 626 356 l 354 356 l 193 74 q 311 40 250 65 l 311 0 l 0 0 l 0 40 q 100 74 50 63 l 592 906 q 551 917 572 911 q 511 932 531 924 l 511 972 l 1169 972 m 396 428 l 626 428 l 626 849 l 624 849 l 567 719 l 396 428 z "},"Ç":{"ha":894,"x_min":74,"x_max":814,"o":"m 760 253 l 796 253 q 808 155 803 214 q 811 40 814 96 q 755 11 788 22 q 686 -6 722 0 q 613 -15 650 -12 q 544 -17 576 -17 l 511 -104 q 634 -135 594 -106 q 674 -214 674 -165 q 649 -286 674 -256 q 588 -337 625 -317 q 507 -368 551 -358 q 422 -378 463 -378 l 422 -332 q 515 -301 478 -324 q 551 -239 553 -279 q 519 -183 550 -200 q 426 -161 489 -165 l 476 -11 q 179 130 285 10 q 74 486 74 250 q 111 717 74 622 q 213 873 149 813 q 361 961 276 933 q 539 989 446 989 q 693 977 631 989 q 803 942 756 965 q 801 890 803 919 q 797 826 800 860 q 790 761 794 793 q 782 703 786 729 l 746 703 l 674 903 q 623 914 658 911 q 553 917 588 917 q 422 891 483 917 q 313 812 360 865 q 239 677 267 758 q 211 486 211 596 q 236 308 211 388 q 308 172 261 228 q 424 85 356 115 q 578 56 492 56 q 654 63 624 56 q 694 81 685 69 l 760 253 z "},"È":{"ha":808,"x_min":40,"x_max":728,"o":"m 699 972 q 694 860 697 917 q 683 747 690 804 l 647 747 l 590 900 l 288 900 l 288 532 l 514 532 l 568 635 l 603 635 q 603 354 611 497 l 568 354 l 514 460 l 288 460 l 288 72 l 607 72 l 675 239 l 710 239 q 724 121 719 181 q 725 0 728 61 l 40 0 l 40 40 q 154 74 89 63 l 154 897 q 97 912 126 903 q 40 932 68 921 l 40 972 l 699 972 m 494 1068 l 469 1042 l 157 1168 l 157 1196 q 183 1215 165 1206 q 222 1230 201 1224 q 263 1239 243 1236 q 293 1240 282 1242 l 494 1068 z "},"É":{"ha":808,"x_min":40,"x_max":728,"o":"m 699 972 q 694 860 697 917 q 683 747 690 804 l 647 747 l 590 900 l 288 900 l 288 532 l 514 532 l 568 635 l 603 635 q 603 354 611 497 l 568 354 l 514 460 l 288 460 l 288 72 l 607 72 l 675 239 l 710 239 q 724 121 719 181 q 725 0 728 61 l 40 0 l 40 40 q 154 74 89 63 l 154 897 q 97 912 126 903 q 40 932 68 921 l 40 972 l 699 972 m 501 1240 q 533 1239 514 1242 q 573 1230 553 1236 q 610 1215 593 1224 q 636 1196 628 1206 l 636 1168 l 322 1042 l 299 1068 l 501 1240 z "},"Ê":{"ha":808,"x_min":40,"x_max":728,"o":"m 699 972 q 694 860 697 917 q 683 747 690 804 l 647 747 l 590 900 l 288 900 l 288 532 l 514 532 l 568 635 l 603 635 q 603 354 611 497 l 568 354 l 514 460 l 288 460 l 288 72 l 607 72 l 675 239 l 710 239 q 724 121 719 181 q 725 0 728 61 l 40 0 l 40 40 q 154 74 89 63 l 154 897 q 97 912 126 903 q 40 932 68 921 l 40 972 l 699 972 m 243 1044 l 224 1071 l 400 1226 q 417 1231 407 1231 q 436 1226 428 1232 l 610 1075 l 589 1046 l 413 1124 l 243 1044 z "},"Ë":{"ha":808,"x_min":40,"x_max":728,"o":"m 699 972 q 694 860 697 917 q 683 747 690 804 l 647 747 l 590 900 l 288 900 l 288 532 l 514 532 l 568 635 l 603 635 q 603 354 611 497 l 568 354 l 514 460 l 288 460 l 288 72 l 607 72 l 675 239 l 710 239 q 724 121 719 181 q 725 0 728 61 l 40 0 l 40 40 q 154 74 89 63 l 154 897 q 97 912 126 903 q 40 932 68 921 l 40 972 l 699 972 m 165 1096 q 188 1146 165 1129 q 244 1163 210 1163 q 300 1146 278 1163 q 322 1096 322 1129 q 300 1047 322 1064 q 244 1031 278 1031 q 188 1047 210 1031 q 165 1096 165 1064 m 475 1096 q 497 1146 475 1129 q 553 1163 519 1163 q 610 1146 588 1163 q 632 1096 632 1129 q 610 1047 632 1064 q 553 1031 588 1031 q 497 1047 519 1031 q 475 1096 475 1064 z "},"Ì":{"ha":489,"x_min":50,"x_max":422,"o":"m 422 0 l 67 0 l 67 40 q 178 74 121 65 l 178 897 q 122 912 150 903 q 67 932 94 921 l 67 972 l 422 972 l 422 932 q 368 912 397 921 q 311 897 339 903 l 311 74 q 369 60 340 68 q 422 40 399 51 l 422 0 m 388 1068 l 363 1042 l 50 1168 l 50 1196 q 76 1215 58 1206 q 115 1230 94 1224 q 156 1239 136 1236 q 186 1240 175 1242 l 388 1068 z "},"Í":{"ha":489,"x_min":67,"x_max":468,"o":"m 422 0 l 67 0 l 67 40 q 178 74 121 65 l 178 897 q 122 912 150 903 q 67 932 94 921 l 67 972 l 422 972 l 422 932 q 368 912 397 921 q 311 897 339 903 l 311 74 q 369 60 340 68 q 422 40 399 51 l 422 0 m 333 1240 q 365 1239 346 1242 q 405 1230 385 1236 q 442 1215 425 1224 q 468 1196 460 1206 l 468 1168 l 154 1042 l 131 1068 l 333 1240 z "},"Î":{"ha":489,"x_min":53,"x_max":439,"o":"m 422 0 l 67 0 l 67 40 q 178 74 121 65 l 178 897 q 122 912 150 903 q 67 932 94 921 l 67 972 l 422 972 l 422 932 q 368 912 397 921 q 311 897 339 903 l 311 74 q 369 60 340 68 q 422 40 399 51 l 422 0 m 72 1044 l 53 1071 l 229 1226 q 247 1231 236 1231 q 265 1226 257 1232 l 439 1075 l 418 1046 l 242 1124 l 72 1044 z "},"Ï":{"ha":489,"x_min":13,"x_max":479,"o":"m 422 0 l 67 0 l 67 40 q 178 74 121 65 l 178 897 q 122 912 150 903 q 67 932 94 921 l 67 972 l 422 972 l 422 932 q 368 912 397 921 q 311 897 339 903 l 311 74 q 369 60 340 68 q 422 40 399 51 l 422 0 m 13 1096 q 35 1146 13 1129 q 92 1163 57 1163 q 147 1146 125 1163 q 169 1096 169 1129 q 147 1047 169 1064 q 92 1031 125 1031 q 35 1047 57 1031 q 13 1096 13 1064 m 322 1096 q 344 1146 322 1129 q 400 1163 367 1163 q 457 1146 435 1163 q 479 1096 479 1129 q 457 1047 479 1064 q 400 1031 435 1031 q 344 1047 367 1031 q 322 1096 322 1064 z "},"Ð":{"ha":985,"x_min":31,"x_max":911,"o":"m 31 533 l 154 533 l 154 897 q 93 913 122 904 q 40 932 64 922 l 40 972 l 182 972 q 238 974 206 972 q 303 977 269 975 q 369 981 338 979 q 421 983 400 983 q 630 951 539 983 q 783 856 721 918 q 878 704 846 794 q 911 499 911 614 q 880 295 911 389 q 785 133 849 201 q 623 26 721 65 q 392 -12 525 -12 q 345 -10 372 -12 q 289 -6 318 -8 q 230 -2 260 -4 q 174 0 200 0 l 40 0 l 40 40 q 154 74 89 63 l 154 461 l 31 461 l 31 533 m 401 911 q 332 910 365 911 q 279 906 299 910 l 279 533 l 511 533 l 511 461 l 279 461 l 279 64 q 305 62 286 63 q 344 60 324 61 q 384 60 365 60 q 411 60 403 60 q 574 96 507 60 q 682 192 640 132 q 743 332 724 253 q 763 499 763 411 q 744 640 763 567 q 683 773 725 713 q 572 872 640 833 q 401 911 503 911 z "},"Ñ":{"ha":1017,"x_min":40,"x_max":976,"o":"m 676 972 l 976 972 l 976 932 q 863 876 918 893 l 863 -17 l 783 -17 l 279 749 l 225 857 l 221 857 l 233 749 l 233 89 q 340 40 290 74 l 340 0 l 40 0 l 40 40 q 94 67 65 56 q 154 89 122 79 l 154 885 q 99 908 126 896 q 49 933 72 921 l 49 972 l 283 972 l 721 313 l 785 193 l 790 193 l 783 313 l 783 876 q 727 903 754 889 q 676 932 700 917 l 676 972 m 729 1140 q 648 1079 685 1096 q 576 1063 611 1063 q 527 1070 550 1063 q 482 1086 504 1078 q 439 1102 460 1094 q 396 1110 418 1110 q 356 1102 376 1110 q 314 1075 336 1094 l 288 1115 q 381 1180 340 1163 q 457 1197 422 1197 q 505 1190 482 1197 q 549 1175 528 1183 q 590 1160 569 1167 q 633 1153 611 1153 q 670 1159 651 1153 q 711 1181 689 1165 l 729 1140 z "},"Ò":{"ha":1028,"x_min":74,"x_max":954,"o":"m 74 486 q 103 687 74 594 q 190 847 133 779 q 328 951 246 914 q 514 989 410 989 q 700 951 618 989 q 838 847 782 914 q 924 687 894 779 q 954 486 954 594 q 924 285 954 378 q 838 126 894 193 q 700 21 782 58 q 514 -17 618 -17 q 328 21 410 -17 q 190 126 246 58 q 103 285 133 193 q 74 486 74 378 m 222 486 q 241 319 222 397 q 297 182 260 240 q 392 90 335 124 q 526 56 449 56 q 650 90 597 56 q 737 182 703 124 q 788 319 771 240 q 806 486 806 397 q 788 653 806 575 q 732 790 769 732 q 638 883 694 849 q 503 917 581 917 q 373 883 426 917 q 286 790 319 849 q 238 653 253 732 q 222 486 222 575 m 608 1068 l 583 1042 l 271 1168 l 271 1196 q 297 1215 279 1206 q 336 1230 315 1224 q 376 1239 357 1236 q 407 1240 396 1242 l 608 1068 z "},"Ó":{"ha":1028,"x_min":74,"x_max":954,"o":"m 74 486 q 103 687 74 594 q 190 847 133 779 q 328 951 246 914 q 514 989 410 989 q 700 951 618 989 q 838 847 782 914 q 924 687 894 779 q 954 486 954 594 q 924 285 954 378 q 838 126 894 193 q 700 21 782 58 q 514 -17 618 -17 q 328 21 410 -17 q 190 126 246 58 q 103 285 133 193 q 74 486 74 378 m 222 486 q 241 319 222 397 q 297 182 260 240 q 392 90 335 124 q 526 56 449 56 q 650 90 597 56 q 737 182 703 124 q 788 319 771 240 q 806 486 806 397 q 788 653 806 575 q 732 790 769 732 q 638 883 694 849 q 503 917 581 917 q 373 883 426 917 q 286 790 319 849 q 238 653 253 732 q 222 486 222 575 m 586 1240 q 618 1239 599 1242 q 658 1230 638 1236 q 695 1215 678 1224 q 721 1196 713 1206 l 721 1168 l 407 1042 l 383 1068 l 586 1240 z "},"Ô":{"ha":1028,"x_min":74,"x_max":954,"o":"m 74 486 q 103 687 74 594 q 190 847 133 779 q 328 951 246 914 q 514 989 410 989 q 700 951 618 989 q 838 847 782 914 q 924 687 894 779 q 954 486 954 594 q 924 285 954 378 q 838 126 894 193 q 700 21 782 58 q 514 -17 618 -17 q 328 21 410 -17 q 190 126 246 58 q 103 285 133 193 q 74 486 74 378 m 222 486 q 241 319 222 397 q 297 182 260 240 q 392 90 335 124 q 526 56 449 56 q 650 90 597 56 q 737 182 703 124 q 788 319 771 240 q 806 486 806 397 q 788 653 806 575 q 732 790 769 732 q 638 883 694 849 q 503 917 581 917 q 373 883 426 917 q 286 790 319 849 q 238 653 253 732 q 222 486 222 575 m 340 1044 l 321 1071 l 497 1226 q 515 1231 504 1231 q 533 1226 525 1232 l 707 1075 l 686 1046 l 510 1124 l 340 1044 z "},"Õ":{"ha":1028,"x_min":74,"x_max":954,"o":"m 74 486 q 103 687 74 594 q 190 847 133 779 q 328 951 246 914 q 514 989 410 989 q 700 951 618 989 q 838 847 782 914 q 924 687 894 779 q 954 486 954 594 q 924 285 954 378 q 838 126 894 193 q 700 21 782 58 q 514 -17 618 -17 q 328 21 410 -17 q 190 126 246 58 q 103 285 133 193 q 74 486 74 378 m 222 486 q 241 319 222 397 q 297 182 260 240 q 392 90 335 124 q 526 56 449 56 q 650 90 597 56 q 737 182 703 124 q 788 319 771 240 q 806 486 806 397 q 788 653 806 575 q 732 790 769 732 q 638 883 694 849 q 503 917 581 917 q 373 883 426 917 q 286 790 319 849 q 238 653 253 732 q 222 486 222 575 m 735 1140 q 653 1079 690 1096 q 582 1063 617 1063 q 533 1070 556 1063 q 488 1086 510 1078 q 444 1102 465 1094 q 401 1110 424 1110 q 362 1102 382 1110 q 319 1075 342 1094 l 293 1115 q 387 1180 346 1163 q 463 1197 428 1197 q 510 1190 488 1197 q 554 1175 533 1183 q 596 1160 575 1167 q 639 1153 617 1153 q 676 1159 657 1153 q 717 1181 694 1165 l 735 1140 z "},"Ö":{"ha":1028,"x_min":74,"x_max":954,"o":"m 74 486 q 103 687 74 594 q 190 847 133 779 q 328 951 246 914 q 514 989 410 989 q 700 951 618 989 q 838 847 782 914 q 924 687 894 779 q 954 486 954 594 q 924 285 954 378 q 838 126 894 193 q 700 21 782 58 q 514 -17 618 -17 q 328 21 410 -17 q 190 126 246 58 q 103 285 133 193 q 74 486 74 378 m 222 486 q 241 319 222 397 q 297 182 260 240 q 392 90 335 124 q 526 56 449 56 q 650 90 597 56 q 737 182 703 124 q 788 319 771 240 q 806 486 806 397 q 788 653 806 575 q 732 790 769 732 q 638 883 694 849 q 503 917 581 917 q 373 883 426 917 q 286 790 319 849 q 238 653 253 732 q 222 486 222 575 m 281 1096 q 303 1146 281 1129 q 360 1163 325 1163 q 415 1146 393 1163 q 438 1096 438 1129 q 415 1047 438 1064 q 360 1031 393 1031 q 303 1047 325 1031 q 281 1096 281 1064 m 590 1096 q 613 1146 590 1129 q 668 1163 635 1163 q 725 1146 703 1163 q 747 1096 747 1129 q 725 1047 747 1064 q 668 1031 703 1031 q 613 1047 635 1031 q 590 1096 590 1064 z "},"×":{"ha":740,"x_min":122,"x_max":619,"o":"m 122 283 l 317 478 l 125 671 l 176 722 l 369 531 l 564 725 l 615 674 l 421 479 l 619 281 l 567 228 l 368 426 l 174 232 l 122 283 z "},"Ø":{"ha":1028,"x_min":74,"x_max":954,"o":"m 74 486 q 103 687 74 594 q 190 847 133 779 q 328 951 246 914 q 514 989 410 989 q 640 972 582 989 q 746 926 697 956 l 785 990 l 856 950 l 808 876 q 917 708 879 808 q 954 486 954 608 q 924 285 954 378 q 838 126 894 193 q 700 21 782 58 q 514 -17 618 -17 q 390 -1 447 -17 q 283 43 332 15 l 244 -18 l 179 22 l 221 90 q 111 260 149 158 q 74 486 74 361 m 222 486 q 239 329 222 403 q 289 199 256 256 l 692 842 q 608 897 656 878 q 503 917 561 917 q 373 883 426 917 q 286 790 319 849 q 238 653 253 732 q 222 486 222 575 m 806 486 q 790 641 806 569 q 740 769 774 713 l 339 129 q 421 74 375 93 q 526 56 467 56 q 650 90 597 56 q 737 182 703 124 q 788 319 771 240 q 806 486 806 397 z "},"Ù":{"ha":933,"x_min":14,"x_max":919,"o":"m 14 972 l 367 972 l 367 932 q 314 913 340 921 q 261 897 288 904 l 261 329 q 277 206 261 256 q 324 127 293 157 q 399 84 354 97 q 501 71 444 71 q 672 131 611 71 q 733 331 733 192 l 733 885 q 674 908 701 896 q 624 932 646 919 l 624 972 l 919 972 l 919 932 q 866 904 893 917 q 811 885 839 892 l 811 328 q 788 175 811 239 q 722 69 764 111 q 619 8 679 28 q 485 -12 558 -12 q 219 66 311 -12 q 128 307 128 144 l 128 897 q 14 932 71 906 l 14 972 m 557 1068 l 532 1042 l 219 1168 l 219 1196 q 246 1215 228 1206 q 285 1230 264 1224 q 325 1239 306 1236 q 356 1240 344 1242 l 557 1068 z "},"Ú":{"ha":933,"x_min":14,"x_max":919,"o":"m 14 972 l 367 972 l 367 932 q 314 913 340 921 q 261 897 288 904 l 261 329 q 277 206 261 256 q 324 127 293 157 q 399 84 354 97 q 501 71 444 71 q 672 131 611 71 q 733 331 733 192 l 733 885 q 674 908 701 896 q 624 932 646 919 l 624 972 l 919 972 l 919 932 q 866 904 893 917 q 811 885 839 892 l 811 328 q 788 175 811 239 q 722 69 764 111 q 619 8 679 28 q 485 -12 558 -12 q 219 66 311 -12 q 128 307 128 144 l 128 897 q 14 932 71 906 l 14 972 m 646 1240 q 678 1239 658 1242 q 717 1230 697 1236 q 755 1215 738 1224 q 781 1196 772 1206 l 781 1168 l 467 1042 l 443 1068 l 646 1240 z "},"Û":{"ha":933,"x_min":14,"x_max":919,"o":"m 14 972 l 367 972 l 367 932 q 314 913 340 921 q 261 897 288 904 l 261 329 q 277 206 261 256 q 324 127 293 157 q 399 84 354 97 q 501 71 444 71 q 672 131 611 71 q 733 331 733 192 l 733 885 q 674 908 701 896 q 624 932 646 919 l 624 972 l 919 972 l 919 932 q 866 904 893 917 q 811 885 839 892 l 811 328 q 788 175 811 239 q 722 69 764 111 q 619 8 679 28 q 485 -12 558 -12 q 219 66 311 -12 q 128 307 128 144 l 128 897 q 14 932 71 906 l 14 972 m 322 1044 l 303 1071 l 479 1226 q 497 1231 486 1231 q 515 1226 507 1232 l 689 1075 l 668 1046 l 492 1124 l 322 1044 z "},"Ü":{"ha":933,"x_min":14,"x_max":919,"o":"m 14 972 l 367 972 l 367 932 q 314 913 340 921 q 261 897 288 904 l 261 329 q 277 206 261 256 q 324 127 293 157 q 399 84 354 97 q 501 71 444 71 q 672 131 611 71 q 733 331 733 192 l 733 885 q 674 908 701 896 q 624 932 646 919 l 624 972 l 919 972 l 919 932 q 866 904 893 917 q 811 885 839 892 l 811 328 q 788 175 811 239 q 722 69 764 111 q 619 8 679 28 q 485 -12 558 -12 q 219 66 311 -12 q 128 307 128 144 l 128 897 q 14 932 71 906 l 14 972 m 263 1096 q 285 1146 263 1129 q 342 1163 307 1163 q 397 1146 375 1163 q 419 1096 419 1129 q 397 1047 419 1064 q 342 1031 375 1031 q 285 1047 307 1031 q 263 1096 263 1064 m 572 1096 q 594 1146 572 1129 q 650 1163 617 1163 q 707 1146 685 1163 q 729 1096 729 1129 q 707 1047 729 1064 q 650 1031 685 1031 q 594 1047 617 1031 q 572 1096 572 1064 z "},"Ý":{"ha":894,"x_min":0,"x_max":894,"o":"m 589 972 l 894 972 l 894 932 q 789 897 842 906 l 526 414 l 526 74 q 632 40 581 67 l 632 0 l 279 0 l 279 40 q 393 74 329 65 l 393 413 l 113 897 q 53 912 81 903 q 0 932 26 921 l 0 972 l 368 972 l 368 932 q 321 915 347 924 q 261 897 294 906 l 489 489 l 703 897 q 642 913 671 904 q 589 932 614 922 l 589 972 m 646 1240 q 678 1239 658 1242 q 717 1230 697 1236 q 755 1215 738 1224 q 781 1196 772 1206 l 781 1168 l 467 1042 l 443 1068 l 646 1240 z "},"Þ":{"ha":826,"x_min":40,"x_max":774,"o":"m 288 74 q 421 39 365 63 l 421 0 l 40 0 l 40 39 q 97 61 68 54 q 154 74 126 68 l 154 899 q 43 933 97 910 l 43 972 l 399 972 l 399 933 q 344 913 374 921 q 288 899 315 904 l 288 831 q 351 835 319 833 q 413 836 382 836 q 546 822 481 836 q 662 773 611 807 q 743 683 713 739 q 774 543 774 626 q 742 408 774 464 q 656 315 710 351 q 535 260 603 278 q 394 243 467 243 q 373 243 388 243 q 342 244 358 243 q 310 246 325 244 q 288 249 294 247 l 288 74 m 382 764 q 328 763 349 764 q 288 756 307 761 l 288 321 q 308 317 294 318 q 335 316 321 317 q 364 315 350 315 q 386 315 378 315 q 478 328 435 315 q 553 369 521 342 q 606 440 586 397 q 625 543 625 483 q 560 708 625 651 q 382 764 496 764 z "},"ß":{"ha":886,"x_min":43,"x_max":832,"o":"m 601 819 q 590 879 601 850 q 558 931 578 908 q 514 969 539 954 q 460 983 489 983 q 389 976 422 983 q 330 942 356 968 q 289 865 304 915 q 274 731 274 815 l 274 0 l 57 0 l 57 35 q 149 68 100 60 l 149 625 l 43 625 l 43 661 q 149 707 92 692 l 149 756 q 179 898 149 842 q 255 987 210 954 q 353 1032 300 1019 q 451 1044 406 1044 q 578 1024 526 1044 q 663 968 631 1003 q 710 889 696 933 q 726 797 725 844 q 632 777 674 790 q 561 742 590 764 q 517 687 532 719 q 501 608 501 654 q 526 534 501 565 q 587 476 550 503 q 667 423 624 449 q 747 365 710 397 q 808 290 783 332 q 832 192 832 249 q 765 39 832 94 q 575 -17 699 -17 q 350 24 460 -17 q 362 88 353 58 q 383 142 371 118 l 418 142 l 508 56 q 538 47 524 49 q 572 44 553 44 q 673 78 639 44 q 707 158 707 111 q 683 236 707 204 q 622 295 658 268 q 542 348 585 322 q 462 407 499 374 q 401 485 425 440 q 376 593 376 529 q 427 726 376 669 q 601 819 478 783 z "},"à":{"ha":701,"x_min":54,"x_max":669,"o":"m 569 182 q 571 129 569 151 q 574 82 572 107 l 669 68 l 669 39 q 592 7 635 21 q 511 -14 550 -7 l 476 -14 q 460 56 463 18 q 456 140 457 94 l 449 140 q 427 84 443 113 q 385 33 411 56 q 325 -3 360 11 q 246 -17 290 -17 q 108 35 161 -17 q 54 169 54 86 q 80 274 54 233 q 156 339 106 315 q 279 373 206 363 q 450 389 353 383 q 453 497 456 449 q 438 578 451 544 q 399 631 425 613 q 332 650 374 650 q 288 648 313 650 q 240 636 264 646 l 175 469 l 139 469 q 115 556 125 511 q 101 643 104 600 q 219 693 154 675 q 363 711 283 711 q 476 691 433 711 q 540 639 518 671 q 569 568 563 607 q 576 490 576 529 q 573 330 576 407 q 569 182 569 253 m 301 69 q 363 83 336 69 q 407 117 389 97 q 436 156 425 136 q 451 190 447 176 l 451 336 q 319 328 371 336 q 239 301 268 319 q 199 256 210 283 q 188 194 188 229 q 218 102 188 135 q 301 69 249 69 m 439 824 l 408 800 l 150 1007 l 150 1035 q 177 1048 158 1042 q 218 1058 196 1054 q 260 1065 240 1063 q 292 1065 281 1067 l 439 824 z "},"á":{"ha":701,"x_min":54,"x_max":669,"o":"m 569 182 q 571 129 569 151 q 574 82 572 107 l 669 68 l 669 39 q 592 7 635 21 q 511 -14 550 -7 l 476 -14 q 460 56 463 18 q 456 140 457 94 l 449 140 q 427 84 443 113 q 385 33 411 56 q 325 -3 360 11 q 246 -17 290 -17 q 108 35 161 -17 q 54 169 54 86 q 80 274 54 233 q 156 339 106 315 q 279 373 206 363 q 450 389 353 383 q 453 497 456 449 q 438 578 451 544 q 399 631 425 613 q 332 650 374 650 q 288 648 313 650 q 240 636 264 646 l 175 469 l 139 469 q 115 556 125 511 q 101 643 104 600 q 219 693 154 675 q 363 711 283 711 q 476 691 433 711 q 540 639 518 671 q 569 568 563 607 q 576 490 576 529 q 573 330 576 407 q 569 182 569 253 m 301 69 q 363 83 336 69 q 407 117 389 97 q 436 156 425 136 q 451 190 447 176 l 451 336 q 319 328 371 336 q 239 301 268 319 q 199 256 210 283 q 188 194 188 229 q 218 102 188 135 q 301 69 249 69 m 424 1065 q 453 1065 435 1067 q 490 1058 471 1063 q 526 1048 510 1054 q 551 1035 543 1042 l 551 1008 l 292 799 l 261 824 l 424 1065 z "},"â":{"ha":701,"x_min":54,"x_max":669,"o":"m 569 182 q 571 129 569 151 q 574 82 572 107 l 669 68 l 669 39 q 592 7 635 21 q 511 -14 550 -7 l 476 -14 q 460 56 463 18 q 456 140 457 94 l 449 140 q 427 84 443 113 q 385 33 411 56 q 325 -3 360 11 q 246 -17 290 -17 q 108 35 161 -17 q 54 169 54 86 q 80 274 54 233 q 156 339 106 315 q 279 373 206 363 q 450 389 353 383 q 453 497 456 449 q 438 578 451 544 q 399 631 425 613 q 332 650 374 650 q 288 648 313 650 q 240 636 264 646 l 175 469 l 139 469 q 115 556 125 511 q 101 643 104 600 q 219 693 154 675 q 363 711 283 711 q 476 691 433 711 q 540 639 518 671 q 569 568 563 607 q 576 490 576 529 q 573 330 576 407 q 569 182 569 253 m 301 69 q 363 83 336 69 q 407 117 389 97 q 436 156 425 136 q 451 190 447 176 l 451 336 q 319 328 371 336 q 239 301 268 319 q 199 256 210 283 q 188 194 188 229 q 218 102 188 135 q 301 69 249 69 m 218 819 l 178 842 l 331 1100 q 348 1105 338 1104 q 365 1100 358 1106 l 524 843 l 486 819 l 343 968 l 218 819 z "},"ã":{"ha":701,"x_min":54,"x_max":669,"o":"m 569 182 q 571 129 569 151 q 574 82 572 107 l 669 68 l 669 39 q 592 7 635 21 q 511 -14 550 -7 l 476 -14 q 460 56 463 18 q 456 140 457 94 l 449 140 q 427 84 443 113 q 385 33 411 56 q 325 -3 360 11 q 246 -17 290 -17 q 108 35 161 -17 q 54 169 54 86 q 80 274 54 233 q 156 339 106 315 q 279 373 206 363 q 450 389 353 383 q 453 497 456 449 q 438 578 451 544 q 399 631 425 613 q 332 650 374 650 q 288 648 313 650 q 240 636 264 646 l 175 469 l 139 469 q 115 556 125 511 q 101 643 104 600 q 219 693 154 675 q 363 711 283 711 q 476 691 433 711 q 540 639 518 671 q 569 568 563 607 q 576 490 576 529 q 573 330 576 407 q 569 182 569 253 m 301 69 q 363 83 336 69 q 407 117 389 97 q 436 156 425 136 q 451 190 447 176 l 451 336 q 319 328 371 336 q 239 301 268 319 q 199 256 210 283 q 188 194 188 229 q 218 102 188 135 q 301 69 249 69 m 550 933 q 469 872 506 889 q 400 854 432 854 q 353 862 375 854 q 310 878 331 869 q 269 894 289 886 q 228 901 249 901 q 191 894 210 901 q 150 868 172 888 l 124 907 q 215 972 175 956 q 288 989 256 989 q 334 982 313 989 q 375 967 356 975 q 415 951 394 958 q 456 944 435 944 q 492 951 474 944 q 532 972 510 957 l 550 933 z "},"ä":{"ha":701,"x_min":54,"x_max":669,"o":"m 569 182 q 571 129 569 151 q 574 82 572 107 l 669 68 l 669 39 q 592 7 635 21 q 511 -14 550 -7 l 476 -14 q 460 56 463 18 q 456 140 457 94 l 449 140 q 427 84 443 113 q 385 33 411 56 q 325 -3 360 11 q 246 -17 290 -17 q 108 35 161 -17 q 54 169 54 86 q 80 274 54 233 q 156 339 106 315 q 279 373 206 363 q 450 389 353 383 q 453 497 456 449 q 438 578 451 544 q 399 631 425 613 q 332 650 374 650 q 288 648 313 650 q 240 636 264 646 l 175 469 l 139 469 q 115 556 125 511 q 101 643 104 600 q 219 693 154 675 q 363 711 283 711 q 476 691 433 711 q 540 639 518 671 q 569 568 563 607 q 576 490 576 529 q 573 330 576 407 q 569 182 569 253 m 301 69 q 363 83 336 69 q 407 117 389 97 q 436 156 425 136 q 451 190 447 176 l 451 336 q 319 328 371 336 q 239 301 268 319 q 199 256 210 283 q 188 194 188 229 q 218 102 188 135 q 301 69 249 69 m 107 921 q 128 974 107 954 q 182 994 149 994 q 236 974 215 994 q 257 921 257 954 q 236 869 257 889 q 182 850 215 850 q 128 869 149 850 q 107 921 107 889 m 415 921 q 436 974 415 954 q 490 994 457 994 q 544 974 524 994 q 565 921 565 954 q 544 869 565 889 q 490 850 524 850 q 436 869 457 850 q 415 921 415 889 z "},"å":{"ha":701,"x_min":54,"x_max":669,"o":"m 569 182 q 571 129 569 151 q 574 82 572 107 l 669 68 l 669 39 q 592 7 635 21 q 511 -14 550 -7 l 476 -14 q 460 56 463 18 q 456 140 457 94 l 449 140 q 427 84 443 113 q 385 33 411 56 q 325 -3 360 11 q 246 -17 290 -17 q 108 35 161 -17 q 54 169 54 86 q 80 274 54 233 q 156 339 106 315 q 279 373 206 363 q 450 389 353 383 q 453 497 456 449 q 438 578 451 544 q 399 631 425 613 q 332 650 374 650 q 288 648 313 650 q 240 636 264 646 l 175 469 l 139 469 q 115 556 125 511 q 101 643 104 600 q 219 693 154 675 q 363 711 283 711 q 476 691 433 711 q 540 639 518 671 q 569 568 563 607 q 576 490 576 529 q 573 330 576 407 q 569 182 569 253 m 301 69 q 363 83 336 69 q 407 117 389 97 q 436 156 425 136 q 451 190 447 176 l 451 336 q 319 328 371 336 q 239 301 268 319 q 199 256 210 283 q 188 194 188 229 q 218 102 188 135 q 301 69 249 69 m 199 949 q 238 1044 199 1006 q 338 1083 278 1083 q 430 1049 392 1083 q 468 953 468 1014 q 457 900 468 924 q 428 860 446 876 q 385 833 410 843 q 336 824 361 824 q 236 857 274 824 q 199 949 199 890 m 271 951 q 290 898 271 915 q 332 881 308 881 q 377 897 360 881 q 394 947 394 913 q 378 1006 394 985 q 333 1026 361 1026 q 285 1006 300 1026 q 271 951 271 985 z "},"æ":{"ha":1081,"x_min":54,"x_max":1015,"o":"m 542 629 q 575 661 557 646 q 617 688 593 676 q 674 705 642 699 q 753 711 707 711 q 849 698 801 711 q 933 654 896 685 q 992 573 969 624 q 1015 447 1015 522 q 1013 399 1015 424 q 1006 347 1011 375 l 575 347 q 590 238 575 289 q 633 150 604 188 q 705 91 661 113 q 808 69 749 69 q 858 73 832 69 q 907 83 883 76 q 950 99 931 90 q 982 119 969 108 l 1003 97 q 968 53 992 74 q 913 17 944 32 q 846 -8 882 1 q 772 -17 810 -17 q 694 -10 735 -17 q 613 15 653 -3 q 540 62 574 32 q 486 136 507 92 q 453 76 475 104 q 399 28 431 49 q 329 -5 368 7 q 246 -17 290 -17 q 108 35 161 -17 q 54 169 54 86 q 80 274 54 233 q 156 339 106 315 q 279 373 206 363 q 450 389 353 383 q 454 469 454 432 q 428 602 454 554 q 332 650 401 650 q 288 648 313 650 q 240 636 264 646 l 175 469 l 139 469 q 115 556 125 511 q 101 643 104 600 q 219 693 154 675 q 363 711 283 711 q 483 688 442 711 q 542 629 525 665 m 301 69 q 362 83 336 69 q 406 115 388 96 q 435 153 424 133 q 450 186 446 172 l 450 336 q 318 328 369 336 q 238 301 267 319 q 198 256 208 283 q 188 194 188 229 q 218 102 188 135 q 301 69 249 69 m 747 650 q 628 597 669 650 q 578 408 586 543 l 882 408 q 884 433 883 421 q 885 456 885 444 q 851 597 885 544 q 747 650 818 650 z "},"ç":{"ha":647,"x_min":57,"x_max":593,"o":"m 593 97 q 510 15 567 47 q 374 -17 453 -17 l 344 -94 q 455 -123 421 -97 q 492 -193 489 -149 q 472 -263 493 -233 q 417 -312 450 -293 q 343 -341 383 -332 q 265 -349 303 -350 l 265 -307 q 350 -279 318 -300 q 381 -215 382 -258 q 352 -165 379 -181 q 267 -146 325 -150 l 314 -11 q 121 104 185 8 q 57 347 57 200 q 143 617 57 524 q 378 711 229 711 q 499 699 446 711 q 590 668 553 688 q 575 565 586 622 q 547 471 564 508 l 510 471 l 451 636 q 429 647 442 643 q 388 650 417 650 q 242 581 293 650 q 190 349 190 513 q 205 246 190 296 q 249 156 219 196 q 324 93 279 117 q 429 69 369 69 q 514 83 478 69 q 575 117 550 97 l 593 97 z "},"è":{"ha":699,"x_min":57,"x_max":633,"o":"m 619 97 q 585 53 608 74 q 531 17 561 32 q 464 -8 500 1 q 390 -17 428 -17 q 246 9 308 -17 q 142 83 183 35 q 78 197 100 131 q 57 347 57 264 q 139 618 57 525 q 371 711 221 711 q 467 698 419 711 q 551 654 514 685 q 610 573 588 624 q 633 447 633 522 q 631 399 633 424 q 624 347 629 375 l 190 347 q 205 238 190 289 q 249 150 219 188 q 322 91 278 113 q 426 69 367 69 q 525 83 475 69 q 600 119 575 97 l 619 97 m 365 650 q 244 597 286 650 q 194 408 203 543 l 500 408 q 502 433 501 421 q 503 456 503 444 q 469 597 503 544 q 365 650 436 650 m 451 824 l 421 800 l 163 1007 l 163 1035 q 190 1048 171 1042 q 231 1058 208 1054 q 273 1065 253 1063 q 304 1065 293 1067 l 451 824 z "},"é":{"ha":699,"x_min":57,"x_max":633,"o":"m 619 97 q 585 53 608 74 q 531 17 561 32 q 464 -8 500 1 q 390 -17 428 -17 q 246 9 308 -17 q 142 83 183 35 q 78 197 100 131 q 57 347 57 264 q 139 618 57 525 q 371 711 221 711 q 467 698 419 711 q 551 654 514 685 q 610 573 588 624 q 633 447 633 522 q 631 399 633 424 q 624 347 629 375 l 190 347 q 205 238 190 289 q 249 150 219 188 q 322 91 278 113 q 426 69 367 69 q 525 83 475 69 q 600 119 575 97 l 619 97 m 365 650 q 244 597 286 650 q 194 408 203 543 l 500 408 q 502 433 501 421 q 503 456 503 444 q 469 597 503 544 q 365 650 436 650 m 447 1065 q 476 1065 458 1067 q 514 1058 494 1063 q 550 1048 533 1054 q 575 1035 567 1042 l 575 1008 l 315 799 l 285 824 l 447 1065 z "},"ê":{"ha":699,"x_min":57,"x_max":633,"o":"m 619 97 q 585 53 608 74 q 531 17 561 32 q 464 -8 500 1 q 390 -17 428 -17 q 246 9 308 -17 q 142 83 183 35 q 78 197 100 131 q 57 347 57 264 q 139 618 57 525 q 371 711 221 711 q 467 698 419 711 q 551 654 514 685 q 610 573 588 624 q 633 447 633 522 q 631 399 633 424 q 624 347 629 375 l 190 347 q 205 238 190 289 q 249 150 219 188 q 322 91 278 113 q 426 69 367 69 q 525 83 475 69 q 600 119 575 97 l 619 97 m 365 650 q 244 597 286 650 q 194 408 203 543 l 500 408 q 502 433 501 421 q 503 456 503 444 q 469 597 503 544 q 365 650 436 650 m 231 819 l 190 842 l 343 1100 q 360 1105 350 1104 q 378 1100 371 1106 l 536 843 l 499 819 l 356 968 l 231 819 z "},"ë":{"ha":699,"x_min":57,"x_max":633,"o":"m 619 97 q 585 53 608 74 q 531 17 561 32 q 464 -8 500 1 q 390 -17 428 -17 q 246 9 308 -17 q 142 83 183 35 q 78 197 100 131 q 57 347 57 264 q 139 618 57 525 q 371 711 221 711 q 467 698 419 711 q 551 654 514 685 q 610 573 588 624 q 633 447 633 522 q 631 399 633 424 q 624 347 629 375 l 190 347 q 205 238 190 289 q 249 150 219 188 q 322 91 278 113 q 426 69 367 69 q 525 83 475 69 q 600 119 575 97 l 619 97 m 365 650 q 244 597 286 650 q 194 408 203 543 l 500 408 q 502 433 501 421 q 503 456 503 444 q 469 597 503 544 q 365 650 436 650 m 129 921 q 150 974 129 954 q 204 994 171 994 q 258 974 238 994 q 279 921 279 954 q 258 869 279 889 q 204 850 238 850 q 150 869 171 850 q 129 921 129 889 m 438 921 q 458 974 438 954 q 513 994 479 994 q 567 974 546 994 q 588 921 588 954 q 567 869 588 889 q 513 850 546 850 q 458 869 479 850 q 438 921 438 889 z "},"ì":{"ha":418,"x_min":-8,"x_max":365,"o":"m 365 0 l 57 0 l 57 35 q 100 53 78 46 q 149 68 122 61 l 149 614 l 57 625 l 57 661 q 144 690 97 678 q 239 711 192 703 l 274 711 l 274 68 q 324 53 301 61 q 365 35 346 46 l 365 0 m 281 824 l 250 800 l -8 1007 l -8 1035 q 19 1048 0 1042 q 60 1058 38 1054 q 102 1065 82 1063 q 133 1065 122 1067 l 281 824 z "},"í":{"ha":418,"x_min":57,"x_max":404,"o":"m 365 0 l 57 0 l 57 35 q 100 53 78 46 q 149 68 122 61 l 149 614 l 57 625 l 57 661 q 144 690 97 678 q 239 711 192 703 l 274 711 l 274 68 q 324 53 301 61 q 365 35 346 46 l 365 0 m 276 1065 q 306 1065 288 1067 q 343 1058 324 1063 q 379 1048 363 1054 q 404 1035 396 1042 l 404 1008 l 144 799 l 114 824 l 276 1065 z "},"î":{"ha":418,"x_min":36,"x_max":382,"o":"m 365 0 l 57 0 l 57 35 q 100 53 78 46 q 149 68 122 61 l 149 614 l 57 625 l 57 661 q 144 690 97 678 q 239 711 192 703 l 274 711 l 274 68 q 324 53 301 61 q 365 35 346 46 l 365 0 m 76 819 l 36 842 l 189 1100 q 206 1105 196 1104 q 224 1100 217 1106 l 382 843 l 344 819 l 201 968 l 76 819 z "},"ï":{"ha":418,"x_min":-19,"x_max":439,"o":"m 365 0 l 57 0 l 57 35 q 100 53 78 46 q 149 68 122 61 l 149 614 l 57 625 l 57 661 q 144 690 97 678 q 239 711 192 703 l 274 711 l 274 68 q 324 53 301 61 q 365 35 346 46 l 365 0 m -19 921 q 1 974 -19 954 q 56 994 22 994 q 110 974 89 994 q 131 921 131 954 q 110 869 131 889 q 56 850 89 850 q 1 869 22 850 q -19 921 -19 889 m 289 921 q 310 974 289 954 q 364 994 331 994 q 418 974 397 994 q 439 921 439 954 q 418 869 439 889 q 364 850 397 850 q 310 869 331 850 q 289 921 289 889 z "},"ð":{"ha":743,"x_min":39,"x_max":690,"o":"m 219 839 l 378 903 q 299 970 342 940 q 210 1018 257 1000 l 210 1042 l 294 1042 q 381 1003 338 1029 q 465 939 425 978 l 618 1003 l 644 943 l 515 890 q 640 679 590 803 q 690 401 690 556 q 670 234 690 311 q 609 101 650 157 q 507 15 568 46 q 364 -17 446 -17 q 228 9 289 -17 q 126 82 168 35 q 61 194 83 129 q 39 336 39 258 q 65 500 39 429 q 134 617 92 571 q 231 688 176 664 q 340 711 285 711 q 459 688 414 711 q 536 632 504 665 q 491 742 519 685 q 422 851 463 799 l 247 779 l 219 839 m 172 336 q 185 227 172 279 q 225 135 199 175 q 288 71 251 94 q 374 47 325 47 q 453 71 418 47 q 510 138 488 94 q 545 243 533 182 q 557 381 557 304 q 552 497 557 454 q 543 558 547 540 q 477 616 522 593 q 367 639 432 639 q 227 563 282 639 q 172 336 172 488 z "},"ñ":{"ha":825,"x_min":43,"x_max":801,"o":"m 801 0 l 503 0 l 503 35 q 585 68 540 54 l 585 397 q 554 564 585 503 q 443 625 524 625 q 378 613 408 625 q 326 578 349 600 q 286 530 303 557 q 260 474 269 503 l 260 68 q 343 35 303 60 l 343 0 l 43 0 l 43 35 q 135 68 78 53 l 135 614 l 43 625 l 43 661 q 126 689 79 676 q 225 711 174 701 l 260 711 l 260 556 l 261 556 q 345 665 290 619 q 478 711 400 711 q 577 698 533 711 q 650 651 621 685 q 694 562 679 618 q 710 419 710 506 l 710 68 q 801 35 765 58 l 801 0 m 626 933 q 545 872 582 889 q 476 854 508 854 q 429 862 451 854 q 386 878 407 869 q 345 894 365 886 q 304 901 325 901 q 267 894 286 901 q 226 868 249 888 l 200 907 q 292 972 251 956 q 364 989 332 989 q 410 982 389 989 q 451 967 432 975 q 491 951 471 958 q 532 944 511 944 q 568 951 550 944 q 608 972 586 957 l 626 933 z "},"ò":{"ha":768,"x_min":57,"x_max":711,"o":"m 57 347 q 80 502 57 435 q 146 616 103 569 q 249 687 189 663 q 383 711 310 711 q 532 685 469 711 q 634 610 594 658 q 692 496 674 563 q 711 347 711 429 q 622 78 711 172 q 383 -17 533 -17 q 239 9 300 -17 q 138 83 178 35 q 77 198 97 131 q 57 347 57 265 m 190 347 q 202 229 190 285 q 240 133 214 174 q 307 68 265 92 q 407 44 349 44 q 530 118 482 44 q 578 347 578 192 q 566 466 578 411 q 529 562 554 521 q 465 626 504 603 q 372 650 426 650 q 240 576 290 650 q 190 347 190 503 m 472 824 l 442 800 l 183 1007 l 183 1035 q 210 1048 192 1042 q 251 1058 229 1054 q 294 1065 274 1063 q 325 1065 314 1067 l 472 824 z "},"ó":{"ha":768,"x_min":57,"x_max":711,"o":"m 57 347 q 80 502 57 435 q 146 616 103 569 q 249 687 189 663 q 383 711 310 711 q 532 685 469 711 q 634 610 594 658 q 692 496 674 563 q 711 347 711 429 q 622 78 711 172 q 383 -17 533 -17 q 239 9 300 -17 q 138 83 178 35 q 77 198 97 131 q 57 347 57 265 m 190 347 q 202 229 190 285 q 240 133 214 174 q 307 68 265 92 q 407 44 349 44 q 530 118 482 44 q 578 347 578 192 q 566 466 578 411 q 529 562 554 521 q 465 626 504 603 q 372 650 426 650 q 240 576 290 650 q 190 347 190 503 m 457 1065 q 486 1065 468 1067 q 524 1058 504 1063 q 560 1048 543 1054 q 585 1035 576 1042 l 585 1008 l 325 799 l 294 824 l 457 1065 z "},"ô":{"ha":768,"x_min":57,"x_max":711,"o":"m 57 347 q 80 502 57 435 q 146 616 103 569 q 249 687 189 663 q 383 711 310 711 q 532 685 469 711 q 634 610 594 658 q 692 496 674 563 q 711 347 711 429 q 622 78 711 172 q 383 -17 533 -17 q 239 9 300 -17 q 138 83 178 35 q 77 198 97 131 q 57 347 57 265 m 190 347 q 202 229 190 285 q 240 133 214 174 q 307 68 265 92 q 407 44 349 44 q 530 118 482 44 q 578 347 578 192 q 566 466 578 411 q 529 562 554 521 q 465 626 504 603 q 372 650 426 650 q 240 576 290 650 q 190 347 190 503 m 250 819 l 210 842 l 363 1100 q 380 1105 369 1104 q 397 1100 390 1106 l 556 843 l 518 819 l 375 968 l 250 819 z "},"õ":{"ha":768,"x_min":57,"x_max":711,"o":"m 57 347 q 80 502 57 435 q 146 616 103 569 q 249 687 189 663 q 383 711 310 711 q 532 685 469 711 q 634 610 594 658 q 692 496 674 563 q 711 347 711 429 q 622 78 711 172 q 383 -17 533 -17 q 239 9 300 -17 q 138 83 178 35 q 77 198 97 131 q 57 347 57 265 m 190 347 q 202 229 190 285 q 240 133 214 174 q 307 68 265 92 q 407 44 349 44 q 530 118 482 44 q 578 347 578 192 q 566 466 578 411 q 529 562 554 521 q 465 626 504 603 q 372 650 426 650 q 240 576 290 650 q 190 347 190 503 m 596 933 q 515 872 551 889 q 446 854 478 854 q 399 862 421 854 q 356 878 376 869 q 315 894 335 886 q 274 901 294 901 q 237 894 256 901 q 196 868 218 888 l 169 907 q 261 972 221 956 q 333 989 301 989 q 380 982 358 989 q 421 967 401 975 q 460 951 440 958 q 501 944 481 944 q 538 951 519 944 q 578 972 556 957 l 596 933 z "},"ö":{"ha":768,"x_min":57,"x_max":711,"o":"m 57 347 q 80 502 57 435 q 146 616 103 569 q 249 687 189 663 q 383 711 310 711 q 532 685 469 711 q 634 610 594 658 q 692 496 674 563 q 711 347 711 429 q 622 78 711 172 q 383 -17 533 -17 q 239 9 300 -17 q 138 83 178 35 q 77 198 97 131 q 57 347 57 265 m 190 347 q 202 229 190 285 q 240 133 214 174 q 307 68 265 92 q 407 44 349 44 q 530 118 482 44 q 578 347 578 192 q 566 466 578 411 q 529 562 554 521 q 465 626 504 603 q 372 650 426 650 q 240 576 290 650 q 190 347 190 503 m 154 921 q 175 974 154 954 q 229 994 196 994 q 283 974 263 994 q 304 921 304 954 q 283 869 304 889 q 229 850 263 850 q 175 869 196 850 q 154 921 154 889 m 463 921 q 483 974 463 954 q 538 994 504 994 q 592 974 571 994 q 613 921 613 954 q 592 869 613 889 q 538 850 571 850 q 483 869 504 850 q 463 921 463 889 z "},"÷":{"ha":740,"x_min":58,"x_max":683,"o":"m 58 517 l 683 517 l 683 443 l 58 443 l 58 517 m 275 743 q 301 810 275 785 q 369 835 328 835 q 439 810 413 835 q 465 743 465 785 q 439 678 465 703 q 369 653 413 653 q 301 678 328 653 q 275 743 275 703 m 275 214 q 301 281 275 256 q 369 306 328 306 q 439 281 413 306 q 465 214 465 256 q 439 149 465 174 q 369 124 413 124 q 301 149 328 124 q 275 214 275 174 z "},"ø":{"ha":768,"x_min":57,"x_max":711,"o":"m 161 57 q 83 179 108 106 q 57 347 57 253 q 80 502 57 435 q 146 616 103 569 q 249 687 189 663 q 383 711 310 711 q 561 669 490 711 l 625 768 l 678 732 l 613 633 q 687 512 663 585 q 711 347 711 439 q 622 78 711 172 q 383 -17 533 -17 q 291 -7 333 -17 q 214 21 249 3 l 144 -86 l 92 -49 l 161 57 m 190 347 q 199 245 190 293 q 228 158 208 197 l 508 590 q 450 635 483 619 q 372 650 417 650 q 240 576 289 650 q 190 347 190 503 m 578 347 q 569 444 578 399 q 543 529 561 490 l 265 99 q 407 44 315 44 q 530 118 482 44 q 578 347 578 192 z "},"ù":{"ha":797,"x_min":24,"x_max":763,"o":"m 107 275 q 111 447 107 363 q 115 614 115 531 l 24 625 l 24 661 q 115 690 68 678 q 206 711 161 703 l 240 711 q 236 504 240 607 q 232 300 232 401 q 238 203 232 246 q 260 131 244 160 q 304 85 276 101 q 375 69 332 69 q 480 115 438 69 q 546 232 522 160 l 546 614 l 456 625 l 456 661 q 545 690 499 678 q 636 711 592 703 l 671 711 l 671 79 l 763 68 l 763 39 q 681 7 722 21 q 596 -14 640 -7 l 561 -14 l 551 151 l 546 151 q 522 92 539 122 q 476 38 504 63 q 413 -1 449 14 q 336 -17 378 -17 q 238 -3 281 -17 q 167 43 196 10 q 122 133 138 76 q 107 275 107 189 m 488 824 l 457 800 l 199 1007 l 199 1035 q 226 1048 207 1042 q 267 1058 244 1054 q 309 1065 289 1063 q 340 1065 329 1067 l 488 824 z "},"ú":{"ha":797,"x_min":24,"x_max":763,"o":"m 107 275 q 111 447 107 363 q 115 614 115 531 l 24 625 l 24 661 q 115 690 68 678 q 206 711 161 703 l 240 711 q 236 504 240 607 q 232 300 232 401 q 238 203 232 246 q 260 131 244 160 q 304 85 276 101 q 375 69 332 69 q 480 115 438 69 q 546 232 522 160 l 546 614 l 456 625 l 456 661 q 545 690 499 678 q 636 711 592 703 l 671 711 l 671 79 l 763 68 l 763 39 q 681 7 722 21 q 596 -14 640 -7 l 561 -14 l 551 151 l 546 151 q 522 92 539 122 q 476 38 504 63 q 413 -1 449 14 q 336 -17 378 -17 q 238 -3 281 -17 q 167 43 196 10 q 122 133 138 76 q 107 275 107 189 m 469 1065 q 499 1065 481 1067 q 536 1058 517 1063 q 572 1048 556 1054 q 597 1035 589 1042 l 597 1008 l 338 799 l 307 824 l 469 1065 z "},"û":{"ha":797,"x_min":24,"x_max":763,"o":"m 107 275 q 111 447 107 363 q 115 614 115 531 l 24 625 l 24 661 q 115 690 68 678 q 206 711 161 703 l 240 711 q 236 504 240 607 q 232 300 232 401 q 238 203 232 246 q 260 131 244 160 q 304 85 276 101 q 375 69 332 69 q 480 115 438 69 q 546 232 522 160 l 546 614 l 456 625 l 456 661 q 545 690 499 678 q 636 711 592 703 l 671 711 l 671 79 l 763 68 l 763 39 q 681 7 722 21 q 596 -14 640 -7 l 561 -14 l 551 151 l 546 151 q 522 92 539 122 q 476 38 504 63 q 413 -1 449 14 q 336 -17 378 -17 q 238 -3 281 -17 q 167 43 196 10 q 122 133 138 76 q 107 275 107 189 m 264 819 l 224 842 l 376 1100 q 394 1105 383 1104 q 411 1100 404 1106 l 569 843 l 532 819 l 389 968 l 264 819 z "},"ü":{"ha":797,"x_min":24,"x_max":763,"o":"m 107 275 q 111 447 107 363 q 115 614 115 531 l 24 625 l 24 661 q 115 690 68 678 q 206 711 161 703 l 240 711 q 236 504 240 607 q 232 300 232 401 q 238 203 232 246 q 260 131 244 160 q 304 85 276 101 q 375 69 332 69 q 480 115 438 69 q 546 232 522 160 l 546 614 l 456 625 l 456 661 q 545 690 499 678 q 636 711 592 703 l 671 711 l 671 79 l 763 68 l 763 39 q 681 7 722 21 q 596 -14 640 -7 l 561 -14 l 551 151 l 546 151 q 522 92 539 122 q 476 38 504 63 q 413 -1 449 14 q 336 -17 378 -17 q 238 -3 281 -17 q 167 43 196 10 q 122 133 138 76 q 107 275 107 189 m 168 921 q 189 974 168 954 q 243 994 210 994 q 297 974 276 994 q 318 921 318 954 q 297 869 318 889 q 243 850 276 850 q 189 869 210 850 q 168 921 168 889 m 476 921 q 497 974 476 954 q 551 994 518 994 q 606 974 585 994 q 626 921 626 954 q 606 869 626 889 q 551 850 585 850 q 497 869 518 850 q 476 921 476 889 z "},"ý":{"ha":701,"x_min":-15,"x_max":717,"o":"m 58 625 q 20 639 38 631 q -15 658 3 647 l -15 694 l 275 694 l 275 660 q 196 625 246 640 l 374 214 l 400 128 l 403 128 l 424 215 l 556 625 q 479 658 514 633 l 479 694 l 717 694 l 717 658 q 638 625 688 639 l 421 0 q 358 -144 388 -89 q 298 -231 328 -199 q 237 -277 268 -262 q 169 -299 206 -292 q 142 -240 154 -272 q 122 -179 131 -208 l 140 -146 l 285 -146 q 299 -124 293 -135 q 313 -99 306 -114 q 328 -60 319 -83 q 347 0 336 -36 l 58 625 m 438 1065 q 467 1065 449 1067 q 504 1058 485 1063 q 540 1048 524 1054 q 565 1035 557 1042 l 565 1008 l 306 799 l 275 824 l 438 1065 z "},"þ":{"ha":786,"x_min":26,"x_max":726,"o":"m 132 947 l 26 958 l 26 994 q 117 1024 63 1011 q 222 1044 171 1036 l 257 1044 l 257 556 l 258 556 q 336 669 286 626 q 467 711 386 711 q 658 629 590 711 q 726 363 726 547 q 703 204 726 275 q 638 85 681 133 q 535 10 596 36 q 401 -17 475 -17 q 321 -10 350 -17 q 257 11 292 -4 l 257 -210 q 301 -220 279 -212 q 349 -243 324 -228 l 349 -278 l 40 -278 l 40 -243 q 132 -210 88 -221 l 132 947 m 422 625 q 314 582 354 625 q 257 464 274 539 l 257 75 q 313 52 282 60 q 394 44 344 44 q 477 68 440 44 q 540 135 514 92 q 579 235 565 178 q 593 363 593 293 q 584 467 593 419 q 555 551 575 515 q 502 606 535 586 q 422 625 469 625 z "},"ÿ":{"ha":701,"x_min":-15,"x_max":717,"o":"m 58 625 q 20 639 38 631 q -15 658 3 647 l -15 694 l 275 694 l 275 660 q 196 625 246 640 l 374 214 l 400 128 l 403 128 l 424 215 l 556 625 q 479 658 514 633 l 479 694 l 717 694 l 717 658 q 638 625 688 639 l 421 0 q 358 -144 388 -89 q 298 -231 328 -199 q 237 -277 268 -262 q 169 -299 206 -292 q 142 -240 154 -272 q 122 -179 131 -208 l 140 -146 l 285 -146 q 299 -124 293 -135 q 313 -99 306 -114 q 328 -60 319 -83 q 347 0 336 -36 l 58 625 m 136 921 q 157 974 136 954 q 211 994 178 994 q 265 974 244 994 q 286 921 286 954 q 265 869 286 889 q 211 850 244 850 q 157 869 178 850 q 136 921 136 889 m 444 921 q 465 974 444 954 q 519 994 486 994 q 574 974 553 994 q 594 921 594 954 q 574 869 594 889 q 519 850 553 850 q 465 869 486 850 q 444 921 444 889 z "},"Ā":{"ha":949,"x_min":0,"x_max":949,"o":"m 308 0 l 0 0 l 0 40 q 100 74 50 63 l 451 989 l 492 989 l 843 74 q 898 61 871 68 q 949 40 925 54 l 949 0 l 593 0 l 593 40 q 650 60 621 51 q 707 74 679 68 l 613 328 l 281 328 l 189 74 q 308 40 247 65 l 308 0 m 308 400 l 589 400 l 479 694 l 453 814 l 450 814 l 415 692 l 308 400 m 267 1094 l 267 1167 l 685 1167 l 685 1094 l 267 1094 z "},"ā":{"ha":701,"x_min":54,"x_max":669,"o":"m 569 182 q 571 129 569 151 q 574 82 572 107 l 669 68 l 669 39 q 592 7 635 21 q 511 -14 550 -7 l 476 -14 q 460 56 463 18 q 456 140 457 94 l 449 140 q 427 84 443 113 q 385 33 411 56 q 325 -3 360 11 q 246 -17 290 -17 q 108 35 161 -17 q 54 169 54 86 q 80 274 54 233 q 156 339 106 315 q 279 373 206 363 q 450 389 353 383 q 453 497 456 449 q 438 578 451 544 q 399 631 425 613 q 332 650 374 650 q 288 648 313 650 q 240 636 264 646 l 175 469 l 139 469 q 115 556 125 511 q 101 643 104 600 q 219 693 154 675 q 363 711 283 711 q 476 691 433 711 q 540 639 518 671 q 569 568 563 607 q 576 490 576 529 q 573 330 576 407 q 569 182 569 253 m 301 69 q 363 83 336 69 q 407 117 389 97 q 436 156 425 136 q 451 190 447 176 l 451 336 q 319 328 371 336 q 239 301 268 319 q 199 256 210 283 q 188 194 188 229 q 218 102 188 135 q 301 69 249 69 m 174 885 l 174 957 l 525 957 l 525 885 l 174 885 z "},"Ă":{"ha":949,"x_min":0,"x_max":949,"o":"m 308 0 l 0 0 l 0 40 q 100 74 50 63 l 451 989 l 492 989 l 843 74 q 898 61 871 68 q 949 40 925 54 l 949 0 l 593 0 l 593 40 q 650 60 621 51 q 707 74 679 68 l 613 328 l 281 328 l 189 74 q 308 40 247 65 l 308 0 m 308 400 l 589 400 l 479 694 l 453 814 l 450 814 l 415 692 l 308 400 m 640 1226 q 685 1207 663 1229 q 652 1149 672 1176 q 605 1100 632 1121 q 546 1067 578 1079 q 479 1054 514 1054 q 348 1094 404 1054 q 265 1210 292 1135 q 324 1231 282 1236 q 351 1199 333 1214 q 390 1174 368 1185 q 436 1158 413 1164 q 481 1151 460 1151 q 569 1167 525 1150 q 640 1226 613 1183 z "},"ă":{"ha":701,"x_min":54,"x_max":669,"o":"m 569 182 q 571 129 569 151 q 574 82 572 107 l 669 68 l 669 39 q 592 7 635 21 q 511 -14 550 -7 l 476 -14 q 460 56 463 18 q 456 140 457 94 l 449 140 q 427 84 443 113 q 385 33 411 56 q 325 -3 360 11 q 246 -17 290 -17 q 108 35 161 -17 q 54 169 54 86 q 80 274 54 233 q 156 339 106 315 q 279 373 206 363 q 450 389 353 383 q 453 497 456 449 q 438 578 451 544 q 399 631 425 613 q 332 650 374 650 q 288 648 313 650 q 240 636 264 646 l 175 469 l 139 469 q 115 556 125 511 q 101 643 104 600 q 219 693 154 675 q 363 711 283 711 q 476 691 433 711 q 540 639 518 671 q 569 568 563 607 q 576 490 576 529 q 573 330 576 407 q 569 182 569 253 m 301 69 q 363 83 336 69 q 407 117 389 97 q 436 156 425 136 q 451 190 447 176 l 451 336 q 319 328 371 336 q 239 301 268 319 q 199 256 210 283 q 188 194 188 229 q 218 102 188 135 q 301 69 249 69 m 539 999 q 509 938 526 968 q 468 883 492 907 q 416 844 444 860 q 353 829 388 829 q 286 842 315 829 q 233 878 257 856 q 192 933 210 901 q 161 1001 174 964 l 200 1019 q 227 985 210 1001 q 265 957 244 969 q 310 937 286 944 q 354 929 333 929 q 506 1014 449 926 l 539 999 z "},"Ą":{"ha":949,"x_min":0,"x_max":949,"o":"m 308 0 l 0 0 l 0 40 q 100 74 50 63 l 451 989 l 492 989 l 843 74 q 898 61 871 68 q 949 40 925 54 l 949 0 l 890 0 q 790 -80 831 -33 q 750 -187 750 -126 q 775 -251 750 -226 q 843 -276 800 -276 q 919 -268 886 -276 l 919 -308 q 869 -336 900 -324 q 793 -349 839 -349 q 733 -339 761 -349 q 683 -311 704 -329 q 649 -267 661 -293 q 636 -211 636 -242 q 649 -145 636 -175 q 686 -90 663 -115 q 742 -42 710 -64 q 814 0 775 -21 l 593 0 l 593 40 q 650 60 621 51 q 707 74 679 68 l 613 328 l 281 328 l 189 74 q 308 40 247 65 l 308 0 m 308 400 l 589 400 l 479 694 l 453 814 l 450 814 l 415 692 l 308 400 z "},"ą":{"ha":701,"x_min":54,"x_max":669,"o":"m 569 182 q 571 129 569 151 q 574 82 572 107 l 669 68 l 669 39 q 650 29 660 33 q 629 21 640 25 q 527 -56 568 -11 q 486 -164 486 -101 q 491 -192 486 -178 q 506 -219 496 -207 q 531 -240 515 -232 q 567 -247 546 -247 q 603 -244 586 -247 q 640 -235 621 -240 l 640 -281 q 591 -300 621 -292 q 536 -308 561 -308 q 411 -274 453 -308 q 369 -186 369 -239 q 406 -88 369 -131 q 500 -14 442 -46 l 489 -14 l 476 -14 q 460 56 463 18 q 456 140 457 94 l 449 140 q 427 84 443 113 q 385 33 411 56 q 325 -3 360 11 q 246 -17 290 -17 q 108 35 161 -17 q 54 169 54 86 q 80 274 54 233 q 156 339 106 315 q 279 373 206 363 q 450 389 353 383 q 453 497 456 449 q 438 578 451 544 q 399 631 425 613 q 332 650 374 650 q 288 648 313 650 q 240 636 264 646 l 175 469 l 139 469 q 115 556 125 511 q 101 643 104 600 q 219 693 154 675 q 363 711 283 711 q 476 691 433 711 q 540 639 518 671 q 569 568 563 607 q 576 490 576 529 q 573 330 576 407 q 569 182 569 253 m 301 69 q 363 83 336 69 q 407 117 389 97 q 436 156 425 136 q 451 190 447 176 l 451 336 q 319 328 371 336 q 239 301 268 319 q 199 256 210 283 q 188 194 188 229 q 218 102 188 135 q 301 69 249 69 z "},"Ć":{"ha":894,"x_min":74,"x_max":814,"o":"m 760 253 l 796 253 q 808 155 803 214 q 811 40 814 96 q 761 13 790 24 q 699 -4 732 3 q 633 -14 667 -11 q 568 -17 599 -17 q 360 13 451 -17 q 205 104 268 43 q 108 260 142 165 q 74 486 74 356 q 111 717 74 622 q 213 873 149 813 q 361 961 276 933 q 539 989 446 989 q 693 977 631 989 q 803 942 756 965 q 801 890 803 919 q 797 826 800 860 q 790 761 794 793 q 782 703 786 729 l 746 703 l 674 903 q 623 914 658 911 q 553 917 588 917 q 422 891 483 917 q 313 812 360 865 q 239 677 267 758 q 211 486 211 596 q 236 308 211 388 q 308 172 261 228 q 424 85 356 115 q 578 56 492 56 q 654 63 624 56 q 694 81 685 69 l 760 253 m 611 1240 q 643 1239 624 1242 q 683 1230 663 1236 q 720 1215 703 1224 q 746 1196 738 1206 l 746 1168 l 432 1042 l 408 1068 l 611 1240 z "},"ć":{"ha":647,"x_min":57,"x_max":593,"o":"m 593 97 q 512 16 568 49 q 381 -17 456 -17 q 238 9 299 -17 q 138 83 178 35 q 77 198 97 131 q 57 347 57 265 q 143 617 57 524 q 378 711 229 711 q 499 699 446 711 q 590 668 553 688 q 575 565 586 622 q 547 471 564 508 l 510 471 l 451 636 q 429 647 442 643 q 388 650 417 650 q 242 581 293 650 q 190 349 190 513 q 205 246 190 296 q 249 156 219 196 q 324 93 279 117 q 429 69 369 69 q 514 83 478 69 q 575 117 550 97 l 593 97 m 438 1065 q 467 1065 449 1067 q 504 1058 485 1063 q 540 1048 524 1054 q 565 1035 557 1042 l 565 1008 l 306 799 l 275 824 l 438 1065 z "},"Ĉ":{"ha":894,"x_min":74,"x_max":814,"o":"m 760 253 l 796 253 q 808 155 803 214 q 811 40 814 96 q 761 13 790 24 q 699 -4 732 3 q 633 -14 667 -11 q 568 -17 599 -17 q 360 13 451 -17 q 205 104 268 43 q 108 260 142 165 q 74 486 74 356 q 111 717 74 622 q 213 873 149 813 q 361 961 276 933 q 539 989 446 989 q 693 977 631 989 q 803 942 756 965 q 801 890 803 919 q 797 826 800 860 q 790 761 794 793 q 782 703 786 729 l 746 703 l 674 903 q 623 914 658 911 q 553 917 588 917 q 422 891 483 917 q 313 812 360 865 q 239 677 267 758 q 211 486 211 596 q 236 308 211 388 q 308 172 261 228 q 424 85 356 115 q 578 56 492 56 q 654 63 624 56 q 694 81 685 69 l 760 253 m 342 1044 l 322 1071 l 499 1226 q 516 1231 506 1231 q 535 1226 526 1232 l 708 1075 l 688 1046 l 511 1124 l 342 1044 z "},"ĉ":{"ha":647,"x_min":57,"x_max":593,"o":"m 593 97 q 512 16 568 49 q 381 -17 456 -17 q 238 9 299 -17 q 138 83 178 35 q 77 198 97 131 q 57 347 57 265 q 143 617 57 524 q 378 711 229 711 q 499 699 446 711 q 590 668 553 688 q 575 565 586 622 q 547 471 564 508 l 510 471 l 451 636 q 429 647 442 643 q 388 650 417 650 q 242 581 293 650 q 190 349 190 513 q 205 246 190 296 q 249 156 219 196 q 324 93 279 117 q 429 69 369 69 q 514 83 478 69 q 575 117 550 97 l 593 97 m 232 819 l 192 842 l 344 1100 q 362 1105 351 1104 q 379 1100 372 1106 l 538 843 l 500 819 l 357 968 l 232 819 z "},"Č":{"ha":894,"x_min":74,"x_max":814,"o":"m 760 253 l 796 253 q 808 155 803 214 q 811 40 814 96 q 761 13 790 24 q 699 -4 732 3 q 633 -14 667 -11 q 568 -17 599 -17 q 360 13 451 -17 q 205 104 268 43 q 108 260 142 165 q 74 486 74 356 q 111 717 74 622 q 213 873 149 813 q 361 961 276 933 q 539 989 446 989 q 693 977 631 989 q 803 942 756 965 q 801 890 803 919 q 797 826 800 860 q 790 761 794 793 q 782 703 786 729 l 746 703 l 674 903 q 623 914 658 911 q 553 917 588 917 q 422 891 483 917 q 313 812 360 865 q 239 677 267 758 q 211 486 211 596 q 236 308 211 388 q 308 172 261 228 q 424 85 356 115 q 578 56 492 56 q 654 63 624 56 q 694 81 685 69 l 760 253 m 693 1233 q 714 1226 704 1233 q 728 1210 724 1219 l 551 1054 q 534 1051 544 1051 q 515 1054 524 1050 l 342 1206 q 355 1224 347 1215 q 376 1233 363 1233 l 539 1157 l 693 1233 z "},"č":{"ha":647,"x_min":57,"x_max":593,"o":"m 593 97 q 512 16 568 49 q 381 -17 456 -17 q 238 9 299 -17 q 138 83 178 35 q 77 198 97 131 q 57 347 57 265 q 143 617 57 524 q 378 711 229 711 q 499 699 446 711 q 590 668 553 688 q 575 565 586 622 q 547 471 564 508 l 510 471 l 451 636 q 429 647 442 643 q 388 650 417 650 q 242 581 293 650 q 190 349 190 513 q 205 246 190 296 q 249 156 219 196 q 324 93 279 117 q 429 69 369 69 q 514 83 478 69 q 575 117 550 97 l 593 97 m 499 1106 q 523 1100 511 1107 q 539 1083 535 1093 l 367 826 q 350 823 360 824 q 332 826 340 822 l 164 1082 q 183 1100 169 1093 q 211 1106 197 1107 l 360 958 l 499 1106 z "},"Ď":{"ha":983,"x_min":40,"x_max":911,"o":"m 40 0 l 40 40 q 154 74 89 63 l 154 897 q 93 913 122 904 q 40 932 64 922 l 40 972 l 182 972 q 238 974 206 972 q 303 977 269 975 q 369 981 338 979 q 421 983 400 983 q 784 857 657 983 q 911 499 911 731 q 880 295 911 389 q 785 133 849 201 q 623 26 721 65 q 392 -12 525 -12 q 344 -10 371 -12 q 289 -6 318 -8 q 230 -2 260 -4 q 174 0 200 0 l 40 0 m 401 911 q 332 910 365 911 q 279 906 299 910 l 279 64 q 304 62 286 63 q 343 60 322 61 q 383 60 364 60 q 410 60 401 60 q 572 96 506 60 q 681 192 639 132 q 743 332 724 253 q 763 499 763 411 q 744 640 763 567 q 683 773 725 713 q 571 872 640 833 q 401 911 501 911 m 572 1233 q 593 1226 583 1233 q 607 1210 603 1219 l 431 1054 q 413 1051 424 1051 q 394 1054 403 1050 l 221 1206 q 234 1224 226 1215 q 256 1233 242 1233 l 418 1157 l 572 1233 z "},"ď":{"ha":771,"x_min":57,"x_max":893,"o":"m 518 138 q 494 79 511 107 q 453 30 478 51 q 398 -4 429 8 q 331 -17 367 -17 q 125 71 193 -17 q 57 343 57 158 q 144 614 57 521 q 378 707 231 707 q 458 702 429 707 q 522 685 488 697 l 522 947 l 417 958 l 417 994 q 510 1024 457 1011 q 613 1044 564 1036 l 647 1044 l 647 79 l 739 68 l 739 39 q 656 6 699 19 q 571 -14 613 -8 l 536 -14 l 524 138 l 518 138 m 358 69 q 467 113 426 69 q 522 229 507 156 l 522 621 q 467 640 499 635 q 385 646 435 646 q 240 563 290 646 q 190 343 190 481 q 200 237 190 286 q 231 150 210 188 q 283 91 251 113 q 358 69 314 69 m 704 754 q 749 890 733 817 q 764 1019 764 963 l 781 1042 q 806 1041 790 1043 q 839 1034 822 1039 q 870 1023 856 1029 q 893 1010 885 1017 q 869 931 886 971 q 828 856 851 892 q 780 790 806 819 q 732 739 754 760 l 704 754 z "},"Đ":{"ha":985,"x_min":31,"x_max":911,"o":"m 31 533 l 154 533 l 154 897 q 93 913 122 904 q 40 932 64 922 l 40 972 l 182 972 q 238 974 206 972 q 303 977 269 975 q 369 981 338 979 q 421 983 400 983 q 630 951 539 983 q 783 856 721 918 q 878 704 846 794 q 911 499 911 614 q 880 295 911 389 q 785 133 849 201 q 623 26 721 65 q 392 -12 525 -12 q 345 -10 372 -12 q 289 -6 318 -8 q 230 -2 260 -4 q 174 0 200 0 l 40 0 l 40 40 q 154 74 89 63 l 154 461 l 31 461 l 31 533 m 401 911 q 332 910 365 911 q 279 906 299 910 l 279 533 l 511 533 l 511 461 l 279 461 l 279 64 q 305 62 286 63 q 344 60 324 61 q 384 60 365 60 q 411 60 403 60 q 574 96 507 60 q 682 192 640 132 q 743 332 724 253 q 763 499 763 411 q 744 640 763 567 q 683 773 725 713 q 572 872 640 833 q 401 911 503 911 z "},"đ":{"ha":771,"x_min":57,"x_max":775,"o":"m 310 865 l 522 865 l 522 947 l 417 958 l 417 994 q 510 1024 457 1011 q 613 1044 564 1036 l 647 1044 l 647 865 l 775 865 l 775 793 l 647 793 l 647 79 l 739 68 l 739 39 q 656 6 699 19 q 571 -14 613 -8 l 536 -14 l 524 138 l 518 138 q 494 79 511 107 q 453 30 478 51 q 398 -4 429 8 q 331 -17 367 -17 q 125 71 193 -17 q 57 343 57 158 q 144 614 57 521 q 378 707 231 707 q 458 702 429 707 q 522 685 488 697 l 522 793 l 310 793 l 310 865 m 358 69 q 467 113 426 69 q 522 229 507 156 l 522 621 q 467 640 499 635 q 385 646 435 646 q 240 563 290 646 q 190 343 190 481 q 200 237 190 286 q 231 150 210 188 q 283 91 251 113 q 358 69 314 69 z "},"Ē":{"ha":808,"x_min":40,"x_max":728,"o":"m 699 972 q 694 860 697 917 q 683 747 690 804 l 647 747 l 590 900 l 288 900 l 288 532 l 514 532 l 568 635 l 603 635 q 603 354 611 497 l 568 354 l 514 460 l 288 460 l 288 72 l 607 72 l 675 239 l 710 239 q 724 121 719 181 q 725 0 728 61 l 40 0 l 40 40 q 154 74 89 63 l 154 897 q 97 912 126 903 q 40 932 68 921 l 40 972 l 699 972 m 210 1094 l 210 1167 l 628 1167 l 628 1094 l 210 1094 z "},"ē":{"ha":699,"x_min":57,"x_max":633,"o":"m 619 97 q 585 53 608 74 q 531 17 561 32 q 464 -8 500 1 q 390 -17 428 -17 q 246 9 308 -17 q 142 83 183 35 q 78 197 100 131 q 57 347 57 264 q 139 618 57 525 q 371 711 221 711 q 467 698 419 711 q 551 654 514 685 q 610 573 588 624 q 633 447 633 522 q 631 399 633 424 q 624 347 629 375 l 190 347 q 205 238 190 289 q 249 150 219 188 q 322 91 278 113 q 426 69 367 69 q 525 83 475 69 q 600 119 575 97 l 619 97 m 365 650 q 244 597 286 650 q 194 408 203 543 l 500 408 q 502 433 501 421 q 503 456 503 444 q 469 597 503 544 q 365 650 436 650 m 186 885 l 186 957 l 538 957 l 538 885 l 186 885 z "},"Ė":{"ha":808,"x_min":40,"x_max":728,"o":"m 699 972 q 694 860 697 917 q 683 747 690 804 l 647 747 l 590 900 l 288 900 l 288 532 l 514 532 l 568 635 l 603 635 q 603 354 611 497 l 568 354 l 514 460 l 288 460 l 288 72 l 607 72 l 675 239 l 710 239 q 724 121 719 181 q 725 0 728 61 l 40 0 l 40 40 q 154 74 89 63 l 154 897 q 97 912 126 903 q 40 932 68 921 l 40 972 l 699 972 m 314 1135 q 340 1190 314 1171 q 404 1210 367 1210 q 467 1190 442 1210 q 492 1135 492 1171 q 467 1079 492 1099 q 404 1060 442 1060 q 340 1079 367 1060 q 314 1135 314 1099 z "},"ė":{"ha":699,"x_min":57,"x_max":633,"o":"m 619 97 q 585 53 608 74 q 531 17 561 32 q 464 -8 500 1 q 390 -17 428 -17 q 246 9 308 -17 q 142 83 183 35 q 78 197 100 131 q 57 347 57 264 q 139 618 57 525 q 371 711 221 711 q 467 698 419 711 q 551 654 514 685 q 610 573 588 624 q 633 447 633 522 q 631 399 633 424 q 624 347 629 375 l 190 347 q 205 238 190 289 q 249 150 219 188 q 322 91 278 113 q 426 69 367 69 q 525 83 475 69 q 600 119 575 97 l 619 97 m 365 650 q 244 597 286 650 q 194 408 203 543 l 500 408 q 502 433 501 421 q 503 456 503 444 q 469 597 503 544 q 365 650 436 650 m 272 931 q 297 990 272 968 q 361 1013 321 1013 q 425 990 401 1013 q 449 931 449 968 q 425 872 449 893 q 361 850 401 850 q 297 872 321 850 q 272 931 272 893 z "},"Ę":{"ha":808,"x_min":40,"x_max":725,"o":"m 699 972 q 694 860 697 917 q 683 747 690 804 l 647 747 l 590 900 l 288 900 l 288 532 l 514 532 l 568 635 l 603 635 q 603 354 611 497 l 568 354 l 514 460 l 288 460 l 288 72 l 607 72 l 675 239 l 710 239 q 717 188 714 221 q 723 119 721 156 q 725 51 725 83 q 725 0 725 18 l 664 0 q 565 -80 606 -33 q 524 -187 524 -126 q 549 -251 524 -226 q 618 -276 574 -276 q 694 -268 661 -276 l 694 -308 q 644 -336 675 -324 q 568 -349 613 -349 q 507 -339 536 -349 q 456 -311 478 -329 q 422 -267 435 -293 q 410 -211 410 -242 q 423 -145 410 -175 q 460 -90 436 -115 q 517 -42 485 -64 q 589 0 550 -21 l 40 0 l 40 40 q 154 74 89 63 l 154 897 q 97 912 126 903 q 40 932 68 921 l 40 972 l 699 972 z "},"ę":{"ha":699,"x_min":57,"x_max":642,"o":"m 619 97 q 576 46 606 69 q 510 7 547 22 q 424 -66 457 -24 q 390 -164 390 -108 q 394 -192 390 -178 q 408 -219 399 -207 q 433 -240 418 -232 q 471 -247 449 -247 q 508 -244 490 -247 q 544 -235 525 -240 l 544 -281 q 495 -300 525 -292 q 440 -308 465 -308 q 315 -274 357 -308 q 274 -186 274 -239 q 308 -90 274 -132 q 399 -17 343 -49 q 143 79 229 -17 q 57 347 57 175 q 139 618 57 525 q 371 711 221 711 q 480 694 426 711 q 572 634 533 676 q 626 522 610 592 q 624 347 642 451 l 190 347 q 205 238 190 289 q 249 150 219 188 q 322 91 278 113 q 426 69 367 69 q 525 83 475 69 q 600 119 575 97 l 619 97 m 365 650 q 244 597 286 650 q 194 408 203 543 l 500 408 q 477 583 510 517 q 365 650 444 650 z "},"Ě":{"ha":808,"x_min":40,"x_max":728,"o":"m 699 972 q 694 860 697 917 q 683 747 690 804 l 647 747 l 590 900 l 288 900 l 288 532 l 514 532 l 568 635 l 603 635 q 603 354 611 497 l 568 354 l 514 460 l 288 460 l 288 72 l 607 72 l 675 239 l 710 239 q 724 121 719 181 q 725 0 728 61 l 40 0 l 40 40 q 154 74 89 63 l 154 897 q 97 912 126 903 q 40 932 68 921 l 40 972 l 699 972 m 568 1233 q 589 1226 579 1233 q 603 1210 599 1219 l 426 1054 q 409 1051 419 1051 q 390 1054 399 1050 l 217 1206 q 230 1224 222 1215 q 251 1233 238 1233 l 414 1157 l 568 1233 z "},"ě":{"ha":699,"x_min":57,"x_max":633,"o":"m 619 97 q 585 53 608 74 q 531 17 561 32 q 464 -8 500 1 q 390 -17 428 -17 q 246 9 308 -17 q 142 83 183 35 q 78 197 100 131 q 57 347 57 264 q 139 618 57 525 q 371 711 221 711 q 467 698 419 711 q 551 654 514 685 q 610 573 588 624 q 633 447 633 522 q 631 399 633 424 q 624 347 629 375 l 190 347 q 205 238 190 289 q 249 150 219 188 q 322 91 278 113 q 426 69 367 69 q 525 83 475 69 q 600 119 575 97 l 619 97 m 365 650 q 244 597 286 650 q 194 408 203 543 l 500 408 q 502 433 501 421 q 503 456 503 444 q 469 597 503 544 q 365 650 436 650 m 497 1106 q 522 1100 510 1107 q 538 1083 533 1093 l 365 826 q 349 823 358 824 q 331 826 339 822 l 163 1082 q 182 1100 168 1093 q 210 1106 196 1107 l 358 958 l 497 1106 z "},"Ĝ":{"ha":956,"x_min":74,"x_max":932,"o":"m 846 67 q 784 37 819 51 q 709 10 749 22 q 630 -9 669 -1 q 556 -17 590 -17 q 356 13 444 -17 q 204 105 267 43 q 108 261 142 167 q 74 486 74 356 q 113 718 74 622 q 219 874 153 814 q 369 962 285 935 q 540 989 453 989 q 695 977 632 989 q 806 942 758 965 q 804 890 806 921 q 800 826 803 860 q 793 760 797 793 q 785 703 789 728 l 749 703 l 676 903 q 625 914 661 911 q 554 917 589 917 q 422 891 485 917 q 313 812 360 865 q 239 677 267 758 q 211 486 211 596 q 238 308 211 388 q 313 173 265 229 q 426 86 361 117 q 565 56 490 56 q 619 61 593 56 q 668 74 646 67 q 705 90 690 82 q 725 104 719 99 l 725 385 q 656 397 689 388 q 592 418 624 407 l 592 458 l 932 458 l 932 418 q 899 400 918 408 q 846 385 879 392 l 846 67 m 344 1044 l 325 1071 l 501 1226 q 519 1231 508 1231 q 538 1226 529 1232 l 711 1075 l 690 1046 l 514 1124 l 344 1044 z "},"ĝ":{"ha":731,"x_min":42,"x_max":747,"o":"m 343 711 q 469 697 418 711 q 556 651 521 682 q 726 732 638 707 q 742 694 738 717 q 747 653 747 672 l 729 619 l 583 619 q 618 488 618 569 q 548 325 618 388 q 343 263 478 263 q 300 264 317 263 q 263 268 283 265 q 247 240 256 256 q 238 208 238 225 q 269 165 238 181 q 349 136 301 149 q 453 110 397 124 q 558 74 510 97 q 640 15 607 51 q 674 -81 672 -22 q 651 -171 675 -131 q 583 -238 626 -211 q 480 -280 540 -265 q 347 -294 419 -294 q 119 -243 196 -294 q 42 -114 42 -192 q 53 -49 42 -76 q 88 0 65 -21 q 143 37 110 21 q 219 67 176 53 q 169 105 189 81 q 149 164 149 129 q 176 227 149 196 q 231 276 203 258 q 109 356 151 297 q 67 488 67 414 q 85 576 67 535 q 138 647 103 617 q 224 694 172 678 q 343 711 275 711 m 549 -112 q 519 -42 549 -68 q 444 1 489 -15 q 349 29 400 18 q 253 54 297 40 q 183 -13 200 22 q 167 -86 167 -49 q 219 -197 167 -160 q 372 -233 272 -233 q 458 -224 424 -233 q 512 -198 492 -214 q 540 -160 532 -182 q 549 -112 549 -137 m 192 488 q 199 424 192 454 q 224 372 207 394 q 271 337 242 350 q 343 324 300 324 q 458 371 424 324 q 493 488 493 418 q 459 606 493 563 q 343 650 425 650 q 225 608 258 650 q 192 488 192 565 m 207 819 l 167 842 l 319 1100 q 337 1105 326 1104 q 354 1100 347 1106 l 513 843 l 475 819 l 332 968 l 207 819 z "},"Ğ":{"ha":956,"x_min":74,"x_max":932,"o":"m 846 67 q 784 37 819 51 q 709 10 749 22 q 630 -9 669 -1 q 556 -17 590 -17 q 356 13 444 -17 q 204 105 267 43 q 108 261 142 167 q 74 486 74 356 q 113 718 74 622 q 219 874 153 814 q 369 962 285 935 q 540 989 453 989 q 695 977 632 989 q 806 942 758 965 q 804 890 806 921 q 800 826 803 860 q 793 760 797 793 q 785 703 789 728 l 749 703 l 676 903 q 625 914 661 911 q 554 917 589 917 q 422 891 485 917 q 313 812 360 865 q 239 677 267 758 q 211 486 211 596 q 238 308 211 388 q 313 173 265 229 q 426 86 361 117 q 565 56 490 56 q 619 61 593 56 q 668 74 646 67 q 705 90 690 82 q 725 104 719 99 l 725 385 q 656 397 689 388 q 592 418 624 407 l 592 458 l 932 458 l 932 418 q 899 400 918 408 q 846 385 879 392 l 846 67 m 715 1226 q 760 1207 738 1229 q 727 1149 747 1176 q 680 1100 707 1121 q 621 1067 653 1079 q 554 1054 589 1054 q 423 1094 479 1054 q 340 1210 367 1135 q 399 1231 357 1236 q 426 1199 408 1214 q 465 1174 443 1185 q 511 1158 488 1164 q 556 1151 535 1151 q 644 1167 600 1150 q 715 1226 688 1183 z "},"ğ":{"ha":731,"x_min":42,"x_max":747,"o":"m 343 711 q 469 697 418 711 q 556 651 521 682 q 726 732 638 707 q 742 694 738 717 q 747 653 747 672 l 729 619 l 583 619 q 618 488 618 569 q 548 325 618 388 q 343 263 478 263 q 300 264 317 263 q 263 268 283 265 q 247 240 256 256 q 238 208 238 225 q 269 165 238 181 q 349 136 301 149 q 453 110 397 124 q 558 74 510 97 q 640 15 607 51 q 674 -81 672 -22 q 651 -171 675 -131 q 583 -238 626 -211 q 480 -280 540 -265 q 347 -294 419 -294 q 119 -243 196 -294 q 42 -114 42 -192 q 53 -49 42 -76 q 88 0 65 -21 q 143 37 110 21 q 219 67 176 53 q 169 105 189 81 q 149 164 149 129 q 176 227 149 196 q 231 276 203 258 q 109 356 151 297 q 67 488 67 414 q 85 576 67 535 q 138 647 103 617 q 224 694 172 678 q 343 711 275 711 m 549 -112 q 519 -42 549 -68 q 444 1 489 -15 q 349 29 400 18 q 253 54 297 40 q 183 -13 200 22 q 167 -86 167 -49 q 219 -197 167 -160 q 372 -233 272 -233 q 458 -224 424 -233 q 512 -198 492 -214 q 540 -160 532 -182 q 549 -112 549 -137 m 192 488 q 199 424 192 454 q 224 372 207 394 q 271 337 242 350 q 343 324 300 324 q 458 371 424 324 q 493 488 493 418 q 459 606 493 563 q 343 650 425 650 q 225 608 258 650 q 192 488 192 565 m 526 999 q 497 938 514 968 q 456 883 479 907 q 403 844 432 860 q 340 829 375 829 q 274 842 303 829 q 221 878 244 856 q 179 933 197 901 q 149 1001 161 964 l 188 1019 q 215 985 197 1001 q 253 957 232 969 q 297 937 274 944 q 342 929 321 929 q 493 1014 436 926 l 526 999 z "},"Ģ":{"ha":956,"x_min":74,"x_max":932,"o":"m 846 67 q 784 37 819 51 q 709 10 749 22 q 630 -9 669 -1 q 556 -17 590 -17 q 356 13 444 -17 q 204 105 267 43 q 108 261 142 167 q 74 486 74 356 q 113 718 74 622 q 219 874 153 814 q 369 962 285 935 q 540 989 453 989 q 695 977 632 989 q 806 942 758 965 q 804 890 806 921 q 800 826 803 860 q 793 760 797 793 q 785 703 789 728 l 749 703 l 676 903 q 625 914 661 911 q 554 917 589 917 q 422 891 485 917 q 313 812 360 865 q 239 677 267 758 q 211 486 211 596 q 238 308 211 388 q 313 173 265 229 q 426 86 361 117 q 565 56 490 56 q 619 61 593 56 q 668 74 646 67 q 705 90 690 82 q 725 104 719 99 l 725 385 q 656 397 689 388 q 592 418 624 407 l 592 458 l 932 458 l 932 418 q 899 400 918 408 q 846 385 879 392 l 846 67 m 446 -331 q 495 -293 471 -319 q 515 -226 519 -267 q 472 -201 500 -214 q 424 -182 444 -189 q 423 -139 417 -160 q 442 -102 429 -118 q 470 -76 454 -86 q 501 -65 486 -65 q 585 -101 549 -69 q 622 -192 622 -132 q 581 -308 622 -258 q 467 -378 540 -358 l 446 -331 z "},"ģ":{"ha":731,"x_min":42,"x_max":747,"o":"m 343 711 q 469 697 418 711 q 556 651 521 682 q 726 732 638 707 q 742 694 738 717 q 747 653 747 672 l 729 619 l 583 619 q 618 488 618 569 q 548 325 618 388 q 343 263 478 263 q 300 264 317 263 q 263 268 283 265 q 247 240 256 256 q 238 208 238 225 q 269 165 238 181 q 349 136 301 149 q 453 110 397 124 q 558 74 510 97 q 640 15 607 51 q 674 -81 672 -22 q 651 -171 675 -131 q 583 -238 626 -211 q 480 -280 540 -265 q 347 -294 419 -294 q 119 -243 196 -294 q 42 -114 42 -192 q 53 -49 42 -76 q 88 0 65 -21 q 143 37 110 21 q 219 67 176 53 q 169 105 189 81 q 149 164 149 129 q 176 227 149 196 q 231 276 203 258 q 109 356 151 297 q 67 488 67 414 q 85 576 67 535 q 138 647 103 617 q 224 694 172 678 q 343 711 275 711 m 549 -112 q 519 -42 549 -68 q 444 1 489 -15 q 349 29 400 18 q 253 54 297 40 q 183 -13 200 22 q 167 -86 167 -49 q 219 -197 167 -160 q 372 -233 272 -233 q 458 -224 424 -233 q 512 -198 492 -214 q 540 -160 532 -182 q 549 -112 549 -137 m 192 488 q 199 424 192 454 q 224 372 207 394 q 271 337 242 350 q 343 324 300 324 q 458 371 424 324 q 493 488 493 418 q 459 606 493 563 q 343 650 425 650 q 225 608 258 650 q 192 488 192 565 m 440 1081 q 381 1035 397 1064 q 364 979 364 1007 q 406 953 379 967 q 454 933 433 940 q 455 891 461 911 q 437 855 449 871 q 409 828 425 839 q 378 818 393 818 q 300 853 332 822 q 268 944 268 885 q 311 1062 268 1011 q 418 1129 354 1114 l 440 1081 z "},"Ĥ":{"ha":1011,"x_min":40,"x_max":971,"o":"m 392 0 l 40 0 l 40 40 q 154 74 96 63 l 154 897 q 40 932 89 907 l 40 972 l 392 972 l 392 932 q 342 911 368 919 q 288 897 315 903 l 288 535 l 724 535 l 724 897 q 669 913 694 904 q 619 932 643 921 l 619 972 l 971 972 l 971 932 q 916 910 946 918 q 857 897 886 903 l 857 74 q 918 60 889 68 q 971 40 947 51 l 971 0 l 619 0 l 619 40 q 724 74 669 63 l 724 463 l 288 463 l 288 74 q 342 60 315 68 q 392 40 368 51 l 392 0 m 332 1044 l 313 1071 l 489 1226 q 506 1231 496 1231 q 525 1226 517 1232 l 699 1075 l 678 1046 l 501 1124 l 332 1044 z "},"ĥ":{"ha":815,"x_min":-19,"x_max":792,"o":"m 792 0 l 492 0 l 492 35 q 575 68 525 53 l 575 393 q 544 563 575 501 q 433 625 514 625 q 368 612 397 625 q 315 578 339 599 q 275 530 292 557 q 250 474 258 503 l 250 68 q 292 56 272 63 q 332 35 313 49 l 332 0 l 33 0 l 33 35 q 125 68 76 57 l 125 947 l 19 958 l 19 994 q 113 1024 60 1011 q 215 1044 167 1036 l 250 1044 l 250 554 l 251 554 q 335 665 281 619 q 468 711 390 711 q 567 698 524 711 q 640 651 611 685 q 685 562 669 618 q 700 419 700 506 l 700 68 q 747 56 724 63 q 792 35 771 49 l 792 0 m 0 1044 l -19 1071 l 157 1226 q 174 1231 164 1231 q 193 1226 185 1232 l 367 1075 l 346 1046 l 169 1124 l 0 1044 z "},"Ħ":{"ha":1011,"x_min":40,"x_max":971,"o":"m 42 775 l 154 775 l 154 897 q 40 932 89 907 l 40 972 l 392 972 l 392 932 q 342 911 368 919 q 288 897 315 903 l 288 775 l 724 775 l 724 897 q 669 913 694 904 q 619 932 643 921 l 619 972 l 971 972 l 971 932 q 916 910 946 918 q 857 897 886 903 l 857 775 l 969 775 l 969 703 l 857 703 l 857 74 q 918 60 889 68 q 971 40 947 51 l 971 0 l 619 0 l 619 40 q 724 74 669 63 l 724 463 l 288 463 l 288 74 q 342 60 315 68 q 392 40 368 51 l 392 0 l 40 0 l 40 40 q 154 74 96 63 l 154 703 l 42 703 l 42 775 m 724 535 l 724 703 l 288 703 l 288 535 l 724 535 z "},"ħ":{"ha":815,"x_min":4,"x_max":792,"o":"m 4 864 l 125 864 l 125 947 l 19 958 l 19 994 q 113 1024 60 1011 q 215 1044 167 1036 l 250 1044 l 250 864 l 471 864 l 471 793 l 250 793 l 250 554 l 251 554 q 335 665 281 619 q 468 711 390 711 q 567 698 524 711 q 640 651 611 685 q 685 562 669 618 q 700 419 700 506 l 700 68 q 747 56 724 63 q 792 35 771 49 l 792 0 l 492 0 l 492 35 q 575 68 525 53 l 575 393 q 544 563 575 501 q 433 625 514 625 q 368 612 397 625 q 315 578 339 599 q 275 530 292 557 q 250 474 258 503 l 250 68 q 292 56 272 63 q 332 35 313 49 l 332 0 l 33 0 l 33 35 q 125 68 76 57 l 125 793 l 4 793 l 4 864 z "},"Ī":{"ha":489,"x_min":38,"x_max":456,"o":"m 422 0 l 67 0 l 67 40 q 178 74 121 65 l 178 897 q 122 912 150 903 q 67 932 94 921 l 67 972 l 422 972 l 422 932 q 368 912 397 921 q 311 897 339 903 l 311 74 q 369 60 340 68 q 422 40 399 51 l 422 0 m 38 1094 l 38 1167 l 456 1167 l 456 1094 l 38 1094 z "},"ī":{"ha":418,"x_min":33,"x_max":385,"o":"m 365 0 l 57 0 l 57 35 q 100 53 78 46 q 149 68 122 61 l 149 614 l 57 625 l 57 661 q 144 690 97 678 q 239 711 192 703 l 274 711 l 274 68 q 324 53 301 61 q 365 35 346 46 l 365 0 m 33 885 l 33 957 l 385 957 l 385 885 l 33 885 z "},"Į":{"ha":489,"x_min":67,"x_max":422,"o":"m 422 0 l 367 0 q 267 -80 307 -33 q 226 -187 226 -126 q 251 -251 226 -226 q 319 -276 276 -276 q 396 -268 363 -276 l 396 -308 q 346 -336 376 -324 q 269 -349 315 -349 q 209 -339 238 -349 q 159 -311 181 -329 q 125 -267 138 -293 q 113 -211 113 -242 q 126 -145 113 -175 q 163 -90 139 -115 q 219 -42 186 -64 q 290 0 251 -21 l 67 0 l 67 40 q 178 74 121 65 l 178 897 q 122 912 150 903 q 67 932 94 921 l 67 972 l 422 972 l 422 932 q 368 912 397 921 q 311 897 339 903 l 311 74 q 369 60 340 68 q 422 40 399 51 l 422 0 z "},"į":{"ha":422,"x_min":58,"x_max":367,"o":"m 367 0 l 313 0 q 236 -70 267 -29 q 206 -164 206 -111 q 210 -192 206 -178 q 224 -219 214 -207 q 249 -240 233 -232 q 286 -247 264 -247 q 324 -244 307 -247 q 361 -235 342 -240 l 361 -281 q 311 -300 342 -292 q 256 -308 281 -308 q 132 -274 174 -308 q 90 -186 90 -239 q 133 -78 90 -124 q 247 0 176 -32 l 58 0 l 58 35 q 101 53 79 46 q 150 68 124 61 l 150 614 l 58 625 l 58 661 q 146 690 99 678 q 240 711 193 703 l 275 711 l 275 68 q 325 53 303 61 q 367 35 347 46 l 367 0 m 131 926 q 153 983 131 963 q 213 1004 176 1004 q 271 983 249 1004 q 293 926 293 963 q 271 870 293 890 q 213 850 249 850 q 153 870 176 850 q 131 926 131 890 z "},"İ":{"ha":489,"x_min":67,"x_max":422,"o":"m 422 0 l 67 0 l 67 40 q 178 74 121 65 l 178 897 q 122 912 150 903 q 67 932 94 921 l 67 972 l 422 972 l 422 932 q 368 912 397 921 q 311 897 339 903 l 311 74 q 369 60 340 68 q 422 40 399 51 l 422 0 m 156 1135 q 182 1190 156 1171 q 246 1210 208 1210 q 308 1190 283 1210 q 333 1135 333 1171 q 308 1079 333 1099 q 246 1060 283 1060 q 182 1079 208 1060 q 156 1135 156 1099 z "},"ı":{"ha":418,"x_min":57,"x_max":365,"o":"m 365 0 l 57 0 l 57 35 q 100 53 78 46 q 149 68 122 61 l 149 614 l 57 625 l 57 661 q 144 690 97 678 q 239 711 192 703 l 274 711 l 274 68 q 324 53 301 61 q 365 35 346 46 l 365 0 z "},"Ĵ":{"ha":474,"x_min":42,"x_max":428,"o":"m 54 972 l 407 972 l 407 932 q 356 912 382 921 q 301 897 329 903 l 301 119 q 279 -40 301 22 q 224 -141 257 -103 q 155 -197 192 -179 q 88 -222 118 -215 l 72 -201 q 110 -160 93 -183 q 141 -103 128 -137 q 161 -18 154 -68 q 168 104 168 32 l 168 897 q 108 913 138 904 q 54 932 79 921 l 54 972 m 61 1044 l 42 1071 l 218 1226 q 235 1231 225 1231 q 254 1226 246 1232 l 428 1075 l 407 1046 l 231 1124 l 61 1044 z "},"ĵ":{"ha":400,"x_min":35,"x_max":381,"o":"m 147 614 l 56 625 l 56 661 q 144 692 96 681 q 238 711 192 704 l 272 711 l 272 60 q 247 -104 272 -39 q 189 -210 222 -169 q 121 -269 156 -250 q 65 -294 86 -289 l 49 -268 q 83 -239 65 -260 q 115 -181 100 -218 q 138 -92 129 -144 q 147 33 147 -39 l 147 614 m 75 819 l 35 842 l 188 1100 q 205 1105 194 1104 q 222 1100 215 1106 l 381 843 l 343 819 l 200 968 l 75 819 z "},"Ķ":{"ha":897,"x_min":40,"x_max":897,"o":"m 531 972 l 838 972 l 838 932 q 783 911 810 919 q 732 897 757 903 l 453 528 q 533 425 488 482 q 627 308 578 368 q 728 185 676 247 q 831 68 781 124 l 897 35 l 897 0 l 724 0 l 676 33 q 513 240 594 129 q 356 465 432 351 l 288 465 l 288 74 q 392 40 351 63 l 392 0 l 40 0 l 40 40 q 154 74 96 63 l 154 897 q 40 932 92 906 l 40 972 l 392 972 l 392 932 q 343 913 369 922 q 288 897 317 904 l 288 513 l 371 532 l 631 897 q 578 913 603 904 q 531 932 553 921 l 531 972 m 365 -331 q 415 -293 390 -319 q 435 -226 439 -267 q 392 -201 419 -214 q 343 -182 364 -189 q 342 -139 336 -160 q 361 -102 349 -118 q 390 -76 374 -86 q 421 -65 406 -65 q 505 -101 468 -69 q 542 -192 542 -132 q 501 -308 542 -258 q 386 -378 460 -358 l 365 -331 z "},"ķ":{"ha":717,"x_min":19,"x_max":717,"o":"m 417 694 l 685 694 l 685 658 q 633 639 658 647 q 579 625 607 631 q 531 565 558 597 q 476 501 504 533 q 423 442 449 469 q 379 396 397 414 q 430 328 400 368 q 494 244 460 289 q 566 154 529 200 q 639 68 603 108 l 717 35 l 717 0 l 544 0 l 507 33 q 385 197 433 125 q 296 331 336 268 l 250 344 l 250 68 q 340 35 296 60 l 340 0 l 33 0 l 33 35 q 125 68 79 57 l 125 947 l 19 958 l 19 994 q 113 1024 58 1013 q 215 1044 167 1035 l 250 1044 l 250 381 l 286 381 q 335 436 308 406 q 388 499 361 467 q 439 564 414 532 q 485 625 464 596 q 417 658 450 635 l 417 694 m 278 -328 q 338 -283 321 -311 q 354 -226 354 -254 q 312 -201 339 -214 q 264 -181 285 -187 q 263 -138 257 -158 q 281 -102 269 -118 q 309 -76 293 -86 q 340 -65 325 -65 q 418 -101 386 -69 q 450 -192 450 -132 q 407 -310 450 -258 q 300 -376 364 -361 l 278 -328 z "},"Ĺ":{"ha":763,"x_min":40,"x_max":740,"o":"m 40 972 l 421 972 l 421 932 q 354 910 388 919 q 288 897 321 901 l 288 72 l 607 72 l 689 296 l 725 296 q 733 228 729 267 q 738 149 736 190 q 740 69 740 108 q 739 0 740 31 l 40 0 l 40 40 q 101 63 74 56 q 154 74 129 69 l 154 897 q 93 912 122 903 q 40 932 64 921 l 40 972 m 404 1240 q 436 1239 417 1242 q 476 1230 456 1236 q 513 1215 496 1224 q 539 1196 531 1206 l 539 1168 l 225 1042 l 201 1068 l 404 1240 z "},"ĺ":{"ha":418,"x_min":43,"x_max":454,"o":"m 365 0 l 57 0 l 57 35 q 149 68 103 57 l 149 947 l 43 958 l 43 994 q 133 1024 79 1011 q 239 1044 188 1036 l 274 1044 l 274 68 q 365 35 319 57 l 365 0 m 319 1240 q 351 1239 332 1242 q 391 1230 371 1236 q 428 1215 411 1224 q 454 1196 446 1206 l 454 1168 l 140 1042 l 117 1068 l 319 1240 z "},"Ļ":{"ha":763,"x_min":40,"x_max":740,"o":"m 40 972 l 421 972 l 421 932 q 354 910 388 919 q 288 897 321 901 l 288 72 l 607 72 l 689 296 l 725 296 q 733 228 729 267 q 738 149 736 190 q 740 69 740 108 q 739 0 740 31 l 40 0 l 40 40 q 101 63 74 56 q 154 74 129 69 l 154 897 q 93 912 122 903 q 40 932 64 921 l 40 972 m 307 -331 q 356 -293 332 -319 q 376 -226 381 -267 q 333 -201 361 -214 q 285 -182 306 -189 q 284 -139 278 -160 q 303 -102 290 -118 q 331 -76 315 -86 q 363 -65 347 -65 q 447 -101 410 -69 q 483 -192 483 -132 q 442 -308 483 -258 q 328 -378 401 -358 l 307 -331 z "},"ļ":{"ha":418,"x_min":43,"x_max":365,"o":"m 365 0 l 57 0 l 57 35 q 149 68 103 57 l 149 947 l 43 958 l 43 994 q 133 1024 79 1011 q 239 1044 188 1036 l 274 1044 l 274 68 q 365 35 319 57 l 365 0 m 136 -328 q 196 -283 179 -311 q 213 -226 213 -254 q 170 -201 197 -214 q 122 -181 143 -187 q 122 -138 115 -158 q 140 -102 128 -118 q 167 -76 151 -86 q 199 -65 183 -65 q 276 -101 244 -69 q 308 -192 308 -132 q 265 -310 308 -258 q 158 -376 222 -361 l 136 -328 z "},"Ľ":{"ha":763,"x_min":40,"x_max":740,"o":"m 40 972 l 421 972 l 421 932 q 354 910 388 919 q 288 897 321 901 l 288 72 l 607 72 l 689 296 l 725 296 q 733 228 729 267 q 738 149 736 190 q 740 69 740 108 q 739 0 740 31 l 40 0 l 40 40 q 101 63 74 56 q 154 74 129 69 l 154 897 q 93 912 122 903 q 40 932 64 921 l 40 972 m 475 700 q 501 766 489 731 q 519 837 513 801 q 531 906 526 872 q 535 967 535 939 l 551 989 q 581 987 563 990 q 617 977 599 983 q 653 962 636 971 q 679 943 669 953 q 654 866 674 906 q 609 792 635 826 q 555 728 583 757 q 503 685 526 700 l 475 700 z "},"ľ":{"ha":418,"x_min":43,"x_max":525,"o":"m 365 0 l 57 0 l 57 35 q 149 68 103 57 l 149 947 l 43 958 l 43 994 q 133 1024 79 1011 q 239 1044 188 1036 l 274 1044 l 274 68 q 365 35 319 57 l 365 0 m 336 754 q 381 890 365 817 q 396 1019 396 963 l 413 1042 q 438 1041 422 1043 q 471 1034 454 1039 q 502 1023 488 1029 q 525 1010 517 1017 q 501 931 518 971 q 460 856 483 892 q 412 790 438 819 q 364 739 386 760 l 336 754 z "},"Ł":{"ha":763,"x_min":24,"x_max":740,"o":"m 40 972 l 421 972 l 421 932 q 354 910 388 919 q 288 897 321 901 l 288 544 l 475 661 l 475 569 l 288 453 l 288 72 l 607 72 l 689 296 l 725 296 q 733 228 729 267 q 738 149 736 190 q 740 69 740 108 q 739 0 740 31 l 40 0 l 40 40 q 101 63 74 56 q 154 74 129 69 l 154 371 l 24 292 l 24 382 l 154 461 l 154 897 q 93 912 122 903 q 40 932 64 921 l 40 972 z "},"ł":{"ha":451,"x_min":33,"x_max":418,"o":"m 33 410 l 165 490 l 165 947 l 60 958 l 60 994 q 150 1024 96 1011 q 256 1044 204 1036 l 290 1044 l 290 568 l 418 647 l 418 556 l 290 476 l 290 68 q 382 35 336 57 l 382 0 l 74 0 l 74 35 q 165 68 119 57 l 165 400 l 33 318 l 33 410 z "},"Ń":{"ha":1017,"x_min":40,"x_max":976,"o":"m 676 972 l 976 972 l 976 932 q 863 876 918 893 l 863 -17 l 783 -17 l 279 749 l 225 857 l 221 857 l 233 749 l 233 89 q 340 40 290 74 l 340 0 l 40 0 l 40 40 q 94 67 65 56 q 154 89 122 79 l 154 885 q 99 908 126 896 q 49 933 72 921 l 49 972 l 283 972 l 721 313 l 785 193 l 790 193 l 783 313 l 783 876 q 727 903 754 889 q 676 932 700 917 l 676 972 m 653 1240 q 685 1239 665 1242 q 724 1230 704 1236 q 762 1215 744 1224 q 788 1196 779 1206 l 788 1168 l 474 1042 l 450 1068 l 653 1240 z "},"ń":{"ha":825,"x_min":43,"x_max":801,"o":"m 801 0 l 503 0 l 503 35 q 585 68 540 54 l 585 397 q 554 564 585 503 q 443 625 524 625 q 378 613 408 625 q 326 578 349 600 q 286 530 303 557 q 260 474 269 503 l 260 68 q 343 35 303 60 l 343 0 l 43 0 l 43 35 q 135 68 78 53 l 135 614 l 43 625 l 43 661 q 126 689 79 676 q 225 711 174 701 l 260 711 l 260 556 l 261 556 q 345 665 290 619 q 478 711 400 711 q 577 698 533 711 q 650 651 621 685 q 694 562 679 618 q 710 419 710 506 l 710 68 q 801 35 765 58 l 801 0 m 525 1065 q 554 1065 536 1067 q 592 1058 572 1063 q 628 1048 611 1054 q 653 1035 644 1042 l 653 1008 l 393 799 l 363 824 l 525 1065 z "},"Ņ":{"ha":1017,"x_min":40,"x_max":976,"o":"m 676 972 l 976 972 l 976 932 q 863 876 918 893 l 863 -17 l 783 -17 l 279 749 l 225 857 l 221 857 l 233 749 l 233 89 q 340 40 290 74 l 340 0 l 40 0 l 40 40 q 94 67 65 56 q 154 89 122 79 l 154 885 q 99 908 126 896 q 49 933 72 921 l 49 972 l 283 972 l 721 313 l 785 193 l 790 193 l 783 313 l 783 876 q 727 903 754 889 q 676 932 700 917 l 676 972 m 431 -331 q 480 -293 456 -319 q 500 -226 504 -267 q 457 -201 485 -214 q 408 -182 429 -189 q 408 -139 401 -160 q 426 -102 414 -118 q 455 -76 439 -86 q 486 -65 471 -65 q 570 -101 533 -69 q 607 -192 607 -132 q 566 -308 607 -258 q 451 -378 525 -358 l 431 -331 z "},"ņ":{"ha":825,"x_min":43,"x_max":801,"o":"m 801 0 l 503 0 l 503 35 q 585 68 540 54 l 585 397 q 554 564 585 503 q 443 625 524 625 q 378 613 408 625 q 326 578 349 600 q 286 530 303 557 q 260 474 269 503 l 260 68 q 343 35 303 60 l 343 0 l 43 0 l 43 35 q 135 68 78 53 l 135 614 l 43 625 l 43 661 q 126 689 79 676 q 225 711 174 701 l 260 711 l 260 556 l 261 556 q 345 665 290 619 q 478 711 400 711 q 577 698 533 711 q 650 651 621 685 q 694 562 679 618 q 710 419 710 506 l 710 68 q 801 35 765 58 l 801 0 m 346 -328 q 406 -283 389 -311 q 422 -226 422 -254 q 380 -201 407 -214 q 332 -181 353 -187 q 331 -138 325 -158 q 349 -102 338 -118 q 377 -76 361 -86 q 408 -65 393 -65 q 486 -101 454 -69 q 518 -192 518 -132 q 475 -310 518 -258 q 368 -376 432 -361 l 346 -328 z "},"Ň":{"ha":1017,"x_min":40,"x_max":976,"o":"m 676 972 l 976 972 l 976 932 q 863 876 918 893 l 863 -17 l 783 -17 l 279 749 l 225 857 l 221 857 l 233 749 l 233 89 q 340 40 290 74 l 340 0 l 40 0 l 40 40 q 94 67 65 56 q 154 89 122 79 l 154 885 q 99 908 126 896 q 49 933 72 921 l 49 972 l 283 972 l 721 313 l 785 193 l 790 193 l 783 313 l 783 876 q 727 903 754 889 q 676 932 700 917 l 676 972 m 667 1233 q 688 1226 678 1233 q 701 1210 697 1219 l 525 1054 q 508 1051 518 1051 q 489 1054 497 1050 l 315 1206 q 328 1224 321 1215 q 350 1233 336 1233 l 513 1157 l 667 1233 z "},"ň":{"ha":825,"x_min":43,"x_max":801,"o":"m 801 0 l 503 0 l 503 35 q 585 68 540 54 l 585 397 q 554 564 585 503 q 443 625 524 625 q 378 613 408 625 q 326 578 349 600 q 286 530 303 557 q 260 474 269 503 l 260 68 q 343 35 303 60 l 343 0 l 43 0 l 43 35 q 135 68 78 53 l 135 614 l 43 625 l 43 661 q 126 689 79 676 q 225 711 174 701 l 260 711 l 260 556 l 261 556 q 345 665 290 619 q 478 711 400 711 q 577 698 533 711 q 650 651 621 685 q 694 562 679 618 q 710 419 710 506 l 710 68 q 801 35 765 58 l 801 0 m 561 1106 q 585 1100 574 1107 q 601 1083 597 1093 l 429 826 q 413 823 422 824 q 394 826 403 822 l 226 1082 q 246 1100 232 1093 q 274 1106 260 1107 l 422 958 l 561 1106 z "},"Ō":{"ha":1028,"x_min":74,"x_max":954,"o":"m 74 486 q 103 687 74 594 q 190 847 133 779 q 328 951 246 914 q 514 989 410 989 q 700 951 618 989 q 838 847 782 914 q 924 687 894 779 q 954 486 954 594 q 924 285 954 378 q 838 126 894 193 q 700 21 782 58 q 514 -17 618 -17 q 328 21 410 -17 q 190 126 246 58 q 103 285 133 193 q 74 486 74 378 m 222 486 q 241 319 222 397 q 297 182 260 240 q 392 90 335 124 q 526 56 449 56 q 650 90 597 56 q 737 182 703 124 q 788 319 771 240 q 806 486 806 397 q 788 653 806 575 q 732 790 769 732 q 638 883 694 849 q 503 917 581 917 q 373 883 426 917 q 286 790 319 849 q 238 653 253 732 q 222 486 222 575 m 304 1094 l 304 1167 l 722 1167 l 722 1094 l 304 1094 z "},"ō":{"ha":768,"x_min":57,"x_max":711,"o":"m 57 347 q 80 502 57 435 q 146 616 103 569 q 249 687 189 663 q 383 711 310 711 q 532 685 469 711 q 634 610 594 658 q 692 496 674 563 q 711 347 711 429 q 622 78 711 172 q 383 -17 533 -17 q 239 9 300 -17 q 138 83 178 35 q 77 198 97 131 q 57 347 57 265 m 190 347 q 202 229 190 285 q 240 133 214 174 q 307 68 265 92 q 407 44 349 44 q 530 118 482 44 q 578 347 578 192 q 566 466 578 411 q 529 562 554 521 q 465 626 504 603 q 372 650 426 650 q 240 576 290 650 q 190 347 190 503 m 208 885 l 208 957 l 560 957 l 560 885 l 208 885 z "},"Ő":{"ha":1028,"x_min":74,"x_max":954,"o":"m 74 486 q 103 687 74 594 q 190 847 133 779 q 328 951 246 914 q 514 989 410 989 q 700 951 618 989 q 838 847 782 914 q 924 687 894 779 q 954 486 954 594 q 924 285 954 378 q 838 126 894 193 q 700 21 782 58 q 514 -17 618 -17 q 328 21 410 -17 q 190 126 246 58 q 103 285 133 193 q 74 486 74 378 m 222 486 q 241 319 222 397 q 297 182 260 240 q 392 90 335 124 q 526 56 449 56 q 650 90 597 56 q 737 182 703 124 q 788 319 771 240 q 806 486 806 397 q 788 653 806 575 q 732 790 769 732 q 638 883 694 849 q 503 917 581 917 q 373 883 426 917 q 286 790 319 849 q 238 653 253 732 q 222 486 222 575 m 451 1233 q 476 1232 460 1235 q 511 1225 493 1229 q 544 1214 529 1221 q 563 1200 558 1207 l 563 1181 l 381 1053 l 354 1078 l 451 1233 m 693 1233 q 719 1232 703 1235 q 754 1224 736 1229 q 788 1211 772 1218 q 810 1196 803 1204 l 808 1182 l 563 1050 l 533 1075 l 693 1233 z "},"ő":{"ha":768,"x_min":57,"x_max":711,"o":"m 57 347 q 80 502 57 435 q 146 616 103 569 q 249 687 189 663 q 383 711 310 711 q 532 685 469 711 q 634 610 594 658 q 692 496 674 563 q 711 347 711 429 q 622 78 711 172 q 383 -17 533 -17 q 239 9 300 -17 q 138 83 178 35 q 77 198 97 131 q 57 347 57 265 m 190 347 q 202 229 190 285 q 240 133 214 174 q 307 68 265 92 q 407 44 349 44 q 530 118 482 44 q 578 347 578 192 q 566 466 578 411 q 529 562 554 521 q 465 626 504 603 q 372 650 426 650 q 240 576 290 650 q 190 347 190 503 m 342 1067 q 368 1066 350 1068 q 405 1060 386 1064 q 439 1049 424 1056 q 458 1038 454 1043 l 458 1017 l 267 831 l 235 853 l 342 1067 m 582 1067 q 609 1066 592 1068 q 644 1058 626 1064 q 677 1045 661 1053 q 700 1028 693 1038 l 700 1010 l 424 831 l 397 856 l 582 1067 z "},"Œ":{"ha":1325,"x_min":74,"x_max":1246,"o":"m 675 0 q 595 -12 639 -7 q 514 -17 551 -17 q 328 21 410 -17 q 190 126 246 58 q 103 285 133 193 q 74 486 74 378 q 103 687 74 594 q 190 847 133 779 q 328 951 246 914 q 514 989 410 989 q 589 985 546 989 q 672 972 632 981 l 1217 972 q 1211 860 1214 917 q 1201 747 1208 804 l 1165 747 l 1107 900 l 806 900 l 806 532 l 1031 532 l 1086 635 l 1119 635 q 1119 354 1131 497 l 1086 354 l 1031 460 l 806 460 l 806 72 l 1125 72 l 1192 239 l 1228 239 q 1241 121 1236 181 q 1243 0 1246 61 l 675 0 m 526 56 q 599 61 563 56 q 672 82 636 67 l 672 883 q 592 908 636 899 q 503 917 549 917 q 373 883 426 917 q 286 790 319 849 q 238 653 253 732 q 222 486 222 575 q 241 319 222 397 q 297 182 260 240 q 392 90 335 124 q 526 56 449 56 z "},"œ":{"ha":1217,"x_min":57,"x_max":1160,"o":"m 190 347 q 202 229 190 285 q 240 132 214 174 q 307 67 265 90 q 407 43 349 43 q 529 117 482 43 q 576 347 576 192 q 565 466 576 411 q 529 562 554 521 q 465 626 504 603 q 372 650 426 650 q 240 576 289 650 q 190 347 190 503 m 643 104 q 589 48 619 71 q 524 10 558 25 q 454 -10 490 -4 q 383 -17 418 -17 q 239 9 300 -17 q 138 83 178 35 q 77 198 97 131 q 57 347 57 265 q 80 502 57 435 q 146 616 103 569 q 249 687 189 663 q 383 711 310 711 q 529 683 458 711 q 640 592 600 656 q 686 644 658 621 q 747 681 714 667 q 817 703 781 696 q 889 711 854 711 q 999 694 944 711 q 1090 634 1053 676 q 1144 522 1128 592 q 1142 347 1160 451 l 710 347 q 724 238 710 289 q 768 150 739 188 q 841 91 797 113 q 944 69 885 69 q 994 73 968 69 q 1043 83 1019 76 q 1086 99 1067 90 q 1118 119 1106 108 l 1139 97 q 1104 53 1128 74 q 1049 17 1081 32 q 982 -8 1018 1 q 908 -17 946 -17 q 831 -8 871 -17 q 753 17 790 1 q 688 56 717 33 q 643 104 658 78 m 883 650 q 764 597 806 650 q 714 408 722 543 l 1018 408 q 995 583 1028 517 q 883 650 963 650 z "},"Ŕ":{"ha":885,"x_min":40,"x_max":871,"o":"m 288 74 q 349 59 319 67 q 406 40 378 51 l 406 0 l 40 0 l 40 40 q 99 61 71 54 q 154 74 126 68 l 154 897 q 90 913 118 904 q 40 932 63 922 l 40 972 l 163 972 q 284 978 218 972 q 413 983 350 983 q 540 968 481 983 q 642 919 599 953 q 709 835 685 886 q 733 711 733 783 q 680 543 733 610 q 535 447 626 476 q 660 260 594 353 q 796 75 725 167 l 871 35 l 871 0 l 703 0 l 650 39 q 579 134 611 88 q 519 228 547 181 q 467 326 492 276 q 418 431 443 375 l 288 431 l 288 74 m 382 911 q 327 910 349 911 q 288 904 306 908 l 288 489 l 388 489 q 540 550 483 489 q 596 711 596 611 q 536 863 596 814 q 382 911 476 911 m 529 1240 q 561 1239 542 1242 q 601 1230 581 1236 q 638 1215 621 1224 q 664 1196 656 1206 l 664 1168 l 350 1042 l 326 1068 l 529 1240 z "},"ŕ":{"ha":533,"x_min":43,"x_max":524,"o":"m 339 590 q 301 556 324 582 q 260 481 278 531 l 260 68 q 315 58 288 65 q 371 35 343 50 l 371 0 l 43 0 l 43 35 q 90 56 68 49 q 135 68 113 63 l 135 614 l 43 625 l 43 661 q 135 692 88 681 q 225 711 182 704 l 260 711 l 260 564 l 265 564 q 301 619 278 592 q 353 669 324 647 q 419 703 383 692 q 492 711 454 715 q 509 672 501 693 q 524 626 517 650 l 524 590 l 339 590 m 381 1065 q 410 1065 392 1067 q 447 1058 428 1063 q 483 1048 467 1054 q 508 1035 500 1042 l 508 1008 l 249 799 l 218 824 l 381 1065 z "},"Ŗ":{"ha":885,"x_min":40,"x_max":871,"o":"m 288 74 q 349 59 319 67 q 406 40 378 51 l 406 0 l 40 0 l 40 40 q 99 61 71 54 q 154 74 126 68 l 154 897 q 90 913 118 904 q 40 932 63 922 l 40 972 l 163 972 q 284 978 218 972 q 413 983 350 983 q 540 968 481 983 q 642 919 599 953 q 709 835 685 886 q 733 711 733 783 q 680 543 733 610 q 535 447 626 476 q 660 260 594 353 q 796 75 725 167 l 871 35 l 871 0 l 703 0 l 650 39 q 579 134 611 88 q 519 228 547 181 q 467 326 492 276 q 418 431 443 375 l 288 431 l 288 74 m 382 911 q 327 910 349 911 q 288 904 306 908 l 288 489 l 388 489 q 540 550 483 489 q 596 711 596 611 q 536 863 596 814 q 382 911 476 911 m 363 -331 q 412 -293 388 -319 q 432 -226 436 -267 q 389 -201 417 -214 q 340 -182 361 -189 q 340 -139 333 -160 q 358 -102 346 -118 q 387 -76 371 -86 q 418 -65 403 -65 q 502 -101 465 -69 q 539 -192 539 -132 q 498 -308 539 -258 q 383 -378 457 -358 l 363 -331 z "},"ŗ":{"ha":533,"x_min":43,"x_max":524,"o":"m 339 590 q 301 556 324 582 q 260 481 278 531 l 260 68 q 315 58 288 65 q 371 35 343 50 l 371 0 l 43 0 l 43 35 q 90 56 68 49 q 135 68 113 63 l 135 614 l 43 625 l 43 661 q 135 692 88 681 q 225 711 182 704 l 260 711 l 260 564 l 265 564 q 301 619 278 592 q 353 669 324 647 q 419 703 383 692 q 492 711 454 715 q 509 672 501 693 q 524 626 517 650 l 524 590 l 339 590 m 151 -328 q 211 -283 194 -311 q 228 -226 228 -254 q 185 -201 213 -214 q 138 -181 158 -187 q 137 -138 131 -158 q 155 -102 143 -118 q 183 -76 167 -86 q 214 -65 199 -65 q 292 -101 260 -69 q 324 -192 324 -132 q 281 -310 324 -258 q 174 -376 238 -361 l 151 -328 z "},"Ř":{"ha":885,"x_min":40,"x_max":871,"o":"m 288 74 q 349 59 319 67 q 406 40 378 51 l 406 0 l 40 0 l 40 40 q 99 61 71 54 q 154 74 126 68 l 154 897 q 90 913 118 904 q 40 932 63 922 l 40 972 l 163 972 q 284 978 218 972 q 413 983 350 983 q 540 968 481 983 q 642 919 599 953 q 709 835 685 886 q 733 711 733 783 q 680 543 733 610 q 535 447 626 476 q 660 260 594 353 q 796 75 725 167 l 871 35 l 871 0 l 703 0 l 650 39 q 579 134 611 88 q 519 228 547 181 q 467 326 492 276 q 418 431 443 375 l 288 431 l 288 74 m 382 911 q 327 910 349 911 q 288 904 306 908 l 288 489 l 388 489 q 540 550 483 489 q 596 711 596 611 q 536 863 596 814 q 382 911 476 911 m 556 1233 q 576 1226 567 1233 q 590 1210 586 1219 l 414 1054 q 397 1051 407 1051 q 378 1054 386 1050 l 204 1206 q 217 1224 210 1215 q 239 1233 225 1233 l 401 1157 l 556 1233 z "},"ř":{"ha":533,"x_min":43,"x_max":524,"o":"m 339 590 q 301 556 324 582 q 260 481 278 531 l 260 68 q 315 58 288 65 q 371 35 343 50 l 371 0 l 43 0 l 43 35 q 90 56 68 49 q 135 68 113 63 l 135 614 l 43 625 l 43 661 q 135 692 88 681 q 225 711 182 704 l 260 711 l 260 564 l 265 564 q 301 619 278 592 q 353 669 324 647 q 419 703 383 692 q 492 711 454 715 q 509 672 501 693 q 524 626 517 650 l 524 590 l 339 590 m 451 1106 q 476 1100 464 1107 q 492 1083 488 1093 l 319 826 q 303 823 313 824 q 285 826 293 822 l 117 1082 q 136 1100 122 1093 q 164 1106 150 1107 l 313 958 l 451 1106 z "},"Ś":{"ha":744,"x_min":81,"x_max":672,"o":"m 208 96 q 251 67 225 79 q 331 56 278 56 q 414 67 375 56 q 481 102 453 79 q 526 158 510 125 q 543 232 543 190 q 509 325 543 288 q 424 392 475 363 q 314 449 374 421 q 203 515 254 476 q 119 606 153 553 q 85 740 85 660 q 106 844 85 799 q 165 922 126 890 q 256 972 203 954 q 374 989 308 989 q 528 976 458 989 q 639 943 599 963 q 635 888 639 919 q 627 824 632 857 q 617 759 622 790 q 606 704 611 728 l 569 704 l 514 894 q 451 911 489 906 q 369 917 413 917 q 256 877 299 917 q 213 767 213 838 q 247 671 213 710 q 332 601 281 632 q 442 542 383 571 q 553 476 501 514 q 638 388 604 439 q 672 260 672 336 q 649 146 672 197 q 583 58 626 94 q 478 3 540 22 q 336 -17 415 -17 q 179 4 249 -17 q 81 49 110 25 q 85 106 82 72 q 94 174 89 139 q 104 243 99 210 q 115 300 110 276 l 151 300 l 208 96 m 507 1240 q 539 1239 519 1242 q 578 1230 558 1236 q 616 1215 599 1224 q 642 1196 633 1206 l 642 1168 l 328 1042 l 304 1068 l 507 1240 z "},"ś":{"ha":601,"x_min":64,"x_max":535,"o":"m 410 158 q 385 224 410 197 q 324 275 361 251 q 244 321 286 299 q 164 373 201 343 q 102 442 126 403 q 78 538 78 481 q 95 607 78 575 q 142 662 113 639 q 210 698 171 685 q 293 711 249 711 q 416 703 368 711 q 508 679 464 694 q 495 590 503 635 q 474 497 488 544 l 439 497 l 386 639 q 349 648 369 646 q 306 650 328 650 q 262 641 281 650 q 230 618 243 632 q 210 586 217 604 q 203 550 203 568 q 227 485 203 513 q 289 435 251 458 q 369 390 326 413 q 449 340 411 368 q 510 276 486 313 q 535 188 535 239 q 515 103 535 140 q 459 39 494 65 q 377 -2 424 13 q 278 -17 331 -17 q 168 -6 218 -17 q 64 24 118 4 q 76 120 67 74 q 101 210 86 167 l 136 210 l 197 58 q 234 46 213 47 q 274 44 256 44 q 372 78 335 44 q 410 158 410 111 m 388 1065 q 417 1065 399 1067 q 454 1058 435 1063 q 490 1048 474 1054 q 515 1035 507 1042 l 515 1008 l 256 799 l 225 824 l 388 1065 z "},"Ŝ":{"ha":744,"x_min":81,"x_max":672,"o":"m 208 96 q 251 67 225 79 q 331 56 278 56 q 414 67 375 56 q 481 102 453 79 q 526 158 510 125 q 543 232 543 190 q 509 325 543 288 q 424 392 475 363 q 314 449 374 421 q 203 515 254 476 q 119 606 153 553 q 85 740 85 660 q 106 844 85 799 q 165 922 126 890 q 256 972 203 954 q 374 989 308 989 q 528 976 458 989 q 639 943 599 963 q 635 888 639 919 q 627 824 632 857 q 617 759 622 790 q 606 704 611 728 l 569 704 l 514 894 q 451 911 489 906 q 369 917 413 917 q 256 877 299 917 q 213 767 213 838 q 247 671 213 710 q 332 601 281 632 q 442 542 383 571 q 553 476 501 514 q 638 388 604 439 q 672 260 672 336 q 649 146 672 197 q 583 58 626 94 q 478 3 540 22 q 336 -17 415 -17 q 179 4 249 -17 q 81 49 110 25 q 85 106 82 72 q 94 174 89 139 q 104 243 99 210 q 115 300 110 276 l 151 300 l 208 96 m 222 1044 l 203 1071 l 379 1226 q 397 1231 386 1231 q 415 1226 407 1232 l 589 1075 l 568 1046 l 392 1124 l 222 1044 z "},"ŝ":{"ha":601,"x_min":64,"x_max":535,"o":"m 410 158 q 385 224 410 197 q 324 275 361 251 q 244 321 286 299 q 164 373 201 343 q 102 442 126 403 q 78 538 78 481 q 95 607 78 575 q 142 662 113 639 q 210 698 171 685 q 293 711 249 711 q 416 703 368 711 q 508 679 464 694 q 495 590 503 635 q 474 497 488 544 l 439 497 l 386 639 q 349 648 369 646 q 306 650 328 650 q 262 641 281 650 q 230 618 243 632 q 210 586 217 604 q 203 550 203 568 q 227 485 203 513 q 289 435 251 458 q 369 390 326 413 q 449 340 411 368 q 510 276 486 313 q 535 188 535 239 q 515 103 535 140 q 459 39 494 65 q 377 -2 424 13 q 278 -17 331 -17 q 168 -6 218 -17 q 64 24 118 4 q 76 120 67 74 q 101 210 86 167 l 136 210 l 197 58 q 234 46 213 47 q 274 44 256 44 q 372 78 335 44 q 410 158 410 111 m 169 819 l 129 842 l 282 1100 q 299 1105 289 1104 q 317 1100 310 1106 l 475 843 l 438 819 l 294 968 l 169 819 z "},"Ş":{"ha":744,"x_min":81,"x_max":672,"o":"m 208 96 q 251 67 225 79 q 331 54 278 54 q 414 66 375 54 q 481 101 453 78 q 526 157 510 124 q 543 232 543 190 q 509 325 543 288 q 424 392 475 363 q 314 449 374 421 q 203 515 254 476 q 119 606 153 553 q 85 740 85 660 q 106 844 85 799 q 165 922 126 890 q 256 972 203 954 q 374 989 308 989 q 528 976 458 989 q 639 943 599 963 q 635 888 639 919 q 627 824 632 857 q 617 759 622 790 q 606 704 611 728 l 569 704 l 514 894 q 451 911 489 906 q 369 917 413 917 q 256 877 299 917 q 213 767 213 838 q 247 671 213 710 q 332 601 281 632 q 442 542 383 571 q 553 476 501 514 q 638 388 604 439 q 672 260 672 336 q 596 69 672 142 q 381 -14 519 -3 l 346 -104 q 469 -135 429 -106 q 508 -214 508 -165 q 484 -286 508 -256 q 423 -337 460 -317 q 342 -368 386 -358 q 257 -378 297 -378 l 257 -332 q 350 -301 313 -324 q 386 -239 388 -279 q 354 -183 385 -200 q 261 -161 324 -165 l 310 -17 q 169 6 231 -14 q 81 49 108 26 q 85 106 82 72 q 94 174 89 139 q 104 243 99 210 q 115 300 110 276 l 151 300 l 208 96 z "},"ş":{"ha":628,"x_min":64,"x_max":561,"o":"m 436 158 q 410 232 436 204 q 343 281 383 260 q 257 320 303 301 q 171 366 211 339 q 104 433 131 393 q 78 538 78 474 q 94 607 78 575 q 141 662 111 639 q 213 698 171 685 q 307 711 256 711 q 436 703 382 711 q 535 679 490 694 q 522 590 529 635 q 500 497 514 544 l 465 497 l 413 639 q 368 648 396 646 q 318 650 340 650 q 231 618 258 650 q 203 550 203 586 q 229 482 203 508 q 296 435 256 456 q 382 395 336 414 q 468 350 428 376 q 535 286 508 324 q 561 192 561 249 q 493 44 561 99 q 310 -15 425 -11 l 281 -94 q 391 -123 357 -97 q 428 -193 425 -149 q 408 -263 429 -233 q 353 -312 386 -293 q 279 -341 319 -332 q 201 -349 239 -350 l 201 -307 q 286 -279 254 -300 q 317 -215 318 -258 q 288 -165 315 -181 q 203 -146 260 -150 l 249 -15 q 64 24 151 -8 q 76 120 67 74 q 101 210 86 167 l 136 210 l 197 58 q 240 45 213 47 q 288 43 268 43 q 396 77 356 43 q 436 158 436 111 z "},"Š":{"ha":744,"x_min":81,"x_max":672,"o":"m 208 96 q 251 67 225 79 q 331 56 278 56 q 414 67 375 56 q 481 102 453 79 q 526 158 510 125 q 543 232 543 190 q 509 325 543 288 q 424 392 475 363 q 314 449 374 421 q 203 515 254 476 q 119 606 153 553 q 85 740 85 660 q 106 844 85 799 q 165 922 126 890 q 256 972 203 954 q 374 989 308 989 q 528 976 458 989 q 639 943 599 963 q 635 888 639 919 q 627 824 632 857 q 617 759 622 790 q 606 704 611 728 l 569 704 l 514 894 q 451 911 489 906 q 369 917 413 917 q 256 877 299 917 q 213 767 213 838 q 247 671 213 710 q 332 601 281 632 q 442 542 383 571 q 553 476 501 514 q 638 388 604 439 q 672 260 672 336 q 649 146 672 197 q 583 58 626 94 q 478 3 540 22 q 336 -17 415 -17 q 179 4 249 -17 q 81 49 110 25 q 85 106 82 72 q 94 174 89 139 q 104 243 99 210 q 115 300 110 276 l 151 300 l 208 96 m 543 1233 q 564 1226 554 1233 q 578 1210 574 1219 l 401 1054 q 384 1051 394 1051 q 365 1054 374 1050 l 192 1206 q 205 1224 197 1215 q 226 1233 213 1233 l 389 1157 l 543 1233 z "},"š":{"ha":601,"x_min":64,"x_max":535,"o":"m 410 158 q 385 224 410 197 q 324 275 361 251 q 244 321 286 299 q 164 373 201 343 q 102 442 126 403 q 78 538 78 481 q 95 607 78 575 q 142 662 113 639 q 210 698 171 685 q 293 711 249 711 q 416 703 368 711 q 508 679 464 694 q 495 590 503 635 q 474 497 488 544 l 439 497 l 386 639 q 349 648 369 646 q 306 650 328 650 q 262 641 281 650 q 230 618 243 632 q 210 586 217 604 q 203 550 203 568 q 227 485 203 513 q 289 435 251 458 q 369 390 326 413 q 449 340 411 368 q 510 276 486 313 q 535 188 535 239 q 515 103 535 140 q 459 39 494 65 q 377 -2 424 13 q 278 -17 331 -17 q 168 -6 218 -17 q 64 24 118 4 q 76 120 67 74 q 101 210 86 167 l 136 210 l 197 58 q 234 46 213 47 q 274 44 256 44 q 372 78 335 44 q 410 158 410 111 m 449 1106 q 473 1100 461 1107 q 489 1083 485 1093 l 317 826 q 300 823 310 824 q 282 826 290 822 l 114 1082 q 133 1100 119 1093 q 161 1106 147 1107 l 310 958 l 449 1106 z "},"Ţ":{"ha":860,"x_min":26,"x_max":833,"o":"m 625 0 l 458 0 l 418 -104 q 541 -135 501 -106 q 581 -214 581 -165 q 556 -286 581 -256 q 495 -337 532 -317 q 414 -368 458 -358 q 329 -378 369 -378 l 329 -332 q 422 -301 385 -324 q 458 -239 460 -279 q 426 -183 457 -200 q 333 -161 396 -165 l 388 0 l 235 0 l 235 40 q 297 60 265 51 q 364 74 328 68 l 364 900 l 151 900 l 78 701 l 43 701 q 36 765 39 729 q 31 837 33 800 q 28 909 29 874 q 26 972 26 944 l 833 972 q 832 910 833 944 q 828 838 831 875 q 824 766 826 801 q 818 701 822 731 l 782 701 l 710 900 l 497 900 l 497 74 q 565 60 533 67 q 625 40 596 53 l 625 0 z "},"ţ":{"ha":501,"x_min":21,"x_max":485,"o":"m 21 661 q 132 708 74 694 l 132 814 q 181 847 150 829 q 239 864 211 864 l 257 864 l 257 694 l 451 694 l 451 625 l 257 625 l 257 222 q 276 104 257 139 q 349 69 296 69 q 413 73 376 69 q 475 86 449 76 l 485 65 q 453 39 474 53 q 407 13 433 25 q 350 -8 381 0 q 288 -17 319 -17 l 258 -94 q 369 -123 335 -97 q 406 -193 403 -149 q 385 -263 407 -233 q 331 -312 364 -293 q 257 -341 297 -332 q 179 -349 217 -350 l 179 -307 q 264 -279 232 -300 q 294 -215 296 -258 q 265 -165 293 -181 q 181 -146 238 -150 l 228 -8 q 154 53 176 7 q 132 183 132 100 l 132 625 l 21 625 l 21 661 z "},"Ť":{"ha":860,"x_min":26,"x_max":833,"o":"m 625 0 l 235 0 l 235 40 q 297 60 265 51 q 364 74 328 68 l 364 900 l 151 900 l 78 701 l 43 701 q 36 765 39 729 q 31 837 33 800 q 28 909 29 874 q 26 972 26 944 l 833 972 q 832 910 833 944 q 828 838 831 875 q 824 766 826 801 q 818 701 822 731 l 782 701 l 710 900 l 497 900 l 497 74 q 565 60 533 67 q 625 40 596 53 l 625 0 m 589 1233 q 610 1226 600 1233 q 624 1210 619 1219 l 447 1054 q 430 1051 440 1051 q 411 1054 419 1050 l 238 1206 q 251 1224 243 1215 q 272 1233 258 1233 l 435 1157 l 589 1233 z "},"ť":{"ha":515,"x_min":21,"x_max":513,"o":"m 21 661 q 132 708 74 694 l 132 826 q 174 853 150 842 q 222 876 199 865 l 257 876 l 257 694 l 465 694 l 465 625 l 257 625 l 257 222 q 283 104 257 139 q 363 69 310 69 q 425 73 388 69 q 489 86 463 76 l 499 65 q 467 39 488 53 q 422 13 447 25 q 365 -8 396 0 q 303 -17 335 -17 q 176 31 219 -17 q 132 183 132 78 l 132 625 l 21 625 l 21 661 m 324 754 q 368 890 353 817 q 383 1019 383 963 l 400 1042 q 426 1041 410 1043 q 458 1034 442 1039 q 490 1023 475 1029 q 513 1010 504 1017 q 488 931 506 971 q 448 856 471 892 q 399 790 425 819 q 351 739 374 760 l 324 754 z "},"Ū":{"ha":933,"x_min":14,"x_max":919,"o":"m 14 972 l 367 972 l 367 932 q 314 913 340 921 q 261 897 288 904 l 261 329 q 277 206 261 256 q 324 127 293 157 q 399 84 354 97 q 501 71 444 71 q 672 131 611 71 q 733 331 733 192 l 733 885 q 674 908 701 896 q 624 932 646 919 l 624 972 l 919 972 l 919 932 q 866 904 893 917 q 811 885 839 892 l 811 328 q 788 175 811 239 q 722 69 764 111 q 619 8 679 28 q 485 -12 558 -12 q 219 66 311 -12 q 128 307 128 144 l 128 897 q 14 932 71 906 l 14 972 m 285 1094 l 285 1167 l 703 1167 l 703 1094 l 285 1094 z "},"ū":{"ha":797,"x_min":24,"x_max":763,"o":"m 107 275 q 111 447 107 363 q 115 614 115 531 l 24 625 l 24 661 q 115 690 68 678 q 206 711 161 703 l 240 711 q 236 504 240 607 q 232 300 232 401 q 238 203 232 246 q 260 131 244 160 q 304 85 276 101 q 375 69 332 69 q 480 115 438 69 q 546 232 522 160 l 546 614 l 456 625 l 456 661 q 545 690 499 678 q 636 711 592 703 l 671 711 l 671 79 l 763 68 l 763 39 q 681 7 722 21 q 596 -14 640 -7 l 561 -14 l 551 151 l 546 151 q 522 92 539 122 q 476 38 504 63 q 413 -1 449 14 q 336 -17 378 -17 q 238 -3 281 -17 q 167 43 196 10 q 122 133 138 76 q 107 275 107 189 m 222 885 l 222 957 l 574 957 l 574 885 l 222 885 z "},"Ŭ":{"ha":933,"x_min":14,"x_max":919,"o":"m 14 972 l 367 972 l 367 932 q 314 913 340 921 q 261 897 288 904 l 261 329 q 277 206 261 256 q 324 127 293 157 q 399 84 354 97 q 501 71 444 71 q 672 131 611 71 q 733 331 733 192 l 733 885 q 674 908 701 896 q 624 932 646 919 l 624 972 l 919 972 l 919 932 q 866 904 893 917 q 811 885 839 892 l 811 328 q 788 175 811 239 q 722 69 764 111 q 619 8 679 28 q 485 -12 558 -12 q 219 66 311 -12 q 128 307 128 144 l 128 897 q 14 932 71 906 l 14 972 m 647 1226 q 692 1207 669 1229 q 659 1149 679 1176 q 612 1100 639 1121 q 553 1067 585 1079 q 486 1054 521 1054 q 355 1094 411 1054 q 272 1210 299 1135 q 331 1231 289 1236 q 358 1199 340 1214 q 397 1174 375 1185 q 443 1158 419 1164 q 488 1151 467 1151 q 576 1167 532 1150 q 647 1226 619 1183 z "},"ŭ":{"ha":797,"x_min":24,"x_max":763,"o":"m 107 275 q 111 447 107 363 q 115 614 115 531 l 24 625 l 24 661 q 115 690 68 678 q 206 711 161 703 l 240 711 q 236 504 240 607 q 232 300 232 401 q 238 203 232 246 q 260 131 244 160 q 304 85 276 101 q 375 69 332 69 q 480 115 438 69 q 546 232 522 160 l 546 614 l 456 625 l 456 661 q 545 690 499 678 q 636 711 592 703 l 671 711 l 671 79 l 763 68 l 763 39 q 681 7 722 21 q 596 -14 640 -7 l 561 -14 l 551 151 l 546 151 q 522 92 539 122 q 476 38 504 63 q 413 -1 449 14 q 336 -17 378 -17 q 238 -3 281 -17 q 167 43 196 10 q 122 133 138 76 q 107 275 107 189 m 585 999 q 555 938 572 968 q 514 883 538 907 q 462 844 490 860 q 399 829 433 829 q 332 842 361 829 q 279 878 303 856 q 238 933 256 901 q 207 1001 219 964 l 246 1019 q 273 985 256 1001 q 311 957 290 969 q 356 937 332 944 q 400 929 379 929 q 551 1014 494 926 l 585 999 z "},"Ů":{"ha":933,"x_min":14,"x_max":919,"o":"m 14 972 l 367 972 l 367 932 q 314 913 340 921 q 261 897 288 904 l 261 329 q 277 206 261 256 q 324 127 293 157 q 399 84 354 97 q 501 71 444 71 q 672 131 611 71 q 733 331 733 192 l 733 885 q 674 908 701 896 q 624 932 646 919 l 624 972 l 919 972 l 919 932 q 866 904 893 917 q 811 885 839 892 l 811 328 q 788 175 811 239 q 722 69 764 111 q 619 8 679 28 q 485 -12 558 -12 q 219 66 311 -12 q 128 307 128 144 l 128 897 q 14 932 71 906 l 14 972 m 340 1094 q 353 1144 340 1122 q 388 1182 365 1167 q 438 1206 410 1197 q 500 1214 467 1214 q 553 1207 526 1214 q 603 1186 581 1200 q 638 1151 625 1172 q 651 1099 651 1129 q 639 1050 651 1071 q 606 1015 626 1029 q 557 992 585 1000 q 499 985 529 985 q 384 1013 428 985 q 340 1094 340 1042 m 418 1094 q 442 1054 418 1067 q 493 1042 467 1042 q 551 1054 529 1042 q 574 1093 574 1067 q 549 1143 574 1129 q 497 1157 524 1157 q 440 1144 463 1157 q 418 1094 418 1131 z "},"ů":{"ha":797,"x_min":24,"x_max":763,"o":"m 107 275 q 111 447 107 363 q 115 614 115 531 l 24 625 l 24 661 q 115 690 68 678 q 206 711 161 703 l 240 711 q 236 504 240 607 q 232 300 232 401 q 238 203 232 246 q 260 131 244 160 q 304 85 276 101 q 375 69 332 69 q 480 115 438 69 q 546 232 522 160 l 546 614 l 456 625 l 456 661 q 545 690 499 678 q 636 711 592 703 l 671 711 l 671 79 l 763 68 l 763 39 q 681 7 722 21 q 596 -14 640 -7 l 561 -14 l 551 151 l 546 151 q 522 92 539 122 q 476 38 504 63 q 413 -1 449 14 q 336 -17 378 -17 q 238 -3 281 -17 q 167 43 196 10 q 122 133 138 76 q 107 275 107 189 m 264 949 q 303 1044 264 1006 q 403 1083 343 1083 q 495 1049 457 1083 q 533 953 533 1014 q 522 900 533 924 q 493 860 511 876 q 451 833 475 843 q 401 824 426 824 q 301 857 339 824 q 264 949 264 890 m 336 951 q 355 898 336 915 q 397 881 374 881 q 442 897 425 881 q 460 947 460 913 q 443 1006 460 985 q 399 1026 426 1026 q 351 1006 365 1026 q 336 951 336 985 z "},"Ű":{"ha":933,"x_min":14,"x_max":919,"o":"m 14 972 l 367 972 l 367 932 q 314 913 340 921 q 261 897 288 904 l 261 329 q 277 206 261 256 q 324 127 293 157 q 399 84 354 97 q 501 71 444 71 q 672 131 611 71 q 733 331 733 192 l 733 885 q 674 908 701 896 q 624 932 646 919 l 624 972 l 919 972 l 919 932 q 866 904 893 917 q 811 885 839 892 l 811 328 q 788 175 811 239 q 722 69 764 111 q 619 8 679 28 q 485 -12 558 -12 q 219 66 311 -12 q 128 307 128 144 l 128 897 q 14 932 71 906 l 14 972 m 429 1233 q 454 1232 438 1235 q 489 1225 471 1229 q 522 1214 507 1221 q 540 1200 536 1207 l 540 1181 l 358 1053 l 332 1078 l 429 1233 m 671 1233 q 697 1232 681 1235 q 732 1224 714 1229 q 765 1211 750 1218 q 788 1196 781 1204 l 786 1182 l 540 1050 l 511 1075 l 671 1233 z "},"ű":{"ha":797,"x_min":24,"x_max":763,"o":"m 107 275 q 111 447 107 363 q 115 614 115 531 l 24 625 l 24 661 q 115 690 68 678 q 206 711 161 703 l 240 711 q 236 504 240 607 q 232 300 232 401 q 238 203 232 246 q 260 131 244 160 q 304 85 276 101 q 375 69 332 69 q 480 115 438 69 q 546 232 522 160 l 546 614 l 456 625 l 456 661 q 545 690 499 678 q 636 711 592 703 l 671 711 l 671 79 l 763 68 l 763 39 q 681 7 722 21 q 596 -14 640 -7 l 561 -14 l 551 151 l 546 151 q 522 92 539 122 q 476 38 504 63 q 413 -1 449 14 q 336 -17 378 -17 q 238 -3 281 -17 q 167 43 196 10 q 122 133 138 76 q 107 275 107 189 m 342 1067 q 368 1066 350 1068 q 405 1060 386 1064 q 439 1049 424 1056 q 458 1038 454 1043 l 458 1017 l 267 831 l 235 853 l 342 1067 m 582 1067 q 609 1066 592 1068 q 644 1058 626 1064 q 677 1045 661 1053 q 700 1028 693 1038 l 700 1010 l 424 831 l 397 856 l 582 1067 z "},"Ų":{"ha":933,"x_min":14,"x_max":919,"o":"m 14 972 l 367 972 l 367 932 q 314 913 340 921 q 261 897 288 904 l 261 329 q 277 206 261 256 q 324 127 293 157 q 399 84 354 97 q 501 71 444 71 q 672 131 611 71 q 733 331 733 192 l 733 885 q 674 908 701 896 q 624 932 646 919 l 624 972 l 919 972 l 919 932 q 866 904 893 917 q 811 885 839 892 l 811 328 q 764 122 811 199 q 632 11 717 44 q 569 -26 599 -6 q 519 -72 540 -47 q 484 -126 497 -97 q 471 -187 471 -154 q 495 -251 471 -226 q 564 -276 519 -276 q 640 -268 607 -276 l 640 -308 q 590 -336 621 -324 q 514 -349 560 -349 q 453 -339 482 -349 q 403 -311 425 -329 q 369 -267 382 -293 q 357 -211 357 -242 q 400 -98 357 -144 q 514 -11 443 -51 q 499 -12 507 -12 q 485 -12 492 -12 q 219 66 311 -12 q 128 307 128 144 l 128 897 q 14 932 71 906 l 14 972 z "},"ų":{"ha":797,"x_min":24,"x_max":763,"o":"m 107 275 q 111 447 107 363 q 115 614 115 531 l 24 625 l 24 661 q 123 694 68 678 q 222 711 178 711 l 240 711 q 236 504 240 607 q 232 300 232 401 q 238 203 232 246 q 260 131 244 160 q 304 85 276 101 q 375 69 332 69 q 480 115 438 69 q 546 232 522 160 l 546 614 l 456 625 l 456 661 q 545 690 499 678 q 636 711 592 703 l 671 711 l 671 79 l 763 68 l 763 39 q 730 25 746 32 q 697 11 714 18 q 606 -62 642 -19 q 569 -164 569 -106 q 574 -192 569 -178 q 589 -219 579 -207 q 614 -240 599 -232 q 650 -247 629 -247 q 688 -244 671 -247 q 725 -235 706 -240 l 725 -281 q 675 -300 706 -292 q 619 -308 644 -308 q 496 -274 538 -308 q 454 -186 454 -239 q 490 -88 454 -131 q 583 -14 525 -46 l 572 -14 l 561 -14 l 551 151 l 546 151 q 522 93 539 122 q 477 40 504 64 q 415 -1 450 15 q 339 -17 381 -17 q 312 -17 325 -17 q 286 -14 299 -17 q 208 9 242 -8 q 153 60 175 26 q 119 147 131 94 q 107 275 107 200 z "},"Ÿ":{"ha":894,"x_min":0,"x_max":894,"o":"m 589 972 l 894 972 l 894 932 q 789 897 842 906 l 526 414 l 526 74 q 632 40 581 67 l 632 0 l 279 0 l 279 40 q 393 74 329 65 l 393 413 l 113 897 q 53 912 81 903 q 0 932 26 921 l 0 972 l 368 972 l 368 932 q 321 915 347 924 q 261 897 294 906 l 489 489 l 703 897 q 642 913 671 904 q 589 932 614 922 l 589 972 m 246 1096 q 268 1146 246 1129 q 325 1163 290 1163 q 381 1146 358 1163 q 403 1096 403 1129 q 381 1047 403 1064 q 325 1031 358 1031 q 268 1047 290 1031 q 246 1096 246 1064 m 556 1096 q 578 1146 556 1129 q 633 1163 600 1163 q 690 1146 668 1163 q 713 1096 713 1129 q 690 1047 713 1064 q 633 1031 668 1031 q 578 1047 600 1031 q 556 1096 556 1064 z "},"Ź":{"ha":847,"x_min":54,"x_max":793,"o":"m 740 267 l 776 267 q 784 204 781 239 q 790 133 788 169 q 792 63 792 97 q 792 0 793 28 l 54 0 l 54 71 l 632 900 l 204 900 l 119 706 l 85 706 q 77 769 81 735 q 72 840 74 804 q 69 910 69 876 q 68 972 68 944 l 778 972 l 778 900 l 203 72 l 656 72 l 740 267 m 558 1240 q 590 1239 571 1242 q 630 1230 610 1236 q 667 1215 650 1224 q 693 1196 685 1206 l 693 1168 l 379 1042 l 356 1068 l 558 1240 z "},"ź":{"ha":678,"x_min":60,"x_max":607,"o":"m 588 238 q 602 120 597 179 q 604 0 607 61 l 60 0 l 60 35 l 456 633 l 193 633 l 132 469 l 97 469 q 84 587 86 529 q 82 694 82 644 l 604 694 l 604 658 l 207 61 l 478 61 l 553 238 l 588 238 m 411 1065 q 440 1065 422 1067 q 478 1058 458 1063 q 514 1048 497 1054 q 539 1035 531 1042 l 539 1008 l 279 799 l 249 824 l 411 1065 z "},"Ż":{"ha":847,"x_min":54,"x_max":793,"o":"m 740 267 l 776 267 q 784 204 781 239 q 790 133 788 169 q 792 63 792 97 q 792 0 793 28 l 54 0 l 54 71 l 632 900 l 204 900 l 119 706 l 85 706 q 77 769 81 735 q 72 840 74 804 q 69 910 69 876 q 68 972 68 944 l 778 972 l 778 900 l 203 72 l 656 72 l 740 267 m 329 1135 q 356 1190 329 1171 q 419 1210 382 1210 q 482 1190 457 1210 q 507 1135 507 1171 q 482 1079 507 1099 q 419 1060 457 1060 q 356 1079 382 1060 q 329 1135 329 1099 z "},"ż":{"ha":678,"x_min":60,"x_max":607,"o":"m 588 238 q 602 120 597 179 q 604 0 607 61 l 60 0 l 60 35 l 456 633 l 193 633 l 132 469 l 97 469 q 84 587 86 529 q 82 694 82 644 l 604 694 l 604 658 l 207 61 l 478 61 l 553 238 l 588 238 m 250 931 q 274 990 250 968 q 339 1013 299 1013 q 403 990 379 1013 q 426 931 426 968 q 403 872 426 893 q 339 850 379 850 q 274 872 299 850 q 250 931 250 893 z "},"Ž":{"ha":847,"x_min":54,"x_max":793,"o":"m 740 267 l 776 267 q 784 204 781 239 q 790 133 788 169 q 792 63 792 97 q 792 0 793 28 l 54 0 l 54 71 l 632 900 l 204 900 l 119 706 l 85 706 q 77 769 81 735 q 72 840 74 804 q 69 910 69 876 q 68 972 68 944 l 778 972 l 778 900 l 203 72 l 656 72 l 740 267 m 583 1233 q 604 1226 594 1233 q 618 1210 614 1219 l 442 1054 q 424 1051 435 1051 q 406 1054 414 1050 l 232 1206 q 245 1224 238 1215 q 267 1233 253 1233 l 429 1157 l 583 1233 z "},"ž":{"ha":678,"x_min":60,"x_max":607,"o":"m 588 238 q 602 120 597 179 q 604 0 607 61 l 60 0 l 60 35 l 456 633 l 193 633 l 132 469 l 97 469 q 84 587 86 529 q 82 694 82 644 l 604 694 l 604 658 l 207 61 l 478 61 l 553 238 l 588 238 m 488 1106 q 512 1100 500 1107 q 528 1083 524 1093 l 356 826 q 339 823 349 824 q 321 826 329 822 l 153 1082 q 172 1100 158 1093 q 200 1106 186 1107 l 349 958 l 488 1106 z "},"ſ":{"ha":475,"x_min":43,"x_max":553,"o":"m 425 1044 q 454 1043 438 1044 q 489 1040 471 1042 q 524 1034 507 1038 q 553 1026 540 1031 q 541 941 549 981 q 522 869 533 901 l 488 869 l 426 989 q 358 981 386 989 q 310 949 329 972 q 283 881 292 925 q 274 764 274 836 l 274 68 q 407 35 346 60 l 407 0 l 57 0 l 57 35 q 149 68 100 60 l 149 625 l 43 625 l 43 661 q 149 707 92 692 l 149 756 q 169 898 149 842 q 228 987 190 954 q 316 1032 265 1019 q 425 1044 367 1044 z "},"ƒ":{"ha":740,"x_min":24,"x_max":729,"o":"m 272 625 l 171 625 l 171 661 q 230 688 199 676 q 289 707 261 700 l 299 756 q 348 898 317 842 q 421 987 379 954 q 513 1032 463 1019 q 619 1044 563 1044 q 674 1039 642 1044 q 729 1022 707 1033 q 716 959 728 992 q 676 903 704 926 l 571 989 q 524 974 546 982 q 484 942 503 965 q 449 878 465 919 q 418 764 433 836 l 404 694 l 558 694 q 543 625 565 660 l 389 625 l 301 60 q 250 -104 286 -39 q 174 -210 214 -169 q 94 -269 133 -250 q 33 -294 56 -289 l 24 -268 q 63 -237 40 -260 q 109 -178 86 -215 q 152 -89 132 -142 q 183 33 172 -36 l 272 625 z "},"Ǵ":{"ha":956,"x_min":74,"x_max":932,"o":"m 846 67 q 784 37 819 51 q 709 10 749 22 q 630 -9 669 -1 q 556 -17 590 -17 q 356 13 444 -17 q 204 105 267 43 q 108 261 142 167 q 74 486 74 356 q 113 718 74 622 q 219 874 153 814 q 369 962 285 935 q 540 989 453 989 q 695 977 632 989 q 806 942 758 965 q 804 890 806 921 q 800 826 803 860 q 793 760 797 793 q 785 703 789 728 l 749 703 l 676 903 q 625 914 661 911 q 554 917 589 917 q 422 891 485 917 q 313 812 360 865 q 239 677 267 758 q 211 486 211 596 q 238 308 211 388 q 313 173 265 229 q 426 86 361 117 q 565 56 490 56 q 619 61 593 56 q 668 74 646 67 q 705 90 690 82 q 725 104 719 99 l 725 385 q 656 397 689 388 q 592 418 624 407 l 592 458 l 932 458 l 932 418 q 899 400 918 408 q 846 385 879 392 l 846 67 m 651 1240 q 683 1239 664 1242 q 723 1230 703 1236 q 760 1215 743 1224 q 786 1196 778 1206 l 786 1168 l 472 1042 l 449 1068 l 651 1240 z "},"ǵ":{"ha":731,"x_min":42,"x_max":747,"o":"m 343 711 q 469 697 418 711 q 556 651 521 682 q 726 732 638 707 q 742 694 738 717 q 747 653 747 672 l 729 619 l 583 619 q 618 488 618 569 q 548 325 618 388 q 343 263 478 263 q 300 264 317 263 q 263 268 283 265 q 247 240 256 256 q 238 208 238 225 q 269 165 238 181 q 349 136 301 149 q 453 110 397 124 q 558 74 510 97 q 640 15 607 51 q 674 -81 672 -22 q 651 -171 675 -131 q 583 -238 626 -211 q 480 -280 540 -265 q 347 -294 419 -294 q 119 -243 196 -294 q 42 -114 42 -192 q 53 -49 42 -76 q 88 0 65 -21 q 143 37 110 21 q 219 67 176 53 q 169 105 189 81 q 149 164 149 129 q 176 227 149 196 q 231 276 203 258 q 109 356 151 297 q 67 488 67 414 q 85 576 67 535 q 138 647 103 617 q 224 694 172 678 q 343 711 275 711 m 549 -112 q 519 -42 549 -68 q 444 1 489 -15 q 349 29 400 18 q 253 54 297 40 q 183 -13 200 22 q 167 -86 167 -49 q 219 -197 167 -160 q 372 -233 272 -233 q 458 -224 424 -233 q 512 -198 492 -214 q 540 -160 532 -182 q 549 -112 549 -137 m 192 488 q 199 424 192 454 q 224 372 207 394 q 271 337 242 350 q 343 324 300 324 q 458 371 424 324 q 493 488 493 418 q 459 606 493 563 q 343 650 425 650 q 225 608 258 650 q 192 488 192 565 m 464 1065 q 493 1065 475 1067 q 531 1058 511 1063 q 567 1048 550 1054 q 592 1035 583 1042 l 592 1008 l 332 799 l 301 824 l 464 1065 z "},"Ș":{"ha":744,"x_min":81,"x_max":672,"o":"m 208 96 q 251 67 225 79 q 331 56 278 56 q 414 67 375 56 q 481 102 453 79 q 526 158 510 125 q 543 232 543 190 q 509 325 543 288 q 424 392 475 363 q 314 449 374 421 q 203 515 254 476 q 119 606 153 553 q 85 740 85 660 q 106 844 85 799 q 165 922 126 890 q 256 972 203 954 q 374 989 308 989 q 528 976 458 989 q 639 943 599 963 q 635 888 639 919 q 627 824 632 857 q 617 759 622 790 q 606 704 611 728 l 569 704 l 514 894 q 451 911 489 906 q 369 917 413 917 q 256 877 299 917 q 213 767 213 838 q 247 671 213 710 q 332 601 281 632 q 442 542 383 571 q 553 476 501 514 q 638 388 604 439 q 672 260 672 336 q 649 146 672 197 q 583 58 626 94 q 478 3 540 22 q 336 -17 415 -17 q 179 4 249 -17 q 81 49 110 25 q 85 106 82 72 q 94 174 89 139 q 104 243 99 210 q 115 300 110 276 l 151 300 l 208 96 m 293 -331 q 342 -293 318 -319 q 363 -226 367 -267 q 319 -201 347 -214 q 271 -182 292 -189 q 270 -139 264 -160 q 289 -102 276 -118 q 317 -76 301 -86 q 349 -65 333 -65 q 433 -101 396 -69 q 469 -192 469 -132 q 428 -308 469 -258 q 314 -378 388 -358 l 293 -331 z "},"ș":{"ha":601,"x_min":64,"x_max":535,"o":"m 410 158 q 385 224 410 197 q 324 275 361 251 q 244 321 286 299 q 164 373 201 343 q 102 442 126 403 q 78 538 78 481 q 95 607 78 575 q 142 662 113 639 q 210 698 171 685 q 293 711 249 711 q 416 703 368 711 q 508 679 464 694 q 495 590 503 635 q 474 497 488 544 l 439 497 l 386 639 q 349 648 369 646 q 306 650 328 650 q 262 641 281 650 q 230 618 243 632 q 210 586 217 604 q 203 550 203 568 q 227 485 203 513 q 289 435 251 458 q 369 390 326 413 q 449 340 411 368 q 510 276 486 313 q 535 188 535 239 q 515 103 535 140 q 459 39 494 65 q 377 -2 424 13 q 278 -17 331 -17 q 168 -6 218 -17 q 64 24 118 4 q 76 120 67 74 q 101 210 86 167 l 136 210 l 197 58 q 234 46 213 47 q 274 44 256 44 q 372 78 335 44 q 410 158 410 111 m 206 -328 q 265 -283 249 -311 q 282 -226 282 -254 q 240 -201 267 -214 q 192 -181 213 -187 q 191 -138 185 -158 q 209 -102 197 -118 q 237 -76 221 -86 q 268 -65 253 -65 q 346 -101 314 -69 q 378 -192 378 -132 q 335 -310 378 -258 q 228 -376 292 -361 l 206 -328 z "},"Ț":{"ha":860,"x_min":26,"x_max":833,"o":"m 625 0 l 235 0 l 235 40 q 297 60 265 51 q 364 74 328 68 l 364 900 l 151 900 l 78 701 l 43 701 q 36 765 39 729 q 31 837 33 800 q 28 909 29 874 q 26 972 26 944 l 833 972 q 832 910 833 944 q 828 838 831 875 q 824 766 826 801 q 818 701 822 731 l 782 701 l 710 900 l 497 900 l 497 74 q 565 60 533 67 q 625 40 596 53 l 625 0 m 361 -331 q 410 -293 386 -319 q 431 -226 435 -267 q 388 -201 415 -214 q 339 -182 360 -189 q 338 -139 332 -160 q 357 -102 344 -118 q 385 -76 369 -86 q 417 -65 401 -65 q 501 -101 464 -69 q 538 -192 538 -132 q 497 -308 538 -258 q 382 -378 456 -358 l 361 -331 z "},"ț":{"ha":515,"x_min":21,"x_max":499,"o":"m 21 661 q 132 708 74 694 l 132 826 q 174 853 150 842 q 222 876 199 865 l 257 876 l 257 694 l 465 694 l 465 625 l 257 625 l 257 222 q 283 104 257 139 q 363 69 310 69 q 425 73 388 69 q 489 86 463 76 l 499 65 q 467 39 488 53 q 422 13 447 25 q 365 -8 396 0 q 303 -17 335 -17 q 176 31 219 -17 q 132 183 132 78 l 132 625 l 21 625 l 21 661 m 193 -328 q 253 -283 236 -311 q 269 -226 269 -254 q 227 -201 254 -214 q 179 -181 200 -187 q 178 -138 172 -158 q 197 -102 185 -118 q 224 -76 208 -86 q 256 -65 240 -65 q 333 -101 301 -69 q 365 -192 365 -132 q 322 -310 365 -258 q 215 -376 279 -361 l 193 -328 z "},"ȷ":{"ha":400,"x_min":49,"x_max":272,"o":"m 147 614 l 56 625 l 56 661 q 144 692 96 681 q 238 711 192 704 l 272 711 l 272 60 q 247 -104 272 -39 q 189 -210 222 -169 q 121 -269 156 -250 q 65 -294 86 -289 l 49 -268 q 83 -239 65 -260 q 115 -181 100 -218 q 138 -92 129 -144 q 147 33 147 -39 l 147 614 z "},"ʼ":{"ha":392,"x_min":83,"x_max":308,"o":"m 83 658 q 173 715 138 675 q 201 808 208 756 q 158 833 186 821 q 110 854 131 846 q 109 897 103 876 q 128 934 115 918 q 156 960 140 950 q 188 971 172 971 q 271 935 233 967 q 308 843 308 904 q 294 774 308 810 q 254 706 281 738 q 190 649 228 674 q 107 611 153 624 l 83 658 z "},"ˆ":{"ha":513,"x_min":83,"x_max":429,"o":"m 124 819 l 83 842 l 236 1100 q 253 1105 243 1104 q 271 1100 264 1106 l 429 843 l 392 819 l 249 968 l 124 819 z "},"ˇ":{"ha":542,"x_min":83,"x_max":458,"o":"m 418 1106 q 442 1100 431 1107 q 458 1083 454 1093 l 286 826 q 269 823 279 824 q 251 826 260 822 l 83 1082 q 103 1100 89 1093 q 131 1106 117 1107 l 279 958 l 418 1106 z "},"˘":{"ha":544,"x_min":83,"x_max":461,"o":"m 461 999 q 431 938 449 968 q 390 883 414 907 q 338 844 367 860 q 275 829 310 829 q 208 842 238 829 q 156 878 179 856 q 114 933 132 901 q 83 1001 96 964 l 122 1019 q 149 985 132 1001 q 188 957 167 969 q 232 937 208 944 q 276 929 256 929 q 428 1014 371 926 l 461 999 z "},"˙":{"ha":343,"x_min":83,"x_max":260,"o":"m 83 931 q 108 990 83 968 q 172 1013 132 1013 q 236 990 213 1013 q 260 931 260 968 q 236 872 260 893 q 172 850 213 850 q 108 872 132 850 q 83 931 83 893 z "},"˚":{"ha":436,"x_min":83,"x_max":353,"o":"m 83 949 q 123 1044 83 1006 q 222 1083 163 1083 q 315 1049 276 1083 q 353 953 353 1014 q 342 900 353 924 q 313 860 331 876 q 270 833 294 843 q 221 824 246 824 q 121 857 158 824 q 83 949 83 890 m 156 951 q 174 898 156 915 q 217 881 193 881 q 262 897 244 881 q 279 947 279 913 q 263 1006 279 985 q 218 1026 246 1026 q 170 1006 185 1026 q 156 951 156 985 z "},"˛":{"ha":442,"x_min":83,"x_max":358,"o":"m 358 28 q 297 -7 325 13 q 247 -51 268 -26 q 213 -103 225 -75 q 200 -164 200 -131 q 204 -192 200 -178 q 218 -219 208 -207 q 243 -240 228 -232 q 281 -247 258 -247 q 317 -244 300 -247 q 354 -235 335 -240 l 354 -281 q 305 -300 335 -292 q 250 -308 275 -308 q 125 -274 167 -308 q 83 -186 83 -239 q 101 -117 83 -149 q 149 -58 118 -85 q 220 -10 179 -32 q 307 28 261 11 l 358 28 z "},"˜":{"ha":593,"x_min":83,"x_max":510,"o":"m 510 933 q 428 872 465 889 q 360 854 392 854 q 313 862 335 854 q 269 878 290 869 q 228 894 249 886 q 188 901 208 901 q 151 894 169 901 q 110 868 132 888 l 83 907 q 175 972 135 956 q 247 989 215 989 q 294 982 272 989 q 335 967 315 975 q 374 951 354 958 q 415 944 394 944 q 451 951 433 944 q 492 972 469 957 l 510 933 z "},"˝":{"ha":632,"x_min":83,"x_max":549,"o":"m 190 1067 q 217 1066 199 1068 q 253 1060 235 1064 q 288 1049 272 1056 q 307 1038 303 1043 l 307 1017 l 115 831 l 83 853 l 190 1067 m 431 1067 q 458 1066 440 1068 q 492 1058 475 1064 q 526 1045 510 1053 q 549 1028 542 1038 l 549 1010 l 272 831 l 246 856 l 431 1067 z "},"́":{"ha":3,"x_min":-418,"x_max":-128,"o":"m -256 1065 q -226 1065 -244 1067 q -189 1058 -208 1063 q -153 1048 -169 1054 q -128 1035 -136 1042 l -128 1008 l -387 799 l -418 824 l -256 1065 z "},"Δ":{"ha":900,"x_min":28,"x_max":872,"o":"m 28 0 l 28 43 l 435 972 l 474 972 l 872 43 l 872 0 l 28 0 m 425 782 l 126 85 l 711 85 l 425 782 z "},"Ω":{"ha":1107,"x_min":79,"x_max":1028,"o":"m 79 0 q 81 59 79 25 q 84 130 82 93 q 89 203 86 167 q 94 269 92 239 l 129 269 l 190 106 l 411 106 q 294 166 350 128 q 197 257 239 204 q 129 377 154 310 q 104 524 104 444 q 136 715 104 629 q 228 861 168 800 q 373 956 288 922 q 564 989 458 989 q 754 957 672 989 q 892 865 836 925 q 977 722 949 806 q 1006 538 1006 639 q 978 381 1006 451 q 908 255 951 310 q 813 163 865 200 q 708 106 760 125 l 915 106 l 978 269 l 1013 269 q 1018 203 1015 239 q 1023 130 1021 167 q 1026 59 1025 93 q 1028 0 1028 25 l 636 0 l 636 115 q 708 163 669 129 q 781 247 747 196 q 836 367 814 299 q 858 522 858 436 q 840 675 858 603 q 785 801 822 747 q 694 885 749 854 q 564 917 639 917 q 421 886 481 917 q 324 803 361 856 q 269 683 286 751 q 251 538 251 614 q 275 380 251 451 q 334 253 299 308 q 410 163 369 199 q 485 115 451 128 l 485 0 l 79 0 z "},"π":{"ha":854,"x_min":31,"x_max":824,"o":"m 772 69 l 772 40 q 679 8 732 22 q 582 -12 626 -6 l 547 -12 l 547 607 l 282 607 l 282 343 q 278 251 282 299 q 267 159 275 204 q 249 73 260 114 q 226 0 239 32 q 190 -8 214 -7 q 144 -8 167 -8 q 106 -4 122 -7 q 89 0 89 -1 l 82 11 q 138 132 113 58 q 180 289 163 206 q 206 456 197 372 q 215 607 215 540 l 192 607 q 117 587 153 607 q 49 525 81 567 l 31 536 q 49 601 38 571 q 81 655 60 632 q 138 691 103 678 q 229 703 174 704 q 285 701 244 703 q 381 699 326 700 q 499 696 436 697 q 618 694 561 694 q 692 695 663 694 q 742 700 722 696 q 776 711 763 704 q 804 731 790 718 l 824 718 q 788 640 818 674 q 697 607 757 607 l 681 607 l 681 81 l 772 69 z "},"Ё":{"ha":808,"x_min":40,"x_max":728,"o":"m 699 972 q 694 860 697 917 q 683 747 690 804 l 647 747 l 590 900 l 288 900 l 288 532 l 514 532 l 568 635 l 603 635 q 603 354 611 497 l 568 354 l 514 460 l 288 460 l 288 72 l 607 72 l 675 239 l 710 239 q 724 121 719 181 q 725 0 728 61 l 40 0 l 40 40 q 154 74 89 63 l 154 897 q 97 912 126 903 q 40 932 68 921 l 40 972 l 699 972 m 175 1096 q 197 1146 175 1129 q 254 1163 219 1163 q 310 1146 288 1163 q 332 1096 332 1129 q 310 1047 332 1064 q 254 1031 288 1031 q 197 1047 219 1031 q 175 1096 175 1064 m 485 1096 q 507 1146 485 1129 q 563 1163 529 1163 q 619 1146 597 1163 q 642 1096 642 1129 q 619 1047 642 1064 q 563 1031 597 1031 q 507 1047 529 1031 q 485 1096 485 1064 z "},"Ђ":{"ha":1043,"x_min":14,"x_max":989,"o":"m 989 331 q 967 161 989 226 q 908 59 946 96 q 819 9 871 22 q 704 -4 767 -4 l 696 33 q 761 57 732 42 q 811 103 790 72 q 844 186 832 135 q 856 318 856 238 q 817 473 856 415 q 686 531 778 531 q 575 513 628 531 q 483 472 522 496 l 483 74 q 534 58 510 67 q 582 40 558 50 l 582 0 l 222 0 l 222 40 q 283 60 251 51 q 350 74 314 68 l 350 900 l 138 900 l 65 701 l 29 701 q 23 765 25 729 q 19 837 21 800 q 15 909 17 874 q 14 972 14 944 l 819 972 q 818 910 819 944 q 815 840 817 876 q 810 769 813 804 q 804 706 808 735 l 768 706 l 696 900 l 483 900 l 483 540 q 583 582 521 561 q 725 603 646 603 q 831 591 783 603 q 915 549 879 579 q 969 467 950 519 q 989 331 989 414 z "},"Ѓ":{"ha":704,"x_min":40,"x_max":690,"o":"m 288 74 q 421 40 356 63 l 421 0 l 40 0 l 40 40 q 154 74 96 63 l 154 897 q 97 912 126 903 q 40 932 68 921 l 40 972 l 690 972 q 689 908 690 944 q 686 833 688 872 q 682 758 685 794 q 675 692 679 721 l 639 692 l 567 900 l 288 900 l 288 74 m 513 1240 q 544 1239 525 1242 q 584 1230 564 1236 q 622 1215 604 1224 q 647 1196 639 1206 l 647 1168 l 333 1042 l 310 1068 l 513 1240 z "},"Є":{"ha":893,"x_min":74,"x_max":814,"o":"m 760 253 l 796 253 q 808 155 803 214 q 811 40 814 96 q 761 13 790 24 q 699 -4 732 3 q 633 -14 667 -11 q 568 -17 599 -17 q 360 13 451 -17 q 205 104 268 43 q 108 260 142 165 q 74 486 74 356 q 111 717 74 622 q 213 873 149 813 q 361 961 276 933 q 539 989 446 989 q 693 977 631 989 q 803 942 756 965 q 801 890 803 919 q 797 826 800 860 q 790 761 794 793 q 782 703 786 729 l 746 703 l 674 903 q 623 914 658 911 q 553 917 588 917 q 426 892 486 917 q 320 819 367 868 q 244 697 274 771 q 211 521 215 622 l 667 540 q 672 432 685 485 q 565 440 624 436 q 444 447 506 443 q 322 452 382 450 q 211 454 263 454 q 242 289 215 363 q 316 163 269 215 q 428 83 363 111 q 578 56 494 56 q 654 63 624 56 q 694 81 685 69 l 760 253 z "},"Ѕ":{"ha":744,"x_min":81,"x_max":672,"o":"m 208 96 q 251 67 225 79 q 331 56 278 56 q 414 67 375 56 q 481 102 453 79 q 526 158 510 125 q 543 232 543 190 q 509 325 543 288 q 424 392 475 363 q 314 449 374 421 q 203 515 254 476 q 119 606 153 553 q 85 740 85 660 q 106 844 85 799 q 165 922 126 890 q 256 972 203 954 q 374 989 308 989 q 528 976 458 989 q 639 943 599 963 q 635 888 639 919 q 627 824 632 857 q 617 759 622 790 q 606 704 611 728 l 569 704 l 514 894 q 451 911 489 906 q 369 917 413 917 q 256 877 299 917 q 213 767 213 838 q 247 671 213 710 q 332 601 281 632 q 442 542 383 571 q 553 476 501 514 q 638 388 604 439 q 672 260 672 336 q 649 146 672 197 q 583 58 626 94 q 478 3 540 22 q 336 -17 415 -17 q 179 4 249 -17 q 81 49 110 25 q 85 106 82 72 q 94 174 89 139 q 104 243 99 210 q 115 300 110 276 l 151 300 l 208 96 z "},"І":{"ha":489,"x_min":67,"x_max":422,"o":"m 422 0 l 67 0 l 67 40 q 178 74 121 65 l 178 897 q 122 912 150 903 q 67 932 94 921 l 67 972 l 422 972 l 422 932 q 368 912 397 921 q 311 897 339 903 l 311 74 q 369 60 340 68 q 422 40 399 51 l 422 0 z "},"Ї":{"ha":489,"x_min":44,"x_max":444,"o":"m 44 1096 q 66 1146 44 1129 q 122 1163 88 1163 q 178 1146 156 1163 q 200 1096 200 1129 q 178 1047 200 1064 q 122 1031 156 1031 q 66 1047 88 1031 q 44 1096 44 1064 m 289 1096 q 311 1146 289 1129 q 367 1163 333 1163 q 423 1146 401 1163 q 444 1096 444 1129 q 423 1047 444 1064 q 367 1031 401 1031 q 311 1047 333 1031 q 289 1096 289 1064 m 422 0 l 67 0 l 67 40 q 178 74 121 65 l 178 897 q 122 912 150 903 q 67 932 94 921 l 67 972 l 422 972 l 422 932 q 368 912 397 921 q 311 897 339 903 l 311 74 q 369 60 340 68 q 422 40 399 51 l 422 0 z "},"Ј":{"ha":474,"x_min":54,"x_max":407,"o":"m 54 972 l 407 972 l 407 932 q 356 912 382 921 q 301 897 329 903 l 301 119 q 279 -40 301 22 q 224 -141 257 -103 q 155 -197 192 -179 q 88 -222 118 -215 l 72 -201 q 110 -160 93 -183 q 141 -103 128 -137 q 161 -18 154 -68 q 168 104 168 32 l 168 897 q 108 913 138 904 q 54 932 79 921 l 54 972 z "},"Љ":{"ha":1279,"x_min":-14,"x_max":1225,"o":"m 517 0 l 517 40 q 622 74 569 65 l 622 900 l 363 900 q 342 538 357 682 q 306 301 328 394 q 255 151 283 207 q 193 53 226 96 q 125 0 165 17 q 47 -17 85 -17 q 27 15 38 -6 q 8 58 17 35 q -7 103 -1 81 q -14 144 -12 126 l 7 179 l 167 150 q 208 242 188 185 q 244 387 228 299 q 270 599 260 475 q 281 890 281 722 q 139 932 194 904 l 139 972 l 878 972 l 878 932 q 821 912 851 921 q 756 897 790 903 l 756 579 q 817 585 781 582 q 881 589 853 589 q 1011 576 949 589 q 1121 532 1074 564 q 1197 444 1168 500 q 1225 303 1225 389 q 1193 163 1225 221 q 1110 68 1161 106 q 993 13 1058 31 q 861 -4 928 -4 q 834 -3 854 -4 q 789 -2 814 -3 q 736 -1 764 -1 q 688 0 708 0 l 517 0 m 850 517 q 796 516 817 517 q 756 510 775 515 l 756 74 q 776 70 763 71 q 803 69 789 69 q 832 68 818 68 q 854 68 846 68 q 1014 126 951 68 q 1076 304 1076 185 q 1020 463 1076 408 q 850 517 964 517 z "},"Њ":{"ha":1381,"x_min":40,"x_max":1326,"o":"m 619 0 l 619 40 q 671 61 647 53 q 724 74 694 69 l 724 481 l 288 481 l 288 74 q 342 60 315 68 q 392 40 368 51 l 392 0 l 40 0 l 40 40 q 154 74 96 63 l 154 897 q 40 932 89 907 l 40 972 l 392 972 l 392 932 q 342 911 368 919 q 288 897 315 903 l 288 553 l 724 553 l 724 897 q 672 913 696 904 q 619 932 647 921 l 619 972 l 979 972 l 979 932 q 922 912 953 921 q 857 897 892 903 l 857 551 q 918 558 882 556 q 982 561 954 561 q 1113 549 1050 561 q 1222 505 1175 536 q 1298 420 1269 474 q 1326 285 1326 367 q 1295 149 1326 204 q 1213 60 1264 94 q 1096 11 1161 26 q 963 -4 1031 -4 q 935 -3 956 -4 q 890 -2 915 -3 q 838 -1 865 -1 q 789 0 810 0 l 619 0 m 953 488 q 898 487 919 488 q 857 481 876 486 l 857 74 q 877 70 864 71 q 906 69 890 69 q 935 68 921 68 q 956 68 949 68 q 1045 81 1004 68 q 1115 119 1086 93 q 1161 187 1144 146 q 1178 285 1178 228 q 1122 434 1178 381 q 953 488 1065 488 z "},"Ћ":{"ha":1076,"x_min":14,"x_max":1063,"o":"m 483 900 l 483 540 q 576 582 521 561 q 711 603 632 603 q 816 591 769 603 q 895 550 863 579 q 945 471 928 521 q 963 343 963 421 l 963 74 q 1063 40 1013 65 l 1063 0 l 829 0 l 829 318 q 822 406 829 367 q 797 472 814 444 q 749 515 779 500 q 672 531 718 531 q 568 513 614 531 q 483 472 522 496 l 483 74 q 534 58 510 67 q 582 40 558 50 l 582 0 l 222 0 l 222 40 q 283 60 251 51 q 350 74 314 68 l 350 900 l 138 900 l 65 701 l 29 701 q 23 765 25 729 q 19 837 21 800 q 15 909 17 874 q 14 972 14 944 l 819 972 q 818 910 819 944 q 815 840 817 876 q 810 769 813 804 q 804 707 808 735 l 768 707 l 696 900 l 483 900 z "},"Ќ":{"ha":897,"x_min":40,"x_max":897,"o":"m 531 972 l 838 972 l 838 932 q 783 911 810 919 q 732 897 757 903 l 453 528 q 533 425 488 482 q 627 308 578 368 q 728 185 676 247 q 831 68 781 124 l 897 35 l 897 0 l 724 0 l 676 33 q 513 240 594 129 q 356 465 432 351 l 288 465 l 288 74 q 392 40 351 63 l 392 0 l 40 0 l 40 40 q 154 74 96 63 l 154 897 q 40 932 92 906 l 40 972 l 392 972 l 392 932 q 343 913 369 922 q 288 897 317 904 l 288 513 l 371 532 l 631 897 q 578 913 603 904 q 531 932 553 921 l 531 972 m 582 1240 q 614 1239 594 1242 q 653 1230 633 1236 q 691 1215 674 1224 q 717 1196 708 1206 l 717 1168 l 403 1042 l 379 1068 l 582 1240 z "},"Ў":{"ha":917,"x_min":0,"x_max":917,"o":"m 725 897 q 607 932 656 910 l 607 972 l 917 972 l 917 932 q 874 915 899 924 q 817 897 849 906 l 544 279 q 486 147 515 204 q 426 53 457 89 q 361 1 396 17 q 286 -7 326 -15 q 270 25 278 6 q 257 65 263 44 q 247 106 251 86 q 242 143 243 126 l 263 178 l 406 140 q 417 157 411 146 q 430 182 424 168 q 442 210 436 196 q 450 235 447 224 l 104 897 q 51 913 78 904 q 0 932 25 921 l 0 972 l 365 972 l 365 932 q 313 913 342 922 q 253 897 285 904 l 483 438 l 513 349 l 515 349 l 543 440 l 725 897 m 489 1017 q 302 1067 361 1017 q 243 1193 243 1118 q 288 1215 258 1208 q 347 1224 318 1222 l 382 1206 l 382 1088 q 430 1073 401 1078 q 490 1068 458 1068 q 547 1072 514 1068 q 599 1083 579 1076 l 599 1206 l 633 1224 q 684 1216 654 1225 q 732 1193 714 1207 q 718 1124 732 1156 q 675 1068 704 1092 q 600 1031 646 1044 q 489 1017 554 1017 z "},"Џ":{"ha":997,"x_min":40,"x_max":957,"o":"m 392 932 q 288 897 344 911 l 288 72 l 710 72 l 710 897 q 606 932 635 914 l 606 972 l 957 972 l 957 932 q 899 909 928 918 q 843 897 871 900 l 843 74 q 901 61 872 68 q 957 40 931 54 l 957 0 l 564 0 q 544 -131 556 -65 q 517 -265 532 -197 l 481 -265 q 456 -131 467 -197 q 433 0 444 -65 l 40 0 l 40 40 q 154 74 96 63 l 154 897 q 89 912 117 903 q 40 932 61 921 l 40 972 l 392 972 l 392 932 z "},"А":{"ha":949,"x_min":0,"x_max":949,"o":"m 308 0 l 0 0 l 0 40 q 100 74 50 63 l 451 989 l 492 989 l 843 74 q 898 61 871 68 q 949 40 925 54 l 949 0 l 593 0 l 593 40 q 650 60 621 51 q 707 74 679 68 l 613 328 l 281 328 l 189 74 q 308 40 247 65 l 308 0 m 308 400 l 589 400 l 479 694 l 453 814 l 450 814 l 415 692 l 308 400 z "},"Б":{"ha":833,"x_min":40,"x_max":760,"o":"m 154 897 q 94 912 122 903 q 40 932 67 921 l 40 972 l 706 972 q 703 848 707 917 q 690 721 699 779 l 654 721 l 582 900 l 288 900 l 288 565 q 349 572 313 568 q 414 575 386 575 q 544 560 482 575 q 655 513 607 546 q 731 424 703 479 q 760 289 760 369 q 730 158 760 213 q 650 67 700 103 q 533 13 600 31 q 393 -4 467 -4 q 366 -3 386 -4 q 319 -2 346 -3 q 265 -1 293 -1 q 217 0 238 0 l 40 0 l 40 40 q 154 74 94 65 l 154 897 m 383 503 q 328 501 350 503 q 288 496 307 500 l 288 74 q 308 70 294 71 q 336 69 321 69 q 365 68 351 68 q 388 68 379 68 q 477 81 436 68 q 548 122 518 94 q 594 192 578 150 q 611 290 611 233 q 554 448 611 393 q 383 503 497 503 z "},"В":{"ha":854,"x_min":40,"x_max":781,"o":"m 40 0 l 40 40 q 154 74 96 67 l 154 897 q 97 912 126 903 q 40 932 68 921 l 40 972 l 188 972 q 238 974 214 972 q 289 976 263 975 q 346 979 315 978 q 415 981 376 981 q 528 972 471 981 q 633 938 586 963 q 708 867 679 913 q 738 750 738 822 q 726 678 738 714 q 692 610 715 642 q 635 556 669 579 q 553 521 600 532 l 553 515 q 635 492 594 508 q 708 447 676 475 q 760 376 740 418 q 781 276 781 335 q 747 147 781 201 q 660 58 714 93 q 539 8 607 24 q 401 -8 471 -8 q 292 -4 353 -8 q 174 0 231 0 l 40 0 m 411 64 q 505 79 461 64 q 580 122 549 94 q 629 187 611 149 q 647 269 647 225 q 626 362 647 325 q 567 420 604 399 q 483 450 531 442 q 383 458 435 458 l 279 458 l 279 75 q 326 67 299 69 q 411 64 353 64 m 349 531 q 405 533 372 531 q 458 538 438 535 q 563 609 522 560 q 604 725 604 658 q 549 863 604 817 q 403 908 494 908 q 329 907 360 908 q 279 903 299 906 l 279 531 l 349 531 z "},"Г":{"ha":704,"x_min":40,"x_max":690,"o":"m 288 74 q 421 40 356 63 l 421 0 l 40 0 l 40 40 q 154 74 96 63 l 154 897 q 97 912 126 903 q 40 932 68 921 l 40 972 l 690 972 q 689 908 690 944 q 686 833 688 872 q 682 758 685 794 q 675 692 679 721 l 639 692 l 567 900 l 288 900 l 288 74 z "},"Д":{"ha":951,"x_min":0,"x_max":929,"o":"m 929 72 q 926 8 929 44 q 919 -68 924 -29 q 910 -144 915 -107 q 901 -210 906 -182 l 865 -210 l 807 0 l 122 0 l 64 -210 l 29 -210 q 17 -146 22 -183 q 9 -69 13 -108 q 3 8 6 -29 q 0 72 0 44 l 115 72 q 183 222 151 131 q 238 422 215 313 q 275 651 261 531 q 289 890 289 772 q 217 907 253 897 q 147 932 182 917 l 147 972 l 885 972 l 885 932 q 833 913 861 922 q 771 897 806 904 l 771 72 l 929 72 m 638 72 l 638 900 l 369 900 q 342 595 361 729 q 299 359 324 461 q 249 186 275 257 q 203 72 224 115 l 638 72 z "},"Е":{"ha":808,"x_min":40,"x_max":728,"o":"m 699 972 q 694 860 697 917 q 683 747 690 804 l 647 747 l 590 900 l 288 900 l 288 532 l 514 532 l 568 635 l 603 635 q 603 354 611 497 l 568 354 l 514 460 l 288 460 l 288 72 l 607 72 l 675 239 l 710 239 q 724 121 719 181 q 725 0 728 61 l 40 0 l 40 40 q 154 74 89 63 l 154 897 q 97 912 126 903 q 40 932 68 921 l 40 972 l 699 972 z "},"Ж":{"ha":1315,"x_min":0,"x_max":1315,"o":"m 589 897 q 535 914 560 906 q 490 932 510 922 l 490 972 l 813 972 l 813 932 q 773 915 796 924 q 722 897 750 907 l 722 513 l 817 532 l 1050 897 q 998 915 1022 906 q 950 932 974 924 l 950 972 l 1256 972 l 1256 932 q 1204 913 1231 921 q 1151 897 1178 904 l 899 528 q 975 425 935 482 q 1059 307 1015 368 q 1151 185 1103 246 q 1250 68 1199 124 l 1315 35 l 1315 0 l 1142 0 l 1094 35 q 945 241 1013 131 q 803 465 878 351 l 722 465 l 722 74 q 769 59 746 67 q 813 40 792 51 l 813 0 l 489 0 l 489 40 q 589 74 531 63 l 589 478 l 506 457 q 367 237 431 343 q 221 35 303 131 l 174 0 l 0 0 l 0 35 l 65 68 q 165 183 117 124 q 258 301 214 243 q 342 415 303 360 q 413 515 381 469 l 151 897 q 53 932 94 914 l 53 972 l 360 972 l 360 932 q 317 913 340 922 q 265 897 293 904 l 500 524 l 589 524 l 589 897 z "}}}
